<?xml version="1.0" standalone="no"?><!DOCTYPE svg PUBLIC "-//W3C//DTD SVG 1.1//EN" "http://www.w3.org/Graphics/SVG/1.1/DTD/svg11.dtd"><svg class="icon" width="200px" height="200.00px" viewBox="0 0 1024 1024" version="1.1" xmlns="http://www.w3.org/2000/svg"><path d="M816.1 578.8l-156 270.1c-54.6 94.6-191.1 94.6-245.7 0l-156-270.1c-61.1-105.8 15.3-238 137.4-238h282.8c122.2 0 198.6 132.2 137.5 238z" fill="#D1003C" /><path d="M748.6 578.8L610.8 848.9c-48.2 94.6-168.8 94.6-217 0L256 578.8c-53.9-105.8 13.5-238 121.4-238h249.8c107.9 0 175.3 132.2 121.4 238z" fill="#FF004B" /><path d="M463.9 201c40.3 49.5 30.1 124.5 30.1 124.5s-75.6-5.2-115.9-54.6S348 146.3 348 146.3s75.6 5.2 115.9 54.7zM564.2 201C523.8 250.4 534 325.5 534 325.5s75.6-5.2 115.9-54.6c40.3-49.5 30.1-124.5 30.1-124.5s-75.5 5.1-115.8 54.6z" fill="#5CCE3C" /><path d="M456.3 202.6c-1.2 65.3 54.4 119.3 54.4 119.3s57.6-51.9 58.8-117.1c1.2-65.3-54.4-119.3-54.4-119.3s-57.6 51.8-58.8 117.1z" fill="#66D64C" /><path d="M329.6 454.8l12.4-21.5c4.9-8.4 17-8.4 21.8 0l12.4 21.5c2.3 3.9 2.3 8.7 0 12.6l-12.4 21.5c-4.9 8.4-17 8.4-21.8 0l-12.4-21.5c-2.3-3.9-2.3-8.7 0-12.6zM384.6 569.8l12.4-21.5c4.9-8.4 17-8.4 21.8 0l12.4 21.5c2.3 3.9 2.3 8.7 0 12.6l-12.4 21.5c-4.9 8.4-17 8.4-21.8 0l-12.4-21.5c-2.3-3.9-2.3-8.7 0-12.6zM448.7 683.8l12.4-21.5c4.9-8.4 17-8.4 21.8 0l12.4 21.5c2.3 3.9 2.3 8.7 0 12.6l-12.4 21.5c-4.9 8.4-17 8.4-21.8 0l-12.4-21.5c-2.3-3.9-2.3-8.7 0-12.6zM502.7 571.6l12.4-21.5c4.9-8.4 17-8.4 21.8 0l12.4 21.5c2.3 3.9 2.3 8.7 0 12.6l-12.4 21.5c-4.9 8.4-17 8.4-21.8 0l-12.4-21.5c-2.3-3.9-2.3-8.7 0-12.6zM441.7 454.8l12.4-21.5c4.9-8.4 17-8.4 21.8 0l12.4 21.5c2.3 3.9 2.3 8.7 0 12.6l-12.4 21.5c-4.9 8.4-17 8.4-21.8 0l-12.4-21.5c-2.3-3.9-2.3-8.7 0-12.6zM551.6 454.8l12.4-21.5c4.9-8.4 17-8.4 21.8 0l12.4 21.5c2.3 3.9 2.3 8.7 0 12.6l-12.4 21.5c-4.9 8.4-17 8.4-21.8 0l-12.4-21.5c-2.3-3.9-2.3-8.7 0-12.6z" fill="#FF97C1" /><path d="M557.6 685.8l12.4-21.5c4.9-8.4 17-8.4 21.8 0l12.4 21.5c2.3 3.9 2.3 8.7 0 12.6l-12.4 21.5c-4.9 8.4-17 8.4-21.8 0l-12.4-21.5c-2.3-3.9-2.3-8.7 0-12.6zM502.6 786.8l12.4-21.5c4.9-8.4 17-8.4 21.8 0l12.4 21.5c2.3 3.9 2.3 8.7 0 12.6l-12.4 21.5c-4.9 8.4-17 8.4-21.8 0l-12.4-21.5c-2.3-3.9-2.3-8.7 0-12.6zM622.6 573.8l12.4-21.5c4.9-8.4 17-8.4 21.8 0l12.4 21.5c2.3 3.9 2.3 8.7 0 12.6l-12.4 21.5c-4.9 8.4-17 8.4-21.8 0l-12.4-21.5c-2.3-3.9-2.3-8.7 0-12.6zM667.7 454.8l12.4-21.5c4.9-8.4 17-8.4 21.8 0l12.4 21.5c2.3 3.9 2.3 8.7 0 12.6l-12.4 21.5c-4.9 8.4-17 8.4-21.8 0l-12.4-21.5c-2.3-3.9-2.3-8.7 0-12.6z" fill="#D1003C" /></svg>