<?xml version="1.0" standalone="no"?><!DOCTYPE svg PUBLIC "-//W3C//DTD SVG 1.1//EN" "http://www.w3.org/Graphics/SVG/1.1/DTD/svg11.dtd"><svg class="icon" width="200px" height="200.00px" viewBox="0 0 1024 1024" version="1.1" xmlns="http://www.w3.org/2000/svg"><path d="M538.7 167.2s43.2 180.3-43.3 307.8-270 153.9-270 153.9-43.2-180.3 43.3-307.8 270-153.9 270-153.9z" fill="#66D64C" /><path d="M213.9 645.6l-3.2-13.3c-0.5-1.9-11.2-47.5-11.2-109.6 0-36.6 3.8-71.3 11.2-103.2 9.4-40.3 24.7-76.3 45.5-106.9s48.6-58.1 82.6-81.7c26.9-18.7 57.8-35 91.8-48.5 57.7-22.9 104-29.8 106-30l13.5-1.9 3.2 13.3c0.5 1.9 11.2 47.5 11.2 109.6 0 36.6-3.8 71.3-11.2 103.2-9.4 40.3-24.7 76.3-45.5 106.9s-48.6 58.1-82.6 81.7c-26.9 18.7-57.8 35-91.8 48.5-57.7 22.9-104 29.8-106 30l-13.5 1.9z m313-461c-17.5 3.6-49.6 11.4-85.9 25.9-49.5 19.8-117.5 56.5-159.9 119-42.5 62.5-51.5 139.2-51.6 192.5-0.1 39.1 4.5 71.8 7.6 89.4 17.5-3.6 49.6-11.4 85.9-25.9 49.5-19.8 117.5-56.5 159.9-119 42.4-62.5 51.4-139.2 51.5-192.5 0.1-39.1-4.4-71.8-7.5-89.4z"  /><path d="M567 223h-34.6c-42.1 0-82.7 16.8-113.8 47-26.4 25.7-43.2 60.7-47.2 98.5l-1.9 17.5c-4.2 39.2-28.4 113.8-28.4 113.8L282.6 645c-17.5 43.3-21 91.6-10.1 137.3C288.9 851 347.2 899.2 414 899.2l45.1 5.1c15.4 1.7 31-0.8 45-7.4l12.2-5.7c20.4-9.6 44.3-9.4 64.6 0.4l10.3 5c14 6.8 29.8 9.5 45.4 7.8l48.8-5.2c66.8 0 125.1-48.2 141.5-116.9 10.9-45.7 7.3-93.9-10.1-137.3l-58.4-145.1s-24.2-74.6-28.4-113.8l-1.9-17.5c-4.1-37.8-20.8-72.8-47.2-98.5C649.7 239.8 609.1 223 567 223z" fill="#FFFFFF" /><path d="M592.3 223H561c-38.1 0-74.8 16.8-102.9 47-23.9 25.7-39.1 60.7-42.7 98.5l-1.7 17.5c-3.8 39.2-25.7 113.8-25.7 113.8L335.1 645c-15.8 43.3-19 91.6-9.2 137.3 14.8 68.8 67.6 116.9 128 116.9l40.8 5.1c13.9 1.7 28.1-0.8 40.7-7.4l11-5.7c18.5-9.6 40.1-9.4 58.5 0.4l9.3 5c12.7 6.8 26.9 9.5 41 7.8l44.1-5.2c60.5 0 113.2-48.2 128-116.9 9.9-45.7 6.6-93.9-9.2-137.3l-52.9-145.1s-21.9-74.6-25.7-113.8l-1.7-17.5c-3.7-37.8-18.9-72.8-42.7-98.5-27.9-30.3-64.7-47.1-102.8-47.1z" fill="#C6184A" /><path d="M551.3 223H524c-33.2 0-65.2 16.8-89.7 47-20.8 25.7-34 60.7-37.2 98.5l-1.5 17.5c-3.3 39.2-22.4 113.8-22.4 113.8l-46 145.2c-13.8 43.3-16.6 91.6-8 137.3C332.1 851 378 899.2 430.7 899.2l35.5 5.1c12.1 1.7 24.4-0.8 35.5-7.4l9.6-5.7c16.1-9.6 34.9-9.4 50.9 0.4l8.1 5c11.1 6.8 23.5 9.5 35.8 7.8l38.5-5.2c52.7 0 98.6-48.2 111.5-116.9 8.6-45.7 5.8-93.9-8-137.3L702 499.9s-19.1-74.6-22.4-113.8l-1.5-17.5c-3.2-37.8-16.4-72.8-37.2-98.5-24.4-30.3-56.4-47.1-89.6-47.1z" fill="#FF3968" /><path d="M627.6 924.9c-15.6 0-31.2-3.6-45.1-10.3l-10.3-5c-7.4-3.6-15.7-5.5-24-5.5-8.1 0-16.2 1.8-23.4 5.2l-12.2 5.7c-17.2 8-36.8 11.3-55.7 9.1l-44-4.9c-75.7-0.5-141.3-54.8-159.8-132.3-11.8-49.4-7.9-102.5 11-149.4l58.2-144.4c2.3-7.3 23.6-74.3 27.3-109.2l1.9-17.5c4.6-42.4 23.5-81.7 53.2-110.7 34.9-34 80.2-52.7 127.7-52.7H567c47.5 0 92.8 18.7 127.7 52.7 29.7 29 48.6 68.3 53.2 110.7l1.9 17.5c3.8 34.8 25 101.9 27.3 109.2l58.2 144.4c18.9 46.9 22.8 100 11 149.4-18.5 77.5-84.1 131.8-159.9 132.3l-47.8 5.1c-3.6 0.4-7.3 0.6-11 0.6z m-79.4-60.8c14.3 0 28.6 3.3 41.4 9.5l10.3 5c10.6 5.1 22.8 7.2 34.5 6l49.8-5.3h1.1c57.6 0 107.8-41.8 122-101.6 9.9-41.4 6.6-85.9-9.2-125.2l-58.7-145.7-0.2-0.7c-1-3.1-24.9-77.1-29.3-117.9l-1.9-17.5c-3.6-33.2-18.2-63.8-41.3-86.3C639.4 257.7 604 243 567 243h-34.6c-37 0-72.4 14.7-99.8 41.4-23.1 22.5-37.8 53.2-41.3 86.3l-1.9 17.5c-4.4 40.8-28.3 114.7-29.3 117.9l-0.5 1.3-58.4 145.1c-15.8 39.3-19.1 83.7-9.2 125.2 14.2 59.8 64.4 101.6 122 101.6h1.1l46.2 5.2c11.6 1.3 23.7-0.7 34.3-5.6l12.2-5.7c12.5-6 26.5-9.1 40.4-9.1z"  /><path d="M525 259l-4.5-115c-0.5-13.5 10-24.9 23.5-25.5 13.5-0.5 24.9 10 25.5 23.5v1.9L565 259c-0.4 11-9.7 19.6-20.8 19.2-10.5-0.4-18.8-8.9-19.2-19.2z"  /></svg>