<?xml version="1.0" standalone="no"?><!DOCTYPE svg PUBLIC "-//W3C//DTD SVG 1.1//EN" "http://www.w3.org/Graphics/SVG/1.1/DTD/svg11.dtd"><svg class="icon" width="200px" height="200.00px" viewBox="0 0 1024 1024" version="1.1" xmlns="http://www.w3.org/2000/svg"><path d="M741.4 303.1c0.2 21-1.5 42.3-5.3 63.8-32.6 183.1-207 305.9-390.4 274.8-73-12.4-136.5-47.2-184.8-96.2-11.1-11.3-29.7 0.8-23.8 15.6C179 665.8 272 747.3 390.6 769.1c186.7 34.4 364.5-89.9 396-277.2 11.4-68.1 1.8-134.8-24.3-193.5-4.8-10.7-21-7.1-20.9 4.7z" fill="#FFB600" /><path d="M442 758.9c-0.1 0 0 0 0 0-22 0-44.2-2-66-6.1-60.6-11.2-117.6-37.9-164.7-77.3-45.7-38.2-81.6-87.7-103.7-143-4.3-10.9-3.1-22.5 3.3-32s17.5-15.4 28.9-15.4c9.2 0 17.8 3.7 24.4 10.4 47.2 47.9 107.3 79.2 173.9 90.5 17.7 3 35.7 4.5 53.6 4.5 73.9 0 146.2-26.2 203.5-73.7 57.9-48 97.1-115.3 110.3-189.4 3.5-19.9 5.2-40.1 5-60-0.1-8.4 3-16.2 8.8-22 5.8-5.9 13.9-9.2 22.3-9.2 12.3 0 23.1 7 28.1 18.4 28.6 64.3 37.4 135.2 25.7 204.9-7.2 43-21.9 83.7-43.5 121-20.9 36-47.7 67.9-79.8 94.7-64.5 53.9-146.3 83.7-230.1 83.7zM155.9 542.6c19.7 39.2 47.3 74.2 81 102.3 41.8 35 92.4 58.7 146.3 68.6 19.4 3.6 39.2 5.4 58.7 5.4 74.5 0 147.1-26.4 204.4-74.4 28.5-23.8 52.3-52.2 70.8-84.2 19.2-33.1 32.2-69.3 38.7-107.6 7.9-47.2 5.2-95.1-7.8-140.5-0.9 7.4-1.9 14.8-3.2 22.2-14.8 83.4-58.9 159.1-124.1 213.2-64.5 53.5-145.8 82.9-229.1 82.9-20.1 0-40.3-1.7-60.2-5.1-65.7-11.1-125.8-39.6-175.5-82.8z"  /><path d="M785.1 254.3c4.4 24.6 6.7 50 6.4 76-2.1 221.7-182.8 400.5-404.6 400.3-88.2-0.1-169.8-28.5-236.3-76.5-15.3-11.1-34.7 6.9-24.9 23C195.6 792 321.1 869.3 464.9 871.6c226.3 3.6 410.7-177.8 410.7-404.1 0-82.3-24.6-158.8-66.8-222.6-7.8-11.8-26.2-4.4-23.7 9.4z" fill="#FFB600" /><path d="M769.3 326c3.9 20.1 5.9 40.8 5.7 62-1.8 180.7-203 326.9-398.8 326.7-77.9-0.1-149.9-23.2-208.6-62.4-13.5-9-30.7 5.6-22 18.8 61.7 93.6 172.5 156.6 299.4 158.5 199.8 2.9 376-169.2 376-353.6 0-67.1 6.5-105.7-30.8-157.7-6.9-9.6-23.1-3.5-20.9 7.7z" fill="#FFCD40" /><path d="M471.5 891.7c-2.2 0-4.6 0-6.9-0.1-72.8-1.1-144.4-21.1-207-57.7-60.8-35.5-112.2-86.2-148.8-146.3-7.1-11.7-7.4-25.7-0.8-37.5 6.7-11.9 19.2-19.3 32.7-19.3 7.8 0 15.3 2.5 21.9 7.2 65.6 47.5 143.3 72.6 224.6 72.7h0.4c101.9 0 197.8-39.5 270.3-111.3S770.8 432 771.7 330.2c0.2-24.3-1.8-48.6-6.1-72.3-1.7-9.7 0.8-19.5 7-26.9 6.3-7.5 15.9-12 25.7-12 11.1 0 21 5.4 27.3 14.8 45.9 69.4 70.1 150.2 70.1 233.7 0 57.5-11.2 113.1-33.3 165.5-21.3 50.5-51.9 95.9-90.9 134.8-38.9 38.9-84.3 69.4-134.8 90.7-52.4 22-108 33.2-165.2 33.2zM150 678.1c32.6 49.6 76.5 91.3 127.7 121.3 56.7 33.1 121.5 51.2 187.5 52.3h6.2c102.7 0 199.2-39.8 271.6-112.2 72.5-72.4 112.4-169 112.4-272 0-64.2-15.8-126.6-46-182.4 1.5 15.1 2.1 30.3 2 45.5-0.5 56.8-12.1 111.9-34.5 163.8-21.6 50-52.3 95-91.2 133.5-38.9 38.5-84.1 68.8-134.4 89.9-52 21.9-107.2 33-164.1 33h-0.4c-85.1-0.2-166.7-25.3-236.8-72.7z"  /><path d="M670.1 289.7c-16.4 0-32.9-2-49.3-6-10.7-2.6-17.3-13.5-14.6-24.2s13.5-17.3 24.2-14.6c42.8 10.5 87.1 3.7 124.8-19.1s64.3-59 74.8-101.8c2.6-10.7 13.5-17.3 24.2-14.6 10.7 2.6 17.3 13.5 14.6 24.2-13.1 53.2-46.1 98.1-92.9 126.4-32.4 19.6-68.8 29.7-105.8 29.7z"  /></svg>