<?xml version="1.0" standalone="no"?><!DOCTYPE svg PUBLIC "-//W3C//DTD SVG 1.1//EN" "http://www.w3.org/Graphics/SVG/1.1/DTD/svg11.dtd"><svg class="icon" width="200px" height="200.00px" viewBox="0 0 1024 1024" version="1.1" xmlns="http://www.w3.org/2000/svg"><path d="M592.4 867.5h61.4c96.5 0 184.4-82 188.4-185.8l1.6-43.1c3.9-102.3-78.2-184-172.6-171.8l-17.4 2.2c-19.6 2.5-39.3 2.5-58.9 0l-20.6-2.6c-94.3-12-176.2 69.7-172.3 171.9l1.6 43.4c4 103.9 92.3 185.8 188.8 185.8z" fill="#FF1A77" /><path d="M590.6 493.4s0-0.4-0.1-1.2c-0.1-0.8-0.3-2.2-0.5-3.9-0.5-3.5-1.4-8.8-2.8-15.6-1.5-6.7-3.4-14.9-6.3-24.2-1.4-4.6-3-9.5-4.8-14.6-1.8-5.1-3.9-10.4-6.2-15.9-2.3-5.5-4.9-11.1-7.7-16.8-2.8-5.7-5.9-11.6-9.3-17.4-6.8-11.7-14.6-23.7-23.8-35.2-9-11.6-19.3-22.8-30.6-33.3-11.3-10.5-23.6-20.2-36.6-28.9s-26.7-16.3-40.7-22.9c-14-6.6-28.2-12.1-42.3-16.7-14.1-4.5-28-8.2-41.3-11-6.7-1.3-13.2-2.7-19.6-3.6-3.2-0.5-6.3-1.1-9.4-1.5-3.1-0.4-6.1-0.8-9.1-1.2-3-0.4-5.9-0.7-8.7-1-2.9-0.3-5.6-0.6-8.3-0.9-5.5-0.4-10.6-0.9-15.5-1.2-4.9-0.3-9.4-0.5-13.7-0.7-4.2-0.2-8.1-0.2-11.6-0.4-1.8 0-3.4-0.1-5-0.1H219c-14.4 0-26.1-11.8-26-26.2 0-14.4 11.8-26.1 26.2-26h1s2.2 0.1 6.2 0.2c2 0.1 4.5 0.2 7.5 0.3 1.5 0.1 3.1 0.1 4.7 0.2 1.7 0.1 3.5 0.2 5.4 0.3 3.8 0.3 8 0.5 12.6 0.9s9.5 0.9 14.8 1.3c5.3 0.6 10.9 1.3 16.8 2 3 0.4 6 0.9 9.1 1.3 3.1 0.5 6.3 0.9 9.5 1.5s6.5 1.1 9.9 1.7c3.4 0.6 6.8 1.3 10.3 2 7 1.3 14.1 3.1 21.4 4.8 14.7 3.7 30 8.3 45.5 14 15.6 5.7 31.4 12.5 46.9 20.6 15.5 8.1 30.8 17.3 45.2 27.8 14.4 10.5 28 22.1 40.4 34.5 12.4 12.4 23.6 25.6 33.3 39.1 9.8 13.5 18.2 27.2 25.3 40.7 3.5 6.7 6.7 13.4 9.7 19.9 2.9 6.5 5.5 12.9 7.8 19.1 2.3 6.2 4.4 12.2 6.2 17.9 1.8 5.7 3.4 11.2 4.8 16.4 2.7 10.4 4.6 19.5 6 27.2 1.3 7.6 2.1 13.7 2.5 18 0.2 2.1 0.4 3.8 0.4 5 0.1 1.3 0.1 1.9 0.1 1.9 0.6 8.9-6.2 16.5-15 17.1-8.6 0.6-16.1-5.8-17-14.3l0.1-1zM685.4 539s-0.1 0.1-0.4 0.3c-0.2 0.1-0.4 0.3-0.6 0.5-0.2 0.1-0.4 0.3-0.7 0.5-1 0.7-2.3 1.7-4 2.7-3.3 2.1-8 4.8-13.9 7.4-2.9 1.3-6.1 2.5-9.5 3.7-3.4 1.2-7 2.2-10.8 3.1-3.8 0.9-7.7 1.7-11.7 2.2-4 0.6-8.1 0.9-12.1 1.2-2 0.1-4.1 0.1-6.1 0.2-2 0-4-0.1-6-0.1-2-0.1-3.9-0.2-5.9-0.4l-5.7-0.6c-1.8-0.3-3.7-0.5-5.4-0.8-1.8-0.3-3.5-0.6-5.1-1-1.7-0.3-3.3-0.7-4.8-1.1-1.5-0.4-3-0.7-4.4-1.1-2.8-0.8-5.4-1.5-7.6-2.3-2.2-0.7-4.2-1.4-5.8-2-3.2-1.2-5-1.9-5-1.9-7.6-2.8-11.4-11.3-8.6-18.8 2.7-7.1 10.3-10.9 17.4-9l0.8 0.2s1.5 0.4 4.3 1.1c1.3 0.4 3 0.7 4.9 1.2 1.9 0.5 4 0.8 6.3 1.2 1.2 0.2 2.4 0.4 3.6 0.5 1.3 0.2 2.5 0.4 3.9 0.5 1.3 0.1 2.7 0.3 4.1 0.4 1.4 0.1 2.8 0.1 4.3 0.2h4.4c1.5 0 3-0.1 4.4-0.1l4.5-0.3c1.5-0.2 3-0.3 4.5-0.6 3-0.5 5.9-1 8.7-1.7 2.8-0.7 5.6-1.5 8.1-2.4 2.6-0.9 5-1.9 7.3-2.9s4.3-2.1 6.2-3.1c3.7-2.1 6.5-4.1 8.2-5.5 0.9-0.7 1.4-1.2 1.8-1.5l0.2-0.2s-0.1 0 0 0l0.1-0.1c8-7.6 20.7-7.3 28.3 0.7 7.6 8 7.3 20.7-0.7 28.3-0.4 0.4-0.8 0.7-1.2 1.1l-0.3 0.3z"  /><path d="M483.2 919.5h-72.1c-113.2 0-216.4-96.2-221-218l-1.9-50.6c-4.6-120 91.7-215.9 202.5-201.6l20.4 2.6c23 3 46.2 3 69.1 0.1l24.2-3.1c110.7-14 206.8 81.8 202.2 201.7l-1.9 50.9c-4.7 121.9-108.3 218-221.5 218z" fill="#ED0061" /><path d="M447.1 913.5h-63.3c-99.4 0-189.9-94.9-194-215.2l-1.7-49.9c-4-118.5 80.5-213.1 177.7-199.1l17.9 2.6c20.2 2.9 40.5 2.9 60.7 0.1l21.2-3c97.1-13.9 181.5 80.8 177.5 199.1l-1.7 50.3c-4 120.2-95 215.1-194.3 215.1z" fill="#FF2277" /><path d="M401.6 478.2s0.1-0.8 0.1-2.2c0.1-1.4 0.3-3.4 0.5-5.9 0.5-5.1 1.5-12.4 3.1-21.6 1.6-9.2 3.9-20.2 7.3-32.7 0.8-3.1 1.8-6.3 2.7-9.6 1-3.3 2-6.7 3.1-10.1 2.2-6.9 4.7-14.1 7.6-21.6 2.8-7.5 6-15.1 9.5-23 3.6-7.8 7.4-15.8 11.7-23.9 1.1-2 2.2-4 3.3-6.1 1.1-2 2.2-4.1 3.4-6.1 1.2-2 2.4-4.1 3.6-6.1 1.2-2 2.5-4.1 3.8-6.1 0.6-1 1.3-2 1.9-3.1 0.7-1 1.3-2 2-3.1 1.3-2 2.7-4.1 4-6.1 2.8-4 5.6-8.2 8.6-12.2 11.8-16.2 25.3-32 40.3-47 14.9-14.9 31.4-28.8 48.8-41.4 17.4-12.6 35.8-23.6 54.5-33.3 18.7-9.6 37.8-17.8 56.5-24.6 18.8-6.8 37.3-12.3 54.9-16.7 4.4-1.1 8.8-2 13.1-3.1 4.3-1 8.6-1.9 12.8-2.7 2.1-0.4 4.2-0.8 6.2-1.2 2.1-0.4 4.1-0.8 6.1-1.2 4.1-0.7 8-1.4 12-2 3.9-0.7 7.7-1.2 11.5-1.7 3.7-0.5 7.4-1.1 11-1.6 7.2-0.8 13.9-1.6 20.3-2.3 6.4-0.6 12.4-1.1 17.9-1.6 5.5-0.4 10.6-0.7 15.2-1 2.3-0.1 4.5-0.3 6.5-0.4 2-0.1 4-0.2 5.7-0.2 3.6-0.1 6.6-0.2 9.1-0.3 4.9-0.2 7.5-0.3 7.5-0.3 14.4-0.5 26.5 10.7 27 25.1s-10.7 26.5-25.1 27h-1.4-7.1c-2.3 0-5.2 0-8.5 0.1-1.7 0-3.5 0-5.4 0.1-1.9 0.1-4 0.1-6.1 0.2-4.3 0.2-9.1 0.2-14.3 0.5-5.2 0.3-10.8 0.6-16.8 1-6 0.5-12.3 1-19 1.6-3.3 0.4-6.7 0.8-10.2 1.1-3.5 0.4-7.1 0.7-10.7 1.3-3.6 0.5-7.3 1-11.1 1.6-1.9 0.2-3.8 0.6-5.7 0.9-1.9 0.3-3.8 0.6-5.8 1-3.9 0.7-7.9 1.3-11.8 2.1-4 0.8-8 1.6-12.2 2.4-16.4 3.6-33.4 8.1-50.7 13.7-17.3 5.7-34.8 12.5-51.9 20.7s-34 17.6-50 28.4c-15.9 10.8-31.1 22.8-44.9 35.8-13.8 13-26.4 26.8-37.5 41.1-2.8 3.5-5.4 7.2-8.1 10.8-1.3 1.8-2.5 3.6-3.8 5.4-0.6 0.9-1.3 1.8-1.9 2.7l-1.8 2.7-3.6 5.4c-1.1 1.8-2.3 3.7-3.4 5.5-1.1 1.8-2.2 3.6-3.3 5.5-1.1 1.8-2.2 3.6-3.2 5.4-4.1 7.2-7.9 14.4-11.4 21.5-3.4 7.1-6.6 14-9.4 20.7-2.8 6.7-5.3 13.3-7.5 19.6-1.1 3.1-2.1 6.2-3.2 9.2-0.9 3-1.9 5.9-2.7 8.8-3.4 11.4-5.8 21.4-7.6 29.7-1.7 8.3-2.8 14.8-3.4 19.2-0.3 2.2-0.5 3.8-0.6 4.9-0.1 1-0.1 1.5-0.1 1.5l-0.1 0.6c-0.9 8.8-8.8 15.3-17.6 14.4-8.4-0.8-14.8-8.4-14.2-17.1zM353.7 501.2l0.1 0.1h0.1c0.1 0.1 0.2 0.1 0.3 0.2 0.4 0.4 1.2 1 2.3 1.9 1.1 0.8 2.5 1.9 4.2 3 1.7 1.1 3.7 2.4 6 3.6 2.2 1.3 4.8 2.5 7.5 3.7 2.7 1.2 5.7 2.4 8.8 3.5 3.1 1 6.4 2 9.9 2.8 3.4 0.8 6.9 1.4 10.5 2 1.8 0.3 3.6 0.4 5.4 0.6 1.8 0.1 3.6 0.2 5.4 0.4 1.8 0 3.6 0.1 5.3 0.1 1.8 0 3.5-0.1 5.2-0.1l5.1-0.3c1.7-0.1 3.3-0.3 4.9-0.5 1.6-0.1 3.1-0.4 4.6-0.6 1.5-0.2 2.9-0.4 4.3-0.7 2.8-0.5 5.3-1 7.6-1.5 2.2-0.5 4.2-0.9 5.8-1.4 3.2-0.9 5.1-1.4 5.1-1.4l0.7-0.2c7.8-2.2 15.9 2.4 18 10.2 2 7.4-2 15-9 17.6 0 0-2.1 0.8-5.8 2.1-1.8 0.7-4.1 1.4-6.7 2.2-2.6 0.9-5.6 1.7-8.9 2.6-1.6 0.5-3.4 0.8-5.1 1.3-1.8 0.4-3.6 0.9-5.6 1.2-1.9 0.4-3.9 0.7-5.9 1.1-2 0.3-4.1 0.6-6.3 0.9-2.1 0.2-4.3 0.4-6.5 0.7-2.2 0.2-4.5 0.3-6.8 0.4-2.3 0.1-4.6 0.1-6.9 0.1-2.3-0.1-4.7-0.1-7-0.2-4.7-0.3-9.3-0.7-13.9-1.4-4.6-0.6-9.1-1.6-13.4-2.6-4.3-1.1-8.5-2.3-12.3-3.7-3.9-1.4-7.5-2.8-10.8-4.3-3.3-1.5-6.3-3-9-4.4-2.6-1.4-4.9-2.8-6.8-4-1.9-1.2-3.4-2.3-4.5-3.1-0.3-0.2-0.5-0.4-0.7-0.6-0.3-0.2-0.5-0.4-0.7-0.6-0.3-0.2-0.5-0.4-0.5-0.4-8.6-6.9-9.9-19.5-3-28.1s19.5-9.9 28.1-3c0.1 0.1 0.5 0.5 0.9 0.8z"  /></svg>