<?xml version="1.0" standalone="no"?><!DOCTYPE svg PUBLIC "-//W3C//DTD SVG 1.1//EN" "http://www.w3.org/Graphics/SVG/1.1/DTD/svg11.dtd"><svg class="icon" width="200px" height="200.00px" viewBox="0 0 1024 1024" version="1.1" xmlns="http://www.w3.org/2000/svg"><path d="M603.7 280.3l-67.1 3.5-67.1-3.5c-144.7-7.5-263.2 122.1-253.2 277.2l2.5 39.4C229.6 763.7 363.3 890.4 519 881.2l17.7-1 17.7 1c155.7 9.2 289.4-117.5 300.1-284.3l2.5-39.4c9.9-155-108.5-284.7-253.3-277.2z" fill="#F93E48" /><path d="M596.7 284.3l-1.7 0.1c110.6 33.1 190.3 146 181.9 276.4l-2.6 40.6c-9 139.4-101.1 251.5-221.1 284.1 153.2 5.7 283.6-119.8 294.2-284.6l2.5-39.4c10-155-108.4-284.7-253.2-277.2z" fill="#F71128" /><path d="M549.3 906c-6.1 0-12.3-0.3-18.4-0.7l-18.1-1.1-18.1 1c-6.1 0.3-12.3 0.5-18.4 0.5-83.5 0-163.2-31.4-224.5-88.4-61.5-57.2-98.6-134.9-104.4-218.8l-2.8-39.9c-2.8-40 2.7-79.2 16.3-116.4 13.1-35.8 33-68.2 59.1-96.2 26.2-28.1 57.2-50.2 92.1-65.7 36.2-16.1 74.8-24.3 114.6-24.3 4.6 0 9.3 0.1 14 0.3l72 3.5 72-3.5c4.6-0.2 9.3-0.3 14-0.3 39.9 0 78.4 8.2 114.6 24.3 34.9 15.5 65.9 37.6 92.1 65.7 26.2 28 46 60.4 59.1 96.2 13.6 37.3 19.1 76.4 16.3 116.4l-2.8 39.9c-5.8 83.9-42.8 161.7-104.3 218.9-61.2 57-140.9 88.6-224.4 88.6z m-36.5-41.9l20.3 1.3c5.4 0.3 10.8 0.6 16.2 0.6 73.3 0 143.4-27.7 197.2-77.8 54-50.3 86.6-118.6 91.7-192.3L841 556c2.4-34.4-2.3-68-14-100-11.2-30.7-28.3-58.5-50.8-82.6-22.5-24.1-49.1-43.1-79.1-56.5C666 303 632.9 296 598.7 296c-4 0-8 0.1-12 0.3l-73.9 3.6-73.9-3.6c-4-0.2-8.1-0.3-12-0.3-34.2 0-67.3 7-98.4 20.8-30 13.3-56.6 32.3-79.1 56.5-22.5 24.1-39.6 51.9-50.8 82.6-11.7 32-16.4 65.6-14 100l2.8 39.9c5.1 73.7 37.6 142 91.7 192.2 53.8 50.1 123.9 77.7 197.2 77.7 5.4 0 10.8-0.1 16.2-0.4l20.3-1.2z" fill="#09050F" /><path d="M513 450c-60.1 0-117.6-22.1-162.1-62.1-8.2-7.4-8.9-20-1.5-28.2s20-8.9 28.2-1.5C414.8 391.6 462.8 410 513 410c50 0 98-18.4 135.1-51.9 8.2-7.4 20.9-6.7 28.2 1.5 7.4 8.2 6.7 20.9-1.5 28.2C630.4 427.9 572.9 450 513 450zM364.5 140.7s0.9 0 2.7 0.1c0.9 0 2 0.1 3.2 0.1 0.6 0 1.3 0 2.1 0.1 0.9 0.1 1.8 0.1 2.8 0.2 2 0.2 4.1 0.3 6.5 0.5 2.2 0.3 4.6 0.6 7.2 0.9 2.6 0.3 5.3 0.9 8.1 1.4 1.4 0.2 2.9 0.6 4.4 0.9 1.5 0.3 3 0.7 4.6 1.1 1.6 0.3 3.1 0.8 4.7 1.3s3.2 0.9 4.9 1.4c1.6 0.6 3.3 1.1 5 1.7 0.8 0.3 1.7 0.6 2.5 0.9 0.8 0.3 1.7 0.7 2.5 1 1.7 0.7 3.4 1.4 5.2 2 1.7 0.7 3.4 1.5 5.2 2.3 0.9 0.4 1.7 0.8 2.6 1.2 0.9 0.4 1.7 0.9 2.6 1.3 1.7 0.9 3.5 1.8 5.3 2.7 7 3.9 13.9 8.3 20.6 13.2 6.7 5 13.1 10.6 19.1 16.5 6 6 11.5 12.5 16.5 19.2 5 6.7 9.3 13.7 13.2 20.7 0.9 1.8 1.8 3.5 2.7 5.3 0.4 0.9 0.9 1.7 1.3 2.6 0.4 0.9 0.8 1.8 1.2 2.6 0.8 1.7 1.6 3.5 2.3 5.2 0.7 1.7 1.4 3.5 2 5.2 0.3 0.9 0.7 1.7 1 2.5 0.3 0.9 0.6 1.7 0.9 2.5 0.6 1.7 1.1 3.3 1.7 5 0.5 1.6 0.9 3.3 1.4 4.9 0.4 1.6 0.9 3.1 1.3 4.7s0.7 3.1 1 4.6c0.3 1.5 0.7 2.9 0.9 4.4 0.5 2.9 1 5.6 1.4 8.1 0.3 2.6 0.6 5 0.9 7.2 0.2 2.2 0.3 4.3 0.5 6.1 0.1 0.9 0.1 1.8 0.2 2.6 0 0.8 0 1.6 0.1 2.3 0 1.4 0.1 2.7 0.1 3.7 0 2 0.1 3 0.1 3 0.2 11-8.5 20.2-19.5 20.4-11 0.2-20.1-8.4-20.4-19.4v-1s0-0.8-0.1-2.3c0-0.8 0-1.7-0.1-2.8V307c-0.1-0.6-0.1-1.3-0.2-2-0.1-1.4-0.2-3-0.4-4.7-0.2-1.7-0.5-3.5-0.7-5.5-0.2-2-0.7-4-1.1-6.2-0.2-1.1-0.4-2.2-0.7-3.3-0.3-1.1-0.5-2.3-0.8-3.5-0.2-1.2-0.7-2.4-1-3.6-0.3-1.2-0.7-2.5-1.1-3.7-0.4-1.2-0.9-2.5-1.3-3.8-0.2-0.6-0.4-1.3-0.7-1.9-0.2-0.7-0.5-1.3-0.8-1.9-0.5-1.3-1-2.6-1.6-3.9-0.6-1.3-1.2-2.6-1.8-4-0.3-0.7-0.6-1.3-0.9-2-0.3-0.7-0.7-1.3-1-2-0.7-1.3-1.4-2.7-2.1-4-3-5.3-6.3-10.7-10.2-15.8-3.9-5.1-8.1-10-12.7-14.7-4.7-4.6-9.6-8.8-14.7-12.7-5.2-3.8-10.5-7.1-15.8-10.1-1.4-0.7-2.7-1.4-4-2.1-0.7-0.3-1.3-0.7-2-1-0.7-0.3-1.3-0.6-2-0.9-1.3-0.6-2.6-1.2-4-1.8-1.3-0.5-2.7-1-3.9-1.5-0.7-0.2-1.3-0.5-1.9-0.7-0.7-0.2-1.3-0.4-1.9-0.6-1.3-0.4-2.5-0.9-3.8-1.3-1.3-0.4-2.5-0.7-3.7-1.1-1.2-0.3-2.4-0.7-3.6-1-1.2-0.3-2.3-0.5-3.5-0.8-1.1-0.3-2.2-0.5-3.3-0.7-2.2-0.4-4.3-0.8-6.2-1-2-0.2-3.8-0.5-5.5-0.7-1.6-0.1-3-0.2-4.3-0.3-0.7-0.1-1.3-0.1-1.9-0.2-0.7 0-1.4 0-2-0.1-1.3 0-2.4-0.1-3.2-0.1-1.8 0-2.7-0.1-2.7-0.1-11.2-0.3-20.1-9.6-19.8-20.8s9.1-20.5 20.4-20.2z" fill="#09050F" /></svg>