<?xml version="1.0" standalone="no"?><!DOCTYPE svg PUBLIC "-//W3C//DTD SVG 1.1//EN" "http://www.w3.org/Graphics/SVG/1.1/DTD/svg11.dtd"><svg class="icon" width="200px" height="200.00px" viewBox="0 0 1024 1024" version="1.1" xmlns="http://www.w3.org/2000/svg"><path d="M328.4 868c-76.6-82.2-89.1-210.6-30.1-308l48.6-80.3c21.1-34.9 33.9-74.9 37.1-116.4 6.5-84.6 72.4-149.8 151.6-149.8 79.1 0 145.1 65.1 151.6 149.8 3.2 41.5 15.9 81.5 37.1 116.4L773 560c59 97.4 46.5 225.8-30.1 308-43 46.1-101.3 72-162.1 72h-90.2c-60.9 0-119.2-25.9-162.2-72z" fill="#70AA15" /><path d="M320.7 868c-67.8-82.2-78.9-210.6-26.6-308l43.1-80.3c18.7-34.9 30-74.9 32.8-116.4 5.8-84.6 64.1-149.8 134.2-149.8s128.4 65.1 134.2 149.8c2.8 41.5 14.1 81.5 32.8 116.4l43.1 80.3c52.2 97.4 41.1 225.8-26.6 308-38.1 46.1-89.7 72-143.5 72h-79.8c-54 0-105.6-25.9-143.7-72z" fill="#86CC2B" /><path d="M559.4 960h-98.6c-35.7 0-70.5-6.9-103.5-20.6-33-13.7-62.5-33.4-87.8-58.6-43.7-43.7-71.3-101.6-77.8-163.1-6.4-61.5 8.6-123.9 42.2-175.7l53.2-81.8c21.2-32.7 34.1-70.4 37.4-109.3 3.9-46.7 25-89.9 59.5-121.7 34.5-31.7 79.3-49.2 126.2-49.2s91.7 17.5 126.2 49.2c34.5 31.8 55.6 75 59.5 121.7 3.2 38.8 16.1 76.6 37.4 109.3l53.2 81.8c33.7 51.8 48.7 114.2 42.2 175.7-6.4 61.5-34.1 119.4-77.8 163.1-25.3 25.3-54.8 45-87.8 58.7-33.1 13.6-68 20.5-103.7 20.5z m-49.3-740c-36.8 0-72 13.7-99.1 38.7-27.1 24.9-43.7 58.9-46.7 95.5-3.8 45.4-18.9 89.6-43.7 127.8l-53.2 81.8c-28.7 44.2-41.5 97.3-36 149.7 5.5 52.4 29 101.7 66.3 139 21.5 21.5 46.7 38.3 74.8 50s57.8 17.6 88.2 17.6h98.6c30.4 0 60.1-5.9 88.2-17.6s53.3-28.5 74.8-50c37.2-37.2 60.8-86.6 66.3-139 5.5-52.4-7.3-105.5-36-149.7l-53-81.8c-24.8-38.2-39.9-82.4-43.7-127.8-3-36.7-19.6-70.6-46.7-95.5-27.1-25-62.2-38.7-99.1-38.7z"  /><path d="M510 291c-11 0-20-9-20-20v-73c0-51.8-42.2-94-94-94-11 0-20-9-20-20s9-20 20-20c73.9 0 134 60.1 134 134v73c0 11-9 20-20 20z"  /></svg>