<?xml version="1.0" standalone="no"?><!DOCTYPE svg PUBLIC "-//W3C//DTD SVG 1.1//EN" "http://www.w3.org/Graphics/SVG/1.1/DTD/svg11.dtd"><svg class="icon" width="200px" height="200.00px" viewBox="0 0 1024 1024" version="1.1" xmlns="http://www.w3.org/2000/svg"><path d="M0 0m113.777778 0l796.444444 0q113.777778 0 113.777778 113.777778l0 796.444444q0 113.777778-113.777778 113.777778l-796.444444 0q-113.777778 0-113.777778-113.777778l0-796.444444q0-113.777778 113.777778-113.777778Z" fill="#D1C3A8" /><path d="M602.605037 619.861333s5.461333-46.26963 6.788741-49.607111c-2.23763 1.592889-8.457481 4.93037-10.619259 6.637037-13.691259 10.960593-49.872593 14.753185-86.774519 13.767111-36.901926 0.83437-73.083259-2.88237-86.774519-13.767111-2.161778-1.706667-8.38163-5.044148-10.619259-6.637037 1.327407 3.337481 6.826667 49.645037 6.788741 49.607111 1.327407 84.726519-14.108444 96.862815-21.807407 124.738371 24.538074 44.069926 60.150519 86.888296 84.688592 130.958222 5.30963 9.519407 16.801185 11.719111 24.310519 18.62163v3.792592l2.654814 1.289482 0.796445-1.251556 0.796444 1.251556 2.654815-1.289482v-3.792592c7.585185-6.902519 18.962963-9.102222 24.310519-18.62163 24.538074-44.069926 60.150519-86.888296 84.688592-130.958222-7.774815-27.799704-23.210667-40.011852-21.883259-124.738371z" fill="#FED0B9" /><path d="M681.908148 428.335407c-11.681185 5.726815-18.090667 10.353778-23.210667 22.376297 14.677333-64.853333 9.253926-136.950519-48.052148-169.642667-60.150519-34.133333-159.895704-33.033481-211.702518 12.932741-34.133333 30.340741-59.998815 91.591111-35.00563 156.709926-5.650963-11.377778-10.277926-23.172741-23.058963-22.376297-40.429037 2.503111-31.326815 51.693037-21.731555 70.162963s27.951407 32.805926 48.583111 33.678223a11.757037 11.757037 0 0 1 7.130074 1.706666 9.860741 9.860741 0 0 1 2.654815 4.702815c10.733037 32.616296 20.707556 59.847111 48.583111 82.337185s65.156741 37.394963 101.906963 31.288889c43.463111-7.205926 87.722667-34.853926 103.348148-77.748148 4.816593-13.274074 3.299556-32.730074 17.559704-40.315259a24.272593 24.272593 0 0 1 8.229926-2.010074c21.200593-3.299556 37.925926-18.773333 47.179851-37.546667a80.971852 80.971852 0 0 0 8.685037-42.666667c-1.592889-17.521778-19.607704-29.240889-31.099259-23.589926z" fill="#FEE1D2" /><path d="M676.750222 257.21363C659.607704 209.351111 569.53363 182.044444 505.438815 185.837037c-59.885037 3.337481-140.325926 25.486222-157.923556 71.49037-16.118519 42.287407-22.148741 141.274074-5.082074 171.008 0 0 19.418074 11.605333 22.565926 28.065186 0 0 16.763259-66.977185 16.763259-67.015112 10.164148-46.117926 29.544296-74.865778 71.224889-76.8 32.919704-1.517037 52.148148 18.24237 59.126519 18.204445s26.244741-19.721481 59.126518-18.204445c41.718519 1.934222 61.098667 30.682074 71.224889 76.8l16.801185 67.015112c3.109926-16.459852 22.565926-28.065185 22.565926-28.065186 17.066667-29.733926 10.202074-128.720593-5.082074-171.121777z" fill="#DB5050" /><path d="M628.318815 697.040593C621.985185 721.616593 570.936889 773.688889 513.517037 773.688889s-116.205037-51.920593-117.835852-76.496593C259.982222 716.8 153.144889 816.165926 153.144889 935.708444V1024h717.710222s2.427259-41.301333 0-107.254519c-4.437333-119.466667-106.837333-199.945481-242.536296-219.704888z" fill="#88D1BE" /><path d="M513.517037 773.688889s70.238815-63.601778 119.845926-80.782222c0 0 87.22963 18.62163 81.08563 33.298963-84.650667 51.958519-168.315259 93.487407-181.248 111.957333a2.920296 2.920296 0 0 1-5.271704-1.061926zM513.517037 773.688889s-70.200889-63.450074-119.694222-80.630519c0 0-87.22963 18.62163-81.08563 33.298963 84.536889 51.958519 168.315259 93.487407 181.134222 112.033186a2.958222 2.958222 0 0 0 5.271704-1.061926z" fill="#FFFFFF" /></svg>