<?xml version="1.0" standalone="no"?><!DOCTYPE svg PUBLIC "-//W3C//DTD SVG 1.1//EN" "http://www.w3.org/Graphics/SVG/1.1/DTD/svg11.dtd"><svg class="icon" width="200px" height="200.00px" viewBox="0 0 1024 1024" version="1.1" xmlns="http://www.w3.org/2000/svg"><path d="M2.603582 0m113.199204 0l792.394428 0q113.199204 0 113.199204 113.199204l0 792.394429q0 113.199204-113.199204 113.199204l-792.394428 0q-113.199204 0-113.199204-113.199204l0-792.394429q0-113.199204 113.199204-113.199204Z" fill="#F7E094" /><path d="M601.65377 621.878694s5.433562-46.034343 6.716486-49.31712c-2.188518 1.584789-8.376741 4.905299-10.527526 6.603287-13.621638 10.829391-49.618984 14.527231-86.33326 13.697104-36.714275 0.830127-72.711622-2.867713-86.33326-13.697104-2.188518-1.697988-8.339008-5.018498-10.565259-6.603287 1.282924 3.282777 6.791952 49.392586 6.75422 49.31712 1.320657 84.333407-14.036701 96.407989-21.696515 124.141794 24.413295 43.845825 59.844646 86.408726 84.257941 130.292284 5.28263 9.471 16.715749 11.659518 24.186897 18.526936v3.773307l2.641315 1.282924a13.961235 13.961235 0 0 1 0.792394-1.245191l0.792395 1.245191 2.641314-1.282924v-3.773307c7.546614-6.867418 18.866534-9.055936 24.186897-18.526936 24.413295-43.883558 59.844646-86.446459 84.257941-130.292284-7.735279-27.733805-23.092638-39.808387-21.77198-124.141794z" fill="#FACDAC" /><path d="M680.553615 431.364434c-11.659518 5.697693-17.998673 10.301128-23.092638 22.224777 14.602697-64.485813 9.206869-136.216376-47.807797-168.74228-59.882379-33.959761-159.082615-32.865502-210.625986 12.866976-33.959761 30.186454-59.693714 91.125359-34.827621 155.875304-5.622227-11.31992-10.225661-23.017171-22.941706-22.224777-40.261184 2.565849-31.205247 51.618837-21.696514 69.806175s27.809271 32.639104 48.33606 33.506965a11.697251 11.697251 0 0 1 7.093817 1.697988 9.810598 9.810598 0 0 1 2.641315 4.6789c10.678458 32.450438 20.602255 59.542781 48.33606 81.918491s64.825411 37.204805 101.388754 31.129781c43.242096-7.169283 87.276586-34.67669 102.82261-77.390522 4.7921-13.168841 3.282777-32.525905 17.470411-40.110252a25.017024 25.017024 0 0 1 8.188075-1.962119c21.055052-3.282777 37.733068-18.677869 46.939937-37.355738a80.635566 80.635566 0 0 0 8.452207-42.449701c-1.35839-17.432677-19.243865-29.092195-30.676984-23.469968z" fill="#FFE7D5" /><path d="M615.652738 699.872946c-6.490088 24.451028-44.562753 33.356032-101.652885 33.356032s-107.841108-2.792247-109.425898-27.243275c-135.008917 19.772128-250.057042 111.237085-250.057041 230.171715v87.842582h714.022846s2.414916-41.091311 0-106.709116c-4.414769-118.859164-117.878105-197.64581-252.887022-217.417938z" fill="#C28CC0" /><path d="M592.031837 335.069644s-31.054315 32.865502-109.425897 49.279387-106.822316 45.279682-118.255435 69.24018c0 0-12.640578-35.318152-39.959319-16.149753 0 0-37.733068-106.105387-17.810008-143.612057 31.24298-58.825853 163.233252-132.254403 239.944579-113.991599s80.333702 41.996905 82.144889 69.391112 7.169283 71.202299-36.638809 85.84273z" fill="#946642" /><path d="M621.425897 262.018424s31.469379-41.506375 55.354411-19.696661c27.205542 24.790626 34.525757 66.598865 37.544403 120.745818 1.396124 25.394355-10.716191 59.806913-21.696514 68.938315 0 0-17.017614-9.395534-34.978554 21.77198 0 0-5.16943-136.782372-52.826296-144.102587z" fill="#946642" /><path d="M621.199499 704.891444s-39.808387 44.260889-112.78414 44.260889c-56.071339 0-112.218144-36.487877-112.218145-36.487877l15.998821-42.562901a6.867418 6.867418 0 0 1 9.923797-4.339303c15.319626 8.225809 51.392439 25.243423 88.974574 25.130223a181.118727 181.118727 0 0 0 88.861376-24.60196 6.867418 6.867418 0 0 1 10.112462 4.263837z" fill="#B374B0" /></svg>