<?xml version="1.0" standalone="no"?><!DOCTYPE svg PUBLIC "-//W3C//DTD SVG 1.1//EN" "http://www.w3.org/Graphics/SVG/1.1/DTD/svg11.dtd"><svg class="icon" width="200px" height="200.00px" viewBox="0 0 1024 1024" version="1.1" xmlns="http://www.w3.org/2000/svg"><path d="M0 0m113.777778 0l796.444444 0q113.777778 0 113.777778 113.777778l0 796.444444q0 113.777778-113.777778 113.777778l-796.444444 0q-113.777778 0-113.777778-113.777778l0-796.444444q0-113.777778 113.777778-113.777778Z" fill="#CBC69C" /><path d="M703.222519 498.49837l-13.805038-68.835555-96.597333-184.357926-72.779852-22.755556v-5.195852L512 219.97037l-8.305778-2.616889v5.195852l-72.779852 22.755556-96.673185 184.357926-13.805037 68.835555s-109.530074 82.868148-42.439111 163.081482 234.002963 7.054222 234.002963 7.054222 166.874074 73.424593 233.813333-6.902518-42.590815-163.233185-42.590814-163.233186z" fill="#4C3B31" /><path d="M602.605037 593.313185s5.461333-46.26963 6.788741-49.607111c-2.23763 1.592889-8.457481 4.93037-10.619259 6.637037-13.691259 10.960593-49.872593 14.753185-86.774519 13.767111-36.901926 0.83437-73.083259-2.88237-86.774519-13.767111-2.161778-1.706667-8.38163-5.044148-10.619259-6.637037 1.327407 3.337481 6.826667 49.645037 6.788741 49.607111 1.327407 84.726519-14.108444 96.862815-21.807407 124.738371 24.538074 44.069926 60.150519 86.888296 84.688592 130.958222 5.30963 9.519407 16.801185 11.719111 24.310519 18.621629v3.792593l2.654814 1.289481 0.796445-1.251555 0.796444 1.251555 2.654815-1.289481v-3.792593c7.585185-6.902519 18.962963-9.102222 24.310519-18.621629 24.538074-44.069926 60.150519-86.888296 84.688592-130.958222-7.774815-27.799704-23.210667-40.011852-21.883259-124.738371z" fill="#FED0B9" /><path d="M532.517926 758.59437l-11.188148 3.868445-8.040297 50.593185 55.447704-7.812741 25.903408-38.874074-62.122667-7.774815zM491.482074 758.59437l11.188148 3.868445 8.040297 65.763555-74.372741-26.775703-6.978371-35.081482 62.122667-7.774815z" fill="#E1E6E4" /><path d="M687.634963 426.780444c-13.12237-0.796444-17.863111 16.57363-23.665778 28.065186 25.637926-65.118815-0.872296-132.058074-35.84-162.360889-28.292741-24.576-70.618074-36.370963-113.284741-36.826074-42.666667 0.455111-84.954074 12.250074-113.28474 36.826074-34.929778 30.340741-61.44 97.242074-35.84 162.360889-5.764741-11.377778-10.543407-28.86163-23.627852-28.065186-41.415111 2.503111-32.085333 51.730963-22.224593 70.162963s28.634074 32.805926 49.720889 33.716149a11.984593 11.984593 0 0 1 7.319704 1.66874 9.974519 9.974519 0 0 1 2.730667 4.702815c15.739259 46.724741 41.718519 98.607407 132.74074 103.689482a5.044148 5.044148 0 0 0 2.541037-0.530963 5.195852 5.195852 0 0 0 2.578963 0.530963c91.022222-4.968296 116.92563-56.888889 132.740741-103.689482a9.974519 9.974519 0 0 1 2.730667-4.702815 11.870815 11.870815 0 0 1 7.281777-1.66874c21.124741-0.910222 40.011852-15.397926 49.758815-33.716149s19.000889-67.659852-22.376296-70.162963z" fill="#FEE1D2" /><path d="M809.680593 785.066667c-58.102519-57.457778-154.206815-86.129778-155.496297-82.981926s-44.449185 107.254519-147.114666 107.254518c-109.568 0-135.774815-104.182519-137.102223-107.254518s-97.46963 25.524148-155.496296 82.981926c-55.182222 54.234074-61.477926 190.426074-64.853333 238.933333h724.764444c-3.375407-48.507259-9.671111-184.699259-64.701629-238.933333z" fill="#D1675B" /><path d="M654.108444 702.008889c-1.21363 2.844444-44.449185 107.254519-147.114666 107.254518-109.568 0-135.774815-104.182519-137.102222-107.254518-0.493037-1.175704 11.377778 5.30963-8.57126 12.818963 26.548148 66.597926 62.919111 109.037037 142.146371 110.478222 84.80237 1.554963 129.668741-54.08237 154.889481-123.486815-11.529481-3.716741-3.868444-0.644741-4.247704 0.18963z" fill="#E08479" /><path d="M522.657185 765.079704c9.709037 6.902519 33.905778 22.034963 80.251259 39.329185a3.565037 3.565037 0 0 0 3.147852-0.303408c7.585185-4.778667 47.672889-25.41037 61.895111-86.243555a25.144889 25.144889 0 0 0-14.601481-29.392593l-37.167407-15.36a3.792593 3.792593 0 0 0-4.437334 1.668741c-6.447407 10.581333-33.071407 50.289778-88.746666 83.13363a4.361481 4.361481 0 0 0-0.341334 7.168zM501.342815 765.079704c-9.709037 6.902519-33.905778 22.034963-80.251259 39.329185a3.565037 3.565037 0 0 1-3.147852-0.303408c-7.585185-4.778667-47.672889-25.41037-61.895111-86.243555a25.144889 25.144889 0 0 1 14.601481-29.392593l37.167407-15.36a3.792593 3.792593 0 0 1 4.437334 1.668741c6.447407 10.581333 33.071407 50.289778 88.746666 83.13363a4.361481 4.361481 0 0 1 0.341334 7.168z" fill="#FFFFFF" /><path d="M364.088889 454.46637c0.568889-10.088296 23.134815-35.195259 42.477037-49.038222h15.17037l1.21363-3.034074 15.397926-38.305185-7.319704 43.19763s15.473778 3.792593 24.917333 1.896296l0.682667-43.614815 6.637037 44.297481a668.178963 668.178963 0 0 0 166.456889-2.465185s29.316741 32.768 32.312889 48.393482a1.099852 1.099852 0 0 0 2.048 0.341333c4.133926-7.585185 10.619259-29.089185 27.192889-29.430518 0 0 37.925926-212.688593-176.469333-213.333334-223.156148-0.644741-182.044444 216.177778-182.044445 216.177778s18.545778 1.024 29.202963 25.144889a1.099852 1.099852 0 0 0 2.123852-0.227556z" fill="#4C3B31" /></svg>