<?xml version="1.0" standalone="no"?><!DOCTYPE svg PUBLIC "-//W3C//DTD SVG 1.1//EN" "http://www.w3.org/Graphics/SVG/1.1/DTD/svg11.dtd"><svg class="icon" width="200px" height="200.00px" viewBox="0 0 1024 1024" version="1.1" xmlns="http://www.w3.org/2000/svg"><path d="M800 448c-41.28 44.48-67.84 96.32-77.12 151.36-8.96 53.44-1.6 107.52-2.56 161.28s-11.84 110.08-51.52 153.28c-34.24 36.8-100.48 53.44-156.8 42.88-56.32 10.56-122.56-6.08-156.8-42.88-39.68-43.2-50.56-99.52-51.52-153.28-0.96-53.76 6.4-107.84-2.56-161.28C291.84 544.32 265.28 492.48 224 448c45.76 9.6 89.28 25.6 128.32 47.04 64.96 35.52 118.08 85.76 149.44 144.32 3.84 7.36 7.04 15.04 10.24 22.72 3.2-7.68 6.4-15.36 10.24-22.72 31.36-58.56 84.48-108.8 149.44-144.32C710.72 473.6 754.24 457.6 800 448z" fill="#E0EBFE" /><path d="M269.568 604.672c5.408 32.192 4.288 65.28 3.072 100.288-0.64 18.752-1.28 37.536-0.96 56.256 1.312 74.784 20.928 131.84 60.064 174.496 32.288 34.688 88.128 56.224 145.728 56.224 0.864 0 1.664-0.192 2.528-0.224V992a32 32 0 1 0 64 0v-0.288c0.864 0 1.664 0.224 2.56 0.224 57.568 0 113.408-21.536 145.824-56.384 39.04-42.496 58.624-99.52 59.936-174.336 0.32-18.72-0.32-37.504-0.96-56.256-1.216-35.008-2.336-68.096 3.072-100.288 8.16-48.384 32.032-95.04 69.024-134.912a32 32 0 0 0-30.016-53.088c-31.36 6.592-61.376 16.192-90.08 28.096C696.96 223.008 630.432 0 512 0s-184.96 223.04-191.36 444.768a504.64 504.64 0 0 0-90.08-28.096 32 32 0 1 0-30.016 53.088c36.992 39.872 60.864 86.528 69.024 134.912z m114.688-139.328c0.736 8.192 7.36 14.656 15.744 14.656h32a16 16 0 0 0 16-16v-32a16 16 0 0 0-16-16h-32a16 16 0 0 0-14.72 9.696c0.736-16.096 1.76-31.68 3.072-46.88 2.912 3.136 7.008 5.184 11.648 5.184h32a16 16 0 0 0 16-16v-32a16 16 0 0 0-16-16h-32a15.68 15.68 0 0 0-5.12 1.024c1.6-11.36 3.392-22.336 5.28-33.024h31.84a16 16 0 0 0 16-16v-32a16 16 0 0 0-16-16h-17.824c26.848-101.408 66.56-160 97.824-160s70.976 58.592 97.824 160H592a16 16 0 0 0-16 16v32a16 16 0 0 0 16 16h31.84c1.92 10.688 3.68 21.664 5.28 33.024A15.712 15.712 0 0 0 624 320h-32a16 16 0 0 0-16 16v32a16 16 0 0 0 16 16h32a15.84 15.84 0 0 0 11.648-5.184c1.28 15.2 2.336 30.784 3.04 46.88A16 16 0 0 0 624 416h-32a16 16 0 0 0-16 16v32a16 16 0 0 0 16 16h32c8.352 0 15.04-6.464 15.744-14.656 0.032 3.968 0.192 7.776 0.192 11.776-52.896 31.776-96.768 71.456-127.936 117.44-31.072-45.92-74.976-85.664-127.936-117.44 0-4 0.16-7.808 0.192-11.776z m-47.296 57.792c60.416 33.024 108.928 79.68 136.416 131.04 3.424 6.528 6.24 13.376 9.056 20.16a32 32 0 0 0 59.136 0c2.816-6.784 5.632-13.632 8.896-19.872 27.648-51.68 76.16-98.304 136.64-131.36 10.72-5.888 21.76-11.328 33.056-16.32a308.576 308.576 0 0 0-28.832 87.264c-6.496 38.56-5.184 76.48-3.936 113.12 0.608 17.6 1.248 35.296 0.928 52.896-1.024 59.328-14.72 101.312-42.944 132.064-25.28 27.168-81.504 41.888-127.456 33.216a32.832 32.832 0 0 0-11.84 0c-45.92 8.64-102.24-6.08-127.36-33.056-28.32-30.912-42.016-72.896-43.04-132.224-0.32-17.6 0.32-35.264 0.928-52.896 1.248-36.64 2.56-74.56-3.936-113.12a308.48 308.48 0 0 0-28.8-87.232c11.296 4.96 22.336 10.4 33.088 16.32z" fill="#5465CF" /><path d="M496 384h32a16 16 0 0 0 16-16v-32a16 16 0 0 0-16-16h-32a16 16 0 0 0-16 16v32a16 16 0 0 0 16 16zM496 288h32a16 16 0 0 0 16-16v-32a16 16 0 0 0-16-16h-32a16 16 0 0 0-16 16v32a16 16 0 0 0 16 16zM496 192h32a16 16 0 0 0 16-16v-32a16 16 0 0 0-16-16h-32a16 16 0 0 0-16 16v32a16 16 0 0 0 16 16zM496 480h32a16 16 0 0 0 16-16v-32a16 16 0 0 0-16-16h-32a16 16 0 0 0-16 16v32a16 16 0 0 0 16 16z" fill="#5465CF" /></svg>