<?xml version="1.0" standalone="no"?><!DOCTYPE svg PUBLIC "-//W3C//DTD SVG 1.1//EN" "http://www.w3.org/Graphics/SVG/1.1/DTD/svg11.dtd"><svg class="icon" width="200px" height="200.00px" viewBox="0 0 1024 1024" version="1.1" xmlns="http://www.w3.org/2000/svg"><path fill="#d81e06" d="M96.134238 988.977165a31.99952 31.99952 0 0 0 34.879477 34.879477c22.623661-2.143968 222.972655-22.879657 289.691654-89.566656 37.247441-37.247441 57.98313-85.98271 58.68712-134.301986H480.00048a192.221117 192.221117 0 0 0 188.893167-226.172607A192.317115 192.317115 0 0 0 831.9952 383.99424a190.781138 190.781138 0 0 0-39.903401-116.734249 433.97749 433.97749 0 0 0 66.686999-62.01507C904.090119 152.765709 928.63375 91.134633 927.99376 31.647525A31.99952 31.99952 0 0 0 895.99424 0h-0.351995A31.99952 31.99952 0 0 0 863.99472 32.351515c0.511992 43.871342-18.559722 90.398644-53.727194 131.102033-17.663735 20.607691-39.615406 40.159398-66.111008 59.487108A190.717139 190.717139 0 0 0 639.99808 191.99712a192.221117 192.221117 0 0 0-188.893167 226.172607A192.317115 192.317115 0 0 0 288.00336 607.99088c0 11.96782 1.119983 23.807643 3.32795 35.423469a200.732989 200.732989 0 0 0-105.630416 55.871162c-66.687 66.687-87.422689 267.067994-89.566656 289.691654z m227.292591-284.411733c2.783958 0 5.535917 0.095999 8.319875 0.287995a31.99952 31.99952 0 0 0 31.519527-45.087323A124.894127 124.894127 0 0 1 352.0024 607.99088c0-70.590941 57.407139-127.99808 127.99808-127.99808 1.599976 0 3.263951 0.255996 4.863927 0.479993 2.463963 0.287996 4.927926 0.575991 7.35989 0.735989 11.071834 0.607991 22.175667-4.511932 28.575571-13.855792 6.399904-9.34386 7.35989-21.375679 2.591961-31.647526A121.086184 121.086184 0 0 1 512 383.99424c0-70.590941 57.407139-127.99808 127.99808-127.99808s127.99808 57.407139 127.99808 127.99808-57.407139 127.99808-127.99808 127.99808c-1.599976 0-3.263951-0.255996-4.863927-0.479993a130.174047 130.174047 0 0 0-7.35989-0.735989 32.063519 32.063519 0 0 0-31.167532 45.471318c7.551887 16.191757 11.391829 33.599496 11.391829 51.743224 0 70.590941-57.407139 127.99808-127.99808 127.99808a139.197912 139.197912 0 0 1-30.01555-3.775943 31.99952 31.99952 0 0 0-37.759433 39.231411c10.175847 39.679405-3.935941 84.734729-36.799448 117.598236-32.095519 32.127518-133.789993 55.455168-210.812838 66.335005 10.879837-77.022845 34.239486-178.717319 66.335005-210.844837 25.407619-25.407619 59.103113-39.9994 92.478613-39.9994z"  /><path fill="#d81e06" d="M639.99808 479.9928c52.927206 0 95.99856-43.071354 95.99856-95.99856a15.99976 15.99976 0 1 0-31.99952 0c0 35.295471-28.703569 63.99904-63.99904 63.99904a15.99976 15.99976 0 1 0 0 31.99952zM480.00048 703.98944c52.927206 0 95.99856-43.071354 95.99856-95.99856a15.99976 15.99976 0 1 0-31.99952 0c0 35.295471-28.703569 63.99904-63.99904 63.99904a15.99976 15.99976 0 1 0 0 31.99952z"  /></svg>