<?xml version="1.0" standalone="no"?><!DOCTYPE svg PUBLIC "-//W3C//DTD SVG 1.1//EN" "http://www.w3.org/Graphics/SVG/1.1/DTD/svg11.dtd"><svg class="icon" width="200px" height="200.00px" viewBox="0 0 1024 1024" version="1.1" xmlns="http://www.w3.org/2000/svg"><path fill="#d81e06" d="M301.312 166.4c-57.12 8.32-105.184 27.136-142.72 55.808-70.08 53.184-106.624 148.608-90.88 237.376 10.976 62.88 46.016 121.088 98.56 163.84 31.52 25.92 67.392 44.992 102.08 63.424 24.64 13.088 47.872 25.408 69.28 39.84 26.56 17.92 45.024 34.944 60.032 55.296 16.864 22.656 32.128 47.68 45.184 74.144 5.6 11.52 10.624 23.456 15.68 35.36 2.88 6.912 5.824 13.824 8.832 20.608 8.512 19.328 12.64 35.008 12.64 47.904a32 32 0 0 0 64 0c0-18.784 8.608-38.624 17.728-59.584 2.432-5.568 4.832-11.104 7.2-16.896 10.944-27.456 24.96-54.08 41.92-79.552 12.704-19.616 23.616-34.048 34.336-45.504 10.112-10.88 25.6-21.312 41.184-31.776 21.408-14.4 44.64-26.752 69.248-39.84 34.72-18.432 70.592-37.504 102.016-63.328 52.64-42.848 87.68-101.056 98.688-163.84 15.712-88.864-20.8-184.32-90.848-237.44-37.6-28.704-85.664-47.52-142.592-55.808-37.44-5.696-74.304-6.4-102.24-6.4-14.08 0-28.16 0.192-42.208 0.448 2.976-10.112 8.032-19.84 15.072-28.448 15.04-18.368 36.224-24.96 56.864-29.344a303.744 303.744 0 0 1 130.08 0.896 16 16 0 0 0 7.104-31.168 336.512 336.512 0 0 0-143.84-1.024c-25.088 5.312-53.632 14.304-74.976 40.384a111.616 111.616 0 0 0-22.816 49.088h-0.288c5.088-42.016 24.608-90.56 56.448-116.448a16 16 0 0 0-20.16-24.832C541.408 52.48 518.688 111.36 513.504 160.96h-3.008c-5.184-49.6-27.904-108.48-68.416-141.376a16 16 0 0 0-20.16 24.832c31.84 25.856 51.36 74.4 56.448 116.48h-0.288a111.584 111.584 0 0 0-22.816-49.088c-21.344-26.112-49.888-35.104-74.976-40.416a336.512 336.512 0 0 0-143.84 1.024 16 16 0 0 0 7.104 31.168 304 304 0 0 1 130.08-0.896c20.64 4.384 41.824 10.976 56.864 29.376 7.04 8.576 12.096 18.304 15.072 28.416-14.08-0.224-28.16-0.48-42.208-0.48-27.936 0-64.768 0.736-102.08 6.4z m146.016 58.08c12.256 0.192 24.48 0.416 36.8 0.48h55.872c12.192-0.064 24.416-0.288 36.672-0.48 14.656-0.224 29.312-0.48 43.968-0.48 25.664 0 59.392 0.64 92.8 5.76 46.24 6.72 84.352 21.312 113.28 43.424 51.488 39.04 78.24 109.504 66.56 175.36-8.224 47.04-35.936 92.704-76.16 125.44-26.56 21.856-58.112 38.624-91.52 56.32-24.96 13.28-50.816 27.008-76.8 44.544-16.576 11.136-35.36 23.776-50.4 39.936-13.312 14.24-26.432 31.52-41.024 54.016a492.8 492.8 0 0 0-45.408 84.896 667.712 667.712 0 0 0-11.584-25.664 551.68 551.68 0 0 0-51.264-84.16c-19.488-26.4-42.816-48.064-75.712-70.24-24.192-16.32-50.048-30.048-75.008-43.296-33.408-17.728-64.96-34.496-91.648-56.416-40.064-32.64-67.808-78.368-76.032-125.44-11.68-65.792 15.072-136.256 66.624-175.36C226.208 251.072 264.32 236.48 310.72 229.76 344 224.64 377.696 224 403.36 224c14.656 0 29.312 0.256 43.968 0.48z"  /><path fill="#d81e06" d="M301.856 288.128a227.2 227.2 0 0 0-22.176 4.096 164.16 164.16 0 0 0-22.272 6.272 254.08 254.08 0 0 0-21.344 8.64c-6.72 3.52-13.376 7.424-19.008 11.392a127.68 127.68 0 0 0-28.352 26.464c-7.584 9.664-13.92 20.48-18.88 32.352a138.112 138.112 0 0 0-9.088 35.776c-1.376 11.424-0.896 23.872 1.504 37.504 1.92 9.184 4.48 17.664 7.936 25.92a16 16 0 0 0 29.568-12.256 110.4 110.4 0 0 1-6.08-19.712 94.528 94.528 0 0 1-1.12-27.648 104.96 104.96 0 0 1 6.848-27.392c3.808-9.056 8.672-17.408 14.304-24.576 6.912-8.448 13.76-14.944 21.44-20.064 4.896-3.456 10.368-6.592 14.912-9.024 6.016-2.688 12-5.088 18.336-7.296 6.016-2.304 12.032-3.712 18.56-5.184 6.208-1.472 12.704-2.656 19.2-3.52a16 16 0 1 0-4.288-31.744zM223.776 500.032a16 16 0 0 0-23.232 22.016c6.72 7.104 13.952 13.44 21.408 18.88a15.936 15.936 0 0 0 22.336-3.52 16 16 0 0 0-3.52-22.336 124.16 124.16 0 0 1-16.992-15.04z"  /></svg>