<?xml version="1.0" standalone="no"?><!DOCTYPE svg PUBLIC "-//W3C//DTD SVG 1.1//EN" "http://www.w3.org/Graphics/SVG/1.1/DTD/svg11.dtd"><svg class="icon" width="200px" height="200.00px" viewBox="0 0 1024 1024" version="1.1" xmlns="http://www.w3.org/2000/svg"><path fill="#d81e06" d="M1013.78176 206.816c-56.256-21.568-124.96-15.264-180.48 14.432l-3.328-3.296c21.824-18.976 50.816-29.792 83.36-29.792a16 16 0 1 0 0-32c-19.392 0-37.696 3.552-54.816 9.376a169.6 169.6 0 0 0 9.376-54.816 16 16 0 1 0-32 0c0 32.48-10.784 61.44-29.792 83.36l-3.424-3.424c29.824-56.64 35.936-124.576 14.56-180.384a16 16 0 0 0-29.888 11.456c17.344 45.28 12.992 100.224-9.856 147.424-67.296-52.16-146.24-54.752-225.088-4.416-17.248 11.008-34.016 23.584-49.408 36.992-44.48 37.344-83.328 82.048-118.56 124.64A4205.664 4205.664 0 0 0 73.33376 750.4C19.89376 833.504-24.07424 917.76 14.77376 971.424a31.136 31.136 0 0 0 3.296 3.872l30.72 30.72a31.136 31.136 0 0 0 3.84 3.296c13.44 9.728 29.92 14.688 48.896 14.688 51.232 0 115.776-37.024 172.096-73.184 146.24-93.696 288.96-198.4 423.968-311.104 59.52-49.28 120.32-103.744 161.76-168.064 50.336-78.88 47.84-158.208-4.416-225.088 47.2-22.848 102.08-27.2 147.392-9.824a15.968 15.968 0 1 0 11.456-29.888z m-208.32 230.272c-38.464 59.712-96.928 110.432-148.8 153.408-133.088 111.04-273.568 214.144-417.6 306.432-26.848 17.216-98.144 63.04-137.536 63.04a24.896 24.896 0 0 1-9.984-1.728l-25.824-25.824c-5.024-9.76-6.112-42.24 61.44-147.456 11.424-17.824 23.488-35.392 35.232-53.12l19.296 19.328a15.936 15.936 0 0 0 22.624 0 16 16 0 0 0 0-22.624l-23.872-23.904a4104.96 4104.96 0 0 1 50.56-72.992l34.848 35.008a15.968 15.968 0 1 0 22.688-22.592l-38.72-38.88c17.184-23.904 34.624-47.584 52.352-71.168l48.16 48.16a15.936 15.936 0 0 0 22.624 0 16 16 0 0 0 0-22.624l-51.264-51.264c17.824-23.36 35.84-46.528 54.176-69.536l58.944 58.976a15.936 15.936 0 0 0 22.624 0 16 16 0 0 0 0-22.624l-61.344-61.376c12.544-15.456 24.832-31.168 37.568-46.464 5.856-7.072 11.936-14.24 18.016-21.376l67.648 67.648a15.936 15.936 0 0 0 22.624 0 16 16 0 0 0 0-22.624l-69.184-69.152a742.912 742.912 0 0 1 61.568-62.08l69.12 69.376a15.904 15.904 0 0 0 22.624 0.032 16 16 0 0 0 0.032-22.624L558.77376 238.912c9.184-7.232 18.496-14.112 28.096-20.256 60.928-38.88 114.176-35.872 166.08 12.96 1.6 1.376 2.944 2.752 4.32 4.16l31.04 31.008c1.376 1.376 2.752 2.72 5.12 5.408 47.04 49.92 50.944 103.904 12.032 164.896z"  /></svg>