<?xml version="1.0" standalone="no"?><!DOCTYPE svg PUBLIC "-//W3C//DTD SVG 1.1//EN" "http://www.w3.org/Graphics/SVG/1.1/DTD/svg11.dtd"><svg class="icon" width="200px" height="200.00px" viewBox="0 0 1024 1024" version="1.1" xmlns="http://www.w3.org/2000/svg"><path fill="#d81e06" d="M334.055782 325.158729a795.42991 795.42991 0 0 1-76.392586 81.538037l-10.480305 9.817394c-20.992178 19.129714-42.678833 38.890771-60.608994 64.491758-40.847936 58.304589-59.283172 127.941798-51.928018 196.095349 3.156718 28.883974 11.048515 57.389141 23.517552 84.789457 35.102709 77.02393 104.203275 139.716358 189.46624 172.041154a404.059959 404.059959 0 0 0 84.094979 21.497253l-41.353011 41.353011a15.783592 15.783592 0 1 0 22.317999 22.349567l31.756588-31.788155-5.208586 15.625756a15.783592 15.783592 0 0 0 29.988825 9.975231l11.206351-33.776887 11.20635 33.776887a15.783592 15.783592 0 0 0 29.988825-9.975231l-5.208585-15.625756 31.756587 31.788155a15.720458 15.720458 0 0 0 22.349567 0 15.783592 15.783592 0 0 0 0-22.349567l-37.975323-37.943755a501.918231 501.918231 0 0 0 67.869446-8.965081c79.644006-16.383369 148.271065-50.033987 198.336619-97.226927 60.19862-56.442126 93.754537-131.477323 92.04991-205.881176-1.483658-65.501907-29.988825-133.150383-87.125429-206.765057a1522.895673 1522.895673 0 0 0-52.811899-63.292205c-27.936958-32.29323-54.295557-62.755562-76.329452-96.500882-22.823074-35.197411-58.714963-104.424246-42.48943-172.483096a31.567184 31.567184 0 0 0-21.591954-37.533382L428.662633 14.948009a31.567184 31.567184 0 1 0-35.98659 46.814134c27.652853 44.699133 28.094794 107.95977 1.073285 169.357944-12.78471 29.357481-31.251512 58.430858-59.661979 94.070209z m117.49306-68.72176c24.117329-54.769065 30.841139-111.810967 20.487103-162.318462l93.691403 28.442033c-7.260452 75.287735 25.190613 144.767107 55.873916 192.086317 24.401433 37.375546 53.47481 70.931463 81.569604 103.382528 17.04628 19.697923 34.660768 40.058757 50.633764 60.608994 48.550329 62.597726 72.699225 118.061269 73.867211 169.547347 1.262687 55.684513-25.664121 114.904551-72.162583 158.467265-10.417171 9.817394-21.907626 18.940311-34.31353 27.368749 16.162398-57.641679 16.793742-122.101869 1.262688-186.688328-15.909861-67.585342-49.907718-118.440076-85.925876-172.262125-10.575007-15.783592-21.244715-31.756587-31.50405-48.297792a369.872699 369.872699 0 0 1-37.249277-81.759007 15.815159 15.815159 0 0 0-30.115094 9.501722c9.785827 31.062109 23.391284 60.924666 40.46913 88.830057 10.511872 16.920011 21.402551 33.208678 32.166961 49.244808 34.376664 51.391376 66.827729 99.941706 81.443335 162.034357 17.298817 71.97318 12.690008 143.220315-12.43747 203.071696-27.684421 13.195083-58.430858 23.517552-91.734238 30.367632-52.338392 10.98538-104.550514 12.090232-153.163978 3.91433-51.45451-122.638511-49.307942-245.340156 8.049632-332.086778a15.783592 15.783592 0 0 0-26.327032-17.425086c-59.97765 90.724088-66.133251 215.635436-19.224415 341.241262-9.154483-2.588509-18.087997-5.461123-26.832107-8.807244-69.889746-26.484868-126.205603-77.213333-154.458232-139.148149a218.602751 218.602751 0 0 1-18.214266-65.47034c-5.682093-52.906601 8.838812-107.296859 40.879504-153.069277 13.889561-19.855759 32.135394-36.460098 51.422943-54.011452l11.806127-11.080082a850.419945 850.419945 0 0 0 81.759007-87.377966c32.135394-40.311294 53.222273-73.740943 68.27982-108.307009z"  /></svg>