<?xml version="1.0" standalone="no"?><!DOCTYPE svg PUBLIC "-//W3C//DTD SVG 1.1//EN" "http://www.w3.org/Graphics/SVG/1.1/DTD/svg11.dtd"><svg class="icon" width="200px" height="200.00px" viewBox="0 0 1024 1024" version="1.1" xmlns="http://www.w3.org/2000/svg"><path fill="#d81e06" d="M1002.64 246.624C974.256 190.784 922.16 160 855.984 160c-55.552 0-116.16 22.144-162.24 59.328-16.384 13.344-30.528 26.72-44.192 39.712-35.264 33.44-63.04 59.84-111.68 68.544-25.6 4.704-51.84 5.856-79.68 7.072-18.208 0.832-36.416 1.632-54.656 3.424-31.072 3.104-63.84 9.472-97.248 18.944-67.84 18.912-163.328 57.44-232.576 133.344C21.616 547.2-6.192 623.584 1.168 689.696c5.504 49.312 30.08 90.464 71.2 119.008 39.776 27.584 86.208 38.624 122.496 45.248 38.848 6.72 79.36 10.144 120.32 10.144 84.608 0 172-14.208 259.712-42.24a996.544 996.544 0 0 0 298.176-155.072c80.992-61.344 135.36-167.424 149.152-291.136 5.28-48.128-1.44-92.672-19.584-129.024z m-44.032 121.984c-9.024 80.736-38.784 153.888-82.176 206.208a210.24 210.24 0 0 0-2.976-15.136 206.08 206.08 0 0 0-40.288-81.216 16 16 0 1 0-24.672 20.352 174.016 174.016 0 0 1 33.92 68.512c2.72 11.2 4.096 22.4 5.536 33.664 0.128 0.896 0.288 1.792 0.384 2.72-4.576 4.064-9.056 8.416-13.888 12.064a933.12 933.12 0 0 1-279.04 145.088c-104.32 33.376-208.928 45.472-305.312 35.936 6.72-49.024-9.856-98.688-45.344-129.504a16 16 0 0 0-20.992 24.128c27.424 23.84 40.096 62.656 34.656 101.216-4.096-0.64-8.32-1.024-12.384-1.728-29.632-5.408-67.52-14.24-97.216-34.784-25.76-17.92-40.64-42.656-44.064-73.504-5.184-46.848 17.344-106.72 56.192-149.056 59.072-64.768 142.752-98.24 202.656-114.912a508.8 508.8 0 0 1 86.272-16.896c17.024-1.664 34.08-2.4 51.104-3.136 28.8-1.28 58.56-2.592 88.352-8.064 67.328-12.064 106.432-49.184 144.288-85.12 12.8-12.096 26.016-24.672 40.416-36.384 34.432-27.776 81.184-45.024 121.952-45.024 42.048 0 72.192 17.344 89.504 51.392 12.544 25.12 17.088 57.344 13.12 93.184z"  /><path fill="#d81e06" d="M616.496 577.472a16.032 16.032 0 0 0-18.88 25.856c24.32 17.76 25.6 52.832 16.48 77.952a16 16 0 1 0 30.08 10.88c13.056-35.936 9.952-87.168-27.68-114.688zM390.96 466.688a16 16 0 0 0-3.616 31.776 31.52 31.52 0 0 1 22.176 12.16c14.4 18.144 16.16 52.96 13.024 79.488a16 16 0 1 0 31.744 3.776c2.432-20.48 5.376-71.488-19.68-103.136a62.784 62.784 0 0 0-43.648-24.064zM831.792 266.656a16 16 0 1 0-7.232 31.168c16.064 3.712 24.384 16.224 27.936 23.36 7.2 14.528 7.872 32.032 1.728 45.696a16 16 0 0 0 29.184 13.12c10.112-22.56 9.28-49.824-2.24-73.024-10.464-21.056-28-35.392-49.376-40.32z"  /></svg>