<?xml version="1.0" standalone="no"?><!DOCTYPE svg PUBLIC "-//W3C//DTD SVG 1.1//EN" "http://www.w3.org/Graphics/SVG/1.1/DTD/svg11.dtd"><svg class="icon" width="200px" height="200.00px" viewBox="0 0 1024 1024" version="1.1" xmlns="http://www.w3.org/2000/svg"><path d="M599.030073 348.76022A137.55231 137.55231 0 0 1 512 287.967154c-19.19781 30.716496-51.194161 53.113942-87.030073 60.793066-10.558796 2.239745-21.437555 3.199635-32.316314 3.199635-25.59708-0.319964-51.194161-7.679124-72.631715-21.757519 12.158613 8.639015 30.716496 4.799453 41.595255-5.759343 10.878759-10.238832 15.358248-25.59708 17.597993-40.315401 1.919781-14.718321 1.599818-29.756606 4.799452-44.474927 5.759343-26.237007 22.397445-49.594343 45.434818-63.992701 22.717409-14.398358 56.313577-19.19781 82.550584-13.118504 26.237007-6.079307 59.833175-1.279854 82.550584 13.118504 23.037372 14.398358 39.675475 37.755693 45.434818 63.992701 3.199635 14.718321 2.879672 29.756606 4.799452 44.474927 2.239745 14.718321 6.719234 30.076569 17.597993 40.315401 10.878759 10.558796 29.436642 14.398358 41.595255 5.759343-21.437555 14.078394-47.034635 21.437555-72.631715 21.757519-10.878759 0-21.757518-0.959891-32.316314-3.199635z" fill="#E0EBFE" /><path d="M297.688445 536.418815C262.74843 598.235764 226.592554 662.164472 224.032846 739.435658c-3.199635 105.843927 57.177478 208.74419 150.382847 256.066793a265.697694 265.697694 0 0 0 125.425694 28.380762h23.517317a260.450292 260.450292 0 0 0 126.321592-28.412759c93.10938-47.290606 153.518489-150.190869 150.254861-256.130785-2.559708-77.207194-38.683588-141.103905-73.591606-202.920854l-11.422697-20.285686c-24.157245-43.067088-46.234726-88.949854-50.810204-135.98449a164.493237 164.493237 0 0 0 55.129712-21.693525l0.511941-0.383956 1.791796-1.119873 0.95989-0.671923a31.99635 31.99635 0 0 0-35.163989-53.433905 7.423153 7.423153 0 0 1-3.007657-1.663811c-2.431723-2.335734-5.823336-7.999088-7.807109-21.21358a256.290767 256.290767 0 0 1-1.375843-15.51823 221.318756 221.318756 0 0 0-3.903555-31.64439 133.744745 133.744745 0 0 0-59.577204-84.150402c-18.013945-11.454693-41.755237-18.045942-65.432537-19.741748 1.279854-8.543026 3.199635-16.318139 6.623244-23.293343 12.702551-25.789058 50.298263-44.090971 84.790329-41.403278a31.74038 31.74038 0 0 0 34.236095-29.564627 31.99635 31.99635 0 0 0-29.564628-34.236095c-61.337004-4.415496-122.738 27.900818-146.863248 76.951222-8.479033 17.18204-11.870646 34.652048-13.566453 51.130168-25.053142 1.151869-50.490241 8.06308-69.43208 20.029716a134.064708 134.064708 0 0 0-59.737186 84.374376c-2.399726 11.166726-3.199635 21.981493-3.839562 31.548401-0.35196 5.183409-0.735916 10.366818-1.343847 14.910299-2.047766 13.822423-5.43938 19.517774-8.223062 22.141475-0.767912 0.735916-2.239745 1.343847-1.599818 2.01577l-0.127985-0.063993a32.028347 32.028347 0 0 0-36.091883 52.793979l0.95989 0.703919a42.043204 42.043204 0 0 0 2.303737 1.503829c16.734091 10.558796 35.451956 17.597993 55.129712 21.629533-4.543482 47.034635-26.65296 92.981394-50.874197 136.144471l-11.326708 20.189697zM410.891533 288.287117c0.831905-6.39927 1.343847-12.862533 1.759799-19.325795 0.543938-7.519142 0.959891-15.070281 2.559708-22.461438a69.752044 69.752044 0 0 1 31.356423-43.803004c10.558796-6.719234 26.141018-10.718777 41.659249-10.718778 5.855332 0 11.582679 0.607931 16.510116 1.727803 4.767456 1.087876 9.694894 1.087876 14.462351 0 18.141931-4.095533 43.48304-0.35196 58.361343 9.086964 15.87019 9.918869 27.228894 25.853051 31.100453 43.643022 1.631814 7.45515 2.079763 15.006288 2.6237 22.525431 0.415953 6.463263 0.927894 12.926526 1.823792 19.933726 1.759799 11.550683 4.479489 21.757518 8.223062 30.716496a106.067902 106.067902 0 0 1-82.23062-48.602456c-11.710664-18.717865-42.555146-18.717865-54.265811 0a106.099898 106.099898 0 0 1-66.552408 46.458701c-4.959434 1.05588-10.238832 1.791796-15.742205 2.175752 3.839562-9.086964 6.559252-19.517774 8.319051-31.356424z m-46.042749 259.138442c27.196898-48.538464 54.393796-105.235997 59.129256-166.189044 2.559708-0.415953 5.183409-0.639927 7.679124-1.183865A169.452672 169.452672 0 0 0 512 337.88146a169.420675 169.420675 0 0 0 80.374832 42.139194c2.431723 0.511942 5.08742 0.767912 7.615132 1.183865 4.73546 60.953048 31.900361 117.65058 59.065263 166.093055l11.550682 20.60565c32.604281 57.593431 63.352774 112.019223 65.368544 173.420219 2.495715 81.590694-43.835 160.781661-115.186862 197.033526-29.564628 14.878303-63.03281 22.365449-96.628978 21.501547h-25.085139a203.336807 203.336807 0 0 1-95.73308-21.469551c-71.479847-36.283861-117.810562-115.474829-115.346843-196.969533 2.047766-61.496986 32.796259-115.922778 65.40054-173.516208l11.518686-20.509661z" fill="#5465CF" /><path d="M591.990876 895.897812a16.094164 16.094164 0 0 0 4.703464-0.70392 154.542373 154.542373 0 0 0 95.093153-85.718223 154.542373 154.542373 0 0 0-3.551595-128.657325 15.998175 15.998175 0 1 0-28.700726 14.20638c15.486234 31.164445 16.606106 70.167996 2.879671 101.748394a122.002084 122.002084 0 0 1-75.12743 67.832263 15.998175 15.998175 0 0 0 4.703463 31.292431z" fill="#5465CF" /></svg>