<?xml version="1.0" standalone="no"?><!DOCTYPE svg PUBLIC "-//W3C//DTD SVG 1.1//EN" "http://www.w3.org/Graphics/SVG/1.1/DTD/svg11.dtd"><svg class="icon" width="200px" height="200.00px" viewBox="0 0 1024 1024" version="1.1" xmlns="http://www.w3.org/2000/svg"><path fill="#d81e06" d="M799.456 299.296c-6.24-51.584-45.76-92.672-95.68-99.808C696.736 105.92 620.864 32 528.64 32h-33.28c-92.224 0-168.064 73.92-175.136 167.488-49.92 7.136-89.44 48.224-95.68 99.808C170.08 306.944 128 355.2 128 413.44a116.48 116.48 0 0 0 40.768 88.544A117.12 117.12 0 0 0 160 546.56c0 45.408 25.536 85.28 63.744 103.808 1.472 43.84 26.752 82.08 64 100 2.08 59.776 48.48 108.096 106.24 110.944l22.72 105.44A32 32 0 0 0 448 992h128a32 32 0 0 0 31.296-25.28l22.72-105.408c57.76-2.88 104.16-51.2 106.24-110.944 37.248-17.92 62.528-56.128 64-100C838.464 631.808 864 592 864 546.56c0-15.456-3.008-30.56-8.736-44.544A116.384 116.384 0 0 0 896 413.44c0-58.24-42.08-106.496-96.544-114.144z m0.832 161.92a32 32 0 0 0-12.928 50.976c8.256 9.504 12.64 21.408 12.64 34.368 0 24.896-16.64 45.984-39.584 50.112a32.064 32.064 0 0 0-25.664 38.08c1.088 5.024 1.568 8.704 1.568 11.648 0 24.928-16.64 45.984-39.584 50.112a32.064 32.064 0 0 0-25.632 38.08c0.8 3.84 1.216 7.744 1.216 11.648 0 28.224-21.408 51.2-47.68 51.2-3.616 0-7.456-0.768-12.128-1.92a32 32 0 0 0-39.008 24.32l-23.36 108.16h-76.32l-23.36-108.16a32 32 0 0 0-38.976-24.32c-4.672 1.152-8.512 1.92-12.128 1.92-26.272 0-47.68-22.976-47.68-51.2 0-3.904 0.416-7.808 1.216-11.648a32 32 0 0 0-25.632-38.08c-22.944-4.128-39.584-25.184-39.584-50.112 0-2.944 0.48-6.624 1.568-11.648a32 32 0 0 0-25.664-38.08C240.64 592.544 224 571.456 224 546.56c0-12.96 4.384-24.864 12.64-34.368a32 32 0 0 0-12.8-50.912C204.736 454.048 192 434.848 192 413.44c0-28.224 21.376-51.2 47.68-51.2 3.136 0 6.72 0.448 11.296 1.472a32 32 0 0 0 38.272-37.824A59.04 59.04 0 0 1 287.68 313.6c0-28.224 21.536-51.2 48-51.2 2.848 0 6.016 0.448 10.656 1.472a32 32 0 0 0 38.784-34.432l-0.576-5.408c-0.416-3.424-0.864-6.784-0.864-10.24C383.68 148.8 433.792 96 495.36 96h33.28c61.568 0 111.68 52.8 111.68 117.76 0 3.52-0.448 6.848-0.864 10.272l-0.576 5.44a32 32 0 0 0 38.784 34.4c4.64-1.024 7.808-1.472 10.656-1.472 26.464 0 48 22.976 48 51.2 0 3.456-0.48 7.136-1.568 12.288a32 32 0 0 0 38.272 37.824c4.576-1.024 8.16-1.472 11.296-1.472 26.304 0 47.68 22.976 47.68 51.2 0 21.472-12.736 40.672-31.712 47.808z"  /><path fill="#d81e06" d="M416.352 301.696l-1.728-4.224a16 16 0 1 0-29.216 13.024l1.216 3.008c0.8 2.08 1.632 4.096 2.048 4.8 44.32 110.176 65.792 259.968 57.44 400.736a16 16 0 0 0 15.04 16.928l0.96 0.032a16 16 0 0 0 15.936-15.04c8.64-145.28-13.696-300.256-60.224-415.84-0.544-1.088-0.992-2.24-1.472-3.424zM630.528 289.376a15.936 15.936 0 0 0-21.12 8.096l-1.76 4.224c-0.48 1.184-0.928 2.336-2.016 4.64-45.984 114.368-68.32 269.344-59.68 414.624a16 16 0 1 0 31.936-1.92c-8.32-140.768 13.12-290.56 56.896-399.552 0.96-1.888 1.792-3.904 2.592-5.984l1.248-2.976a16 16 0 0 0-8.096-21.12zM347.328 420.672a16 16 0 1 0-22.656 22.656l32 32a15.936 15.936 0 0 0 22.656 0 16 16 0 0 0 0-22.656l-32-32zM347.328 548.672a16 16 0 1 0-22.656 22.656l32 32a15.936 15.936 0 0 0 22.656 0 16 16 0 0 0 0-22.656l-32-32zM676.672 420.672l-32 32a16 16 0 1 0 22.656 22.656l32-32a16 16 0 1 0-22.656-22.656zM676.672 548.672l-32 32a16 16 0 1 0 22.656 22.656l32-32a16 16 0 1 0-22.656-22.656z"  /></svg>