<?xml version="1.0" standalone="no"?><!DOCTYPE svg PUBLIC "-//W3C//DTD SVG 1.1//EN" "http://www.w3.org/Graphics/SVG/1.1/DTD/svg11.dtd"><svg class="icon" width="200px" height="200.00px" viewBox="0 0 1024 1024" version="1.1" xmlns="http://www.w3.org/2000/svg"><path d="M895.988 319.99c0 7.03978 0 14.07956-0.63998 21.11934h-3.83988c-35.51889 37.43883-89.5972 35.83888-123.51614-5.11984-35.51889 42.55867-92.47711 42.55867-127.996 0h-0.31999c0.31999-5.43983 0.31999-10.55967 0.31999-15.9995 0-35.1989 14.39955-67.1979 37.75882-90.23718C700.7941 206.39355 732.7931 191.994 767.992 191.994c70.3978 0 127.996 57.5982 127.996 127.996z" fill="#E0EBFE" /><path d="M895.988 63.998a31.999 31.999 0 1 0 0-63.998c-88.221243 0-159.995 71.773757-159.995 159.995v3.263898a157.11509 157.11509 0 0 0-80.701478 43.710634A157.563076 157.563076 0 0 0 607.997 319.99c0 4.79985 0.031999 9.343708-0.31999 15.231524-7.007781 286.999031-220.569107 555.662636-486.256804 611.660886a31.999 31.999 0 0 0-0.063998 62.622043c45.214587 9.5997 91.581138 14.463548 137.851692 14.463548 350.485047 0 656.459486-312.246242 668.043123-680.01075 0.703978-7.99975 0.735977-15.9995 0.735977-23.967251a160.250992 160.250992 0 0 0-127.996-156.763101V159.995c0-52.926346 43.070654-95.997 95.997-95.997zM278.439299 959.650011c214.937283-105.692697 370.804412-332.7896 390.867785-583.757758 32.95897 12.831599 70.71779 7.711759 98.652917-16.95947a96.444986 96.444986 0 0 0 64.093997 25.055217c9.695697 0 19.071404-1.983938 28.223118-4.927846-29.247086 311.894253-285.367082 569.806194-581.837817 580.557858zM863.989 319.99c0 6.07981 0.031999 12.15962-0.607981 20.095372 0 0.95997-0.191994 1.855942-0.223993 2.815912a65.59795 65.59795 0 0 1-33.182963 9.087716c-18.55942-0.63998-36.190869-9.951689-49.662448-26.207181A15.9995 15.9995 0 0 0 767.992 319.99H767.992a15.9995 15.9995 0 0 0-12.287616 5.75982c-22.527296 26.943158-56.95822 31.999-84.317365 15.871504 0.031999-1.27996 0.191994-2.527921 0.223993-3.775882 0.351989-6.07981 0.383988-11.807631 0.383988-17.855442 0-25.535202 10.015687-49.502453 28.543108-67.741883A94.07706 94.07706 0 0 1 767.992 223.993c52.926346 0 95.997 43.070654 95.997 95.997z" fill="#5465CF" /></svg>