<?xml version="1.0" standalone="no"?><!DOCTYPE svg PUBLIC "-//W3C//DTD SVG 1.1//EN" "http://www.w3.org/Graphics/SVG/1.1/DTD/svg11.dtd"><svg class="icon" width="200px" height="200.00px" viewBox="0 0 1024 1024" version="1.1" xmlns="http://www.w3.org/2000/svg"><path d="M550.4 498.56c-22.08-63.36-27.52-131.52-30.4-198.4l0.96-24.32c2.24-67.2 4.48-171.2 2.56-243.84h18.88c1.28 42.88 0.96 117.12 6.4 222.08 4.8 89.28 50.88 161.6 97.6 235.84 32.32 51.2 62.08 107.84 68.48 168 13.44 133.76-64.64 240-156.16 330.88-12.48 1.6-25.28 2.56-38.4 2.88 46.72-71.36 88.32-165.76 89.28-249.92 0.64-41.92-4.16-83.52-14.72-124.16-10.56-41.6-30.72-78.72-44.48-119.04zM516.48 32c-1.92 72.64 0.32 176.64 2.56 243.84l0.96 24.32c-2.88 66.88-8.32 135.04-30.4 198.4-13.76 40.32-33.92 77.44-44.48 119.04-10.56 40.64-15.36 82.24-14.72 124.16 1.28 84.16 42.56 178.56 89.28 249.92-2.56 0-5.12 0.32-7.68 0.32-9.92 0-19.52-0.64-29.12-1.28-92.16-91.52-171.2-198.4-157.44-332.8 6.08-60.16 36.16-116.8 68.16-168 46.72-74.24 92.8-146.56 97.6-235.84 3.52-63.68 4.16-156.16 5.76-222.08h19.52z" fill="#E0EBFE" /><path d="M521.12 1023.68c14.24-0.352 28.288-1.408 41.216-3.072 82.336-9.408 160.32-43.2 219.84-95.2 73.376-64.96 113.824-151.296 113.824-243.2 0-128.384-81.696-213.248-160.64-295.296-12.896-13.376-25.76-26.752-38.4-40.448-5.76-6.144-11.616-12.256-17.536-18.4-21.952-22.816-42.72-44.352-57.408-68.96a304.16 304.16 0 0 1-37.888-103.872c-3.616-19.84-4.352-56.928-4.896-86.72a1615.424 1615.424 0 0 0-1.024-37.888A32 32 0 0 0 546.24 0h-68.48a32 32 0 0 0-32 30.624c-0.448 10.912-0.736 24.032-0.96 37.888-0.576 29.792-1.28 66.88-4.96 87.008a304.544 304.544 0 0 1-37.856 103.616c-14.72 24.576-35.456 46.112-57.408 68.928-5.92 6.144-11.808 12.256-17.696 18.56-12.48 13.536-25.344 26.88-38.24 40.288C209.696 468.96 128 553.824 128 682.24c0 91.84 40.448 178.24 113.92 243.264 64.128 56.256 148.896 90.752 238.816 97.152 10.304 0.672 20.64 1.344 31.264 1.344 1.92 0 3.872-0.096 5.76-0.224l-0.992-16.8c0.544 0.096 1.088 0.32 1.664 0.384l2.688 16.32z m112.224-651.2c5.664 5.888 11.328 11.744 16.704 17.504 12.8 13.888 25.984 27.584 39.168 41.28C762.656 507.616 832 579.648 832 682.24c0 73.28-32.736 142.624-92.096 195.104-32.672 28.576-72.32 50.432-115.52 64.416 63.744-74.976 118.08-169.44 106.4-285.536-7.104-66.72-41.6-128.48-72.384-177.28-37.312-59.296-72.64-116.096-86.976-180.576 17.824 27.904 40.096 51.456 61.92 74.08z m-96.832-84.544c12.896 77.824 54.624 144.192 96.352 210.528 27.424 43.424 59.712 100.992 66.112 161.056 12.288 122.272-58.272 220.544-129.408 295.296-3.136 0.48-6.24 0.992-9.408 1.408 29.248-53.12 64.512-133.6 65.44-214.208a479.904 479.904 0 0 0-15.232-128.352c-6.592-25.984-16.704-50.176-26.496-73.6-6.432-15.36-12.896-30.752-18.368-46.752-22.272-64-26.944-133.6-29.504-192.544l0.512-12.8zM284.224 877.472C224.736 824.864 192 755.52 192 682.24c0-102.624 69.344-174.656 142.784-250.944 13.184-13.728 26.368-27.424 39.008-41.152 5.536-5.92 11.2-11.776 16.864-17.696 23.52-24.416 47.84-49.664 66.24-80.512 6.592-11.008 12.448-22.688 17.856-34.592-5.664 82.24-48.128 150.08-94.72 224.096-31.168 49.856-63.904 109.632-70.496 174.848-12.16 118.784 45.312 215.488 111.424 291.872-51.36-13.184-98.624-37.248-136.736-70.72z m188.48 79.936c-72.096-75.52-143.936-174.88-131.36-297.888 5.984-58.72 36.64-114.4 67.328-163.52 40.416-64.224 81.984-130.368 94.848-208.192l0.48 11.648c-2.56 60.256-7.232 129.856-29.568 193.92-5.408 15.936-11.84 31.328-18.304 46.72-9.792 23.36-19.904 47.584-26.496 73.472a481.056 481.056 0 0 0-15.232 128.448c1.28 82.016 37.248 163.392 66.56 216.32-2.752-0.224-5.504-0.64-8.256-0.928z m-26.304-215.904c-0.64-40.832 4.16-81.152 14.24-120 6.016-23.68 15.232-45.728 25.024-69.056 6.72-16.064 13.44-32.128 19.04-48.64 6.4-18.432 11.296-37.216 15.296-56.064 3.968 18.784 8.832 37.568 15.264 56a771.2 771.2 0 0 0 19.072 48.704c9.792 23.36 19.008 45.408 25.024 69.184 10.112 38.72 14.88 79.04 14.24 119.936-0.96 84.352-43.488 169.632-72.224 217.984-0.576 0-1.12 0.128-1.696 0.128l-0.96 0.032c-28.608-48.16-71.04-133.28-72.32-218.208z" fill="#5465CF" /></svg>