<?xml version="1.0" standalone="no"?><!DOCTYPE svg PUBLIC "-//W3C//DTD SVG 1.1//EN" "http://www.w3.org/Graphics/SVG/1.1/DTD/svg11.dtd"><svg class="icon" width="200px" height="200.00px" viewBox="0 0 1024 1024" version="1.1" xmlns="http://www.w3.org/2000/svg"><path fill="#2c2c2c" d="M512 911.2c-8.8 0-16-7.2-16-16V739.2c0-8.8 7.2-16 16-16s16 7.2 16 16v156c0 8.8-7.2 16-16 16zM684.8 1020c-8.8 0-16-7.2-16-16 0-50.4-72-92.8-156.8-92.8-84.8 0-156.8 42.4-156.8 92.8 0 8.8-7.2 16-16 16s-16-7.2-16-16c0-70.4 83.2-124.8 188.8-124.8 106.4 0 188.8 55.2 188.8 124.8 0 8.8-7.2 16-16 16zM787.2 744.8H236.8c-8.8 0-16-7.2-16-16V605.6c0-8.8 7.2-16 16-16h97.6V528c0-8.8 7.2-16 16-16h323.2c8.8 0 16 7.2 16 16v61.6h97.6c8.8 0 16 7.2 16 16v123.2c0 8.8-6.4 16-16 16z m-534.4-32h519.2V621.6H673.6c-8.8 0-16-7.2-16-16V544H366.4v61.6c0 8.8-7.2 16-16 16H252.8v91.2zM673.6 538.4H350.4c-8.8 0-16-7.2-16-16V496c0-21.6-16.8-39.2-38.4-40-4.8 0-8.8-2.4-11.2-5.6-3.2-3.2-4-8-3.2-12 13.6-102.4 12-205.6-3.2-308C268.8 76 306.4 24.8 360 16c100.8-16 203.2-16 304 0 53.6 8.8 91.2 59.2 82.4 112.8-16 102.4-16.8 205.6-3.2 308 0.8 4.8-0.8 8.8-3.2 12-3.2 3.2-7.2 5.6-11.2 5.6-21.6 1.6-38.4 19.2-38.4 40v26.4c-0.8 10.4-8 17.6-16.8 17.6z m-307.2-32h291.2V496c0-32.8 21.6-60 52-69.6-12-100.8-10.4-201.6 5.6-301.6 5.6-36-19.2-70.4-56-76.8-97.6-16-196.8-16-294.4 0-36.8 5.6-61.6 40-56 76.8 15.2 100 17.6 201.6 5.6 301.6 30.4 8.8 52 36.8 52 69.6v10.4zM616 466.4H408c-3.2 0-6.4-2.4-8-5.6-7.2-22.4-20.8-41.6-40-55.2-2.4-1.6-3.2-4-3.2-7.2 8-93.6 5.6-187.2-8.8-280-2.4-14.4 8-28 23.2-30.4 93.6-16 188-16 281.6-0.8 15.2 2.4 25.6 16 23.2 30.4-14.4 92.8-17.6 187.2-8.8 280 0 2.4-0.8 5.6-3.2 7.2-19.2 14.4-32.8 32.8-40 55.2-1.6 4-4.8 6.4-8 6.4z m-202.4-16h196c8-21.6 21.6-40.8 40-55.2-8-92.8-4.8-187.2 9.6-280 0.8-5.6-3.2-11.2-9.6-12.8-91.2-15.2-184-15.2-276 0-6.4 0.8-10.4 6.4-9.6 12.8 14.4 92.8 17.6 186.4 9.6 280 18.4 14.4 32 33.6 40 55.2zM787.2 621.6H673.6c-8.8 0-16-7.2-16-16V495.2c0-40 32-72 72-72h1.6c40 0 72 32 72 72v110.4c0 8.8-6.4 16-16 16z m-97.6-32h81.6V495.2c0-22.4-17.6-40-40-40h-1.6c-22.4 0-40 17.6-40 40v94.4zM350.4 621.6H236.8c-8.8 0-16-7.2-16-16V495.2c0-40 32-72 72-72h1.6c40 0 72 32 72 72v110.4c0 8.8-7.2 16-16 16z m-97.6-32h81.6V495.2c0-22.4-17.6-40-40-40h-1.6c-22.4 0-40 17.6-40 40v94.4z" /></svg>