<?xml version="1.0" standalone="no"?><!DOCTYPE svg PUBLIC "-//W3C//DTD SVG 1.1//EN" "http://www.w3.org/Graphics/SVG/1.1/DTD/svg11.dtd"><svg class="icon" width="200px" height="200.00px" viewBox="0 0 1024 1024" version="1.1" xmlns="http://www.w3.org/2000/svg"><path fill="#2c2c2c" d="M1003.2 317.6H20.8c-8.8 0-16-7.2-16-16V204c0-8.8 7.2-16 16-16h982.4c8.8 0 16 7.2 16 16v98.4c0 8-7.2 15.2-16 15.2z m-966.4-32h950.4v-66.4H36.8v66.4zM20 836c-2.4 0-4.8-0.8-6.4-1.6-8-4-12-12.8-8-20.8l232.8-518.4c4-8 12.8-12 20.8-8s12 12.8 8 20.8L34.4 827.2c-2.4 5.6-8 8.8-14.4 8.8zM1004 836c-6.4 0-12-3.2-14.4-9.6L756.8 308.8c-4-8 0-17.6 8-20.8 8-4 17.6 0 20.8 8l232.8 518.4c4 8 0 17.6-8 20.8-1.6 0.8-4 0.8-6.4 0.8z" /></svg>