<?xml version="1.0" standalone="no"?><!DOCTYPE svg PUBLIC "-//W3C//DTD SVG 1.1//EN" "http://www.w3.org/Graphics/SVG/1.1/DTD/svg11.dtd"><svg class="icon" width="200px" height="200.00px" viewBox="0 0 1024 1024" version="1.1" xmlns="http://www.w3.org/2000/svg"><path fill="#2c2c2c" d="M708.8 127.2H315.2c-8 0-14.4-5.6-16-12.8-0.8-3.2-0.8-6.4-0.8-9.6C298.4 47.2 390.4 4 512 4S725.6 47.2 725.6 104c0 4-0.8 7.2-0.8 9.6-1.6 8-8 13.6-16 13.6z m-376.8-32h359.2C679.2 65.6 606.4 36 512 36c-94.4 0-167.2 29.6-180 59.2zM80.8 1020c-8.8 0-16-7.2-16-16V960c0-8.8 7.2-16 16-16s16 7.2 16 16v44c0 8.8-7.2 16-16 16zM943.2 1020c-8.8 0-16-7.2-16-16V960c0-8.8 7.2-16 16-16s16 7.2 16 16v44c0 8.8-7.2 16-16 16zM1000.8 976H23.2c-8.8 0-16-7.2-16-16V724.8c0-3.2 0.8-7.2 3.2-9.6l176-372v-232c0-8.8 7.2-16 16-16h620c8.8 0 16 7.2 16 16v231.2l176 372c2.4 2.4 3.2 6.4 3.2 9.6v235.2c-0.8 9.6-8 16.8-16.8 16.8zM39.2 944H984V729.6L811.2 360c-3.2-3.2-4.8-7.2-4.8-11.2V127.2H218.4v221.6c0 4.8-1.6 8.8-4.8 11.2L39.2 728.8V944zM435.2 356.8h-120c-30.4 0-55.2-24.8-55.2-55.2v-14.4c0-30.4 24.8-55.2 55.2-55.2h120c30.4 0 55.2 24.8 55.2 55.2v14.4c0 30.4-24.8 55.2-55.2 55.2zM315.2 248c-21.6 0-39.2 17.6-39.2 39.2v14.4c0 21.6 17.6 39.2 39.2 39.2h120c21.6 0 39.2-17.6 39.2-39.2v-14.4c0-21.6-17.6-39.2-39.2-39.2h-120zM708.8 356.8h-120c-30.4 0-55.2-24.8-55.2-55.2v-14.4c0-30.4 24.8-55.2 55.2-55.2h120c30.4 0 55.2 24.8 55.2 55.2v14.4c0 30.4-24.8 55.2-55.2 55.2zM588.8 248c-21.6 0-39.2 17.6-39.2 39.2v14.4c0 21.6 17.6 39.2 39.2 39.2h120c21.6 0 39.2-17.6 39.2-39.2v-14.4c0-21.6-17.6-39.2-39.2-39.2h-120zM821.6 356.8H202.4c-4.8 0-8-3.2-8-8s3.2-8 8-8h620c4.8 0 8 3.2 8 8s-4 8-8.8 8zM1000.8 732.8H23.2c-4.8 0-8-3.2-8-8s3.2-8 8-8H1000c4.8 0 8 3.2 8 8 0.8 4-3.2 8-7.2 8z" /></svg>