<?xml version="1.0" standalone="no"?><!DOCTYPE svg PUBLIC "-//W3C//DTD SVG 1.1//EN" "http://www.w3.org/Graphics/SVG/1.1/DTD/svg11.dtd"><svg class="icon" width="200px" height="200.00px" viewBox="0 0 1024 1024" version="1.1" xmlns="http://www.w3.org/2000/svg"><path fill="#2c2c2c" d="M172.8 864h-12c-31.2 0-56.8-25.6-56.8-56.8v-66.4c0-8.8 7.2-16 16-16h92.8c8.8 0 16 7.2 16 16v66.4c0.8 31.2-24.8 56.8-56 56.8zM136 756.8v50.4c0 13.6 11.2 24.8 24.8 24.8h12c13.6 0 24.8-11.2 24.8-24.8v-50.4H136zM863.2 864h-12c-31.2 0-56.8-25.6-56.8-56.8v-66.4c0-8.8 7.2-16 16-16H904c8.8 0 16 7.2 16 16v66.4c0 31.2-25.6 56.8-56.8 56.8z m-36.8-107.2v50.4c0 13.6 11.2 24.8 24.8 24.8h12c13.6 0 24.8-11.2 24.8-24.8v-50.4h-61.6zM1004 756.8H20c-8.8 0-16-7.2-16-16V497.6c0-24.8 19.2-44.8 43.2-45.6L25.6 367.2C12.8 317.6 24 267.2 55.2 226.4c32-41.6 82.4-66.4 136.8-66.4h640c54.4 0 104 24 136.8 66.4 31.2 40 41.6 91.2 29.6 140l-21.6 84.8c24 1.6 43.2 21.6 43.2 45.6v243.2c0 9.6-7.2 16.8-16 16.8z m-968-32h952V497.6c0-8-6.4-13.6-13.6-13.6h-17.6c-4.8 0-9.6-2.4-12.8-5.6-3.2-4-4-8.8-3.2-14.4l27.2-104.8c10.4-39.2 1.6-80-23.2-112.8-26.4-34.4-67.2-53.6-111.2-53.6H192c-44 0-84.8 20-111.2 53.6-24.8 32-33.6 73.6-23.2 112.8L84 464c1.6 4.8 0 10.4-3.2 14.4s-8 6.4-12.8 5.6H50.4c-8 0-13.6 6.4-13.6 13.6v227.2zM884.8 748.8H139.2c-4.8 0-8-3.2-8-8v-96c0-4.8 3.2-8 8-8h746.4c4.8 0 8 3.2 8 8v96c-0.8 4.8-4 8-8.8 8z m-737.6-16h730.4v-80H147.2v80zM139.2 748.8H20c-4.8 0-8-3.2-8-8V497.6c0-20.8 16.8-37.6 37.6-37.6h15.2c44.8 0 81.6 36.8 81.6 81.6v200c0.8 4-3.2 7.2-7.2 7.2z m-111.2-16h103.2v-192c0-36-29.6-65.6-65.6-65.6h-16c-12 0-21.6 9.6-21.6 21.6v236zM1004 748.8h-119.2c-4.8 0-8-3.2-8-8v-200c0-44.8 36.8-81.6 81.6-81.6h15.2c20.8 0 37.6 16.8 37.6 37.6v243.2c0.8 5.6-2.4 8.8-7.2 8.8z m-111.2-16h103.2V497.6c0-12-9.6-21.6-21.6-21.6h-15.2c-36 0-65.6 29.6-65.6 65.6v191.2zM388 652.8H139.2c-4.8 0-8-3.2-8-8V556c0-4.8 3.2-8 8-8h188c37.6 0 68.8 30.4 68.8 68.8v28c0 4-4 8-8 8z m-240.8-16h232.8v-20c0-28.8-23.2-52.8-52.8-52.8H147.2v72.8zM636 652.8h-248c-4.8 0-8-3.2-8-8v-28c0-37.6 30.4-68.8 68.8-68.8h128c37.6 0 68.8 30.4 68.8 68.8v28c-1.6 4-4.8 8-9.6 8z m-240-16h232.8v-20c0-28.8-23.2-52.8-52.8-52.8H448c-28.8 0-52.8 23.2-52.8 52.8v20zM884.8 652.8H636c-4.8 0-8-3.2-8-8v-28c0-37.6 30.4-68.8 68.8-68.8h188c4.8 0 8 3.2 8 8v88.8c0 4-3.2 8-8 8z m-240.8-16h232.8v-72.8H696.8c-28.8 0-52.8 23.2-52.8 52.8v20zM636 626.4c-4.8 0-8-3.2-8-8 0-30.4-24.8-54.4-54.4-54.4H450.4c-30.4 0-54.4 24.8-54.4 54.4 0 4.8-3.2 8-8 8s-8-3.2-8-8c0-30.4-24.8-54.4-54.4-54.4H139.2c-4.8 0-8-3.2-8-8v-5.6c0-36.8-26.4-68-64-73.6-3.2-0.8-5.6-3.2-6.4-5.6L33.6 364.8C21.6 318.4 32 269.6 61.6 231.2c31.2-40 78.4-63.2 130.4-63.2h640c52 0 99.2 23.2 130.4 63.2 29.6 38.4 40 87.2 28 133.6l-27.2 106.4c-0.8 3.2-3.2 5.6-6.4 5.6-36.8 6.4-64 37.6-64 73.6v5.6c0 4.8-3.2 8-8 8H699.2c-30.4 0-54.4 24.8-54.4 54.4-0.8 4.8-4 8-8.8 8z m-185.6-78.4h124c27.2 0 50.4 15.2 62.4 37.6 12-22.4 35.2-37.6 62.4-37.6h178.4c1.6-41.6 30.4-76.8 72-85.6l26.4-100.8c10.4-41.6 1.6-85.6-24.8-120-28-36-71.2-56.8-117.6-56.8H192c-46.4 0-89.6 20.8-117.6 56.8-26.4 34.4-36 77.6-24.8 120l26.4 100.8c40.8 8.8 70.4 44 72 85.6h178.4c27.2 0 50.4 15.2 62.4 37.6 10.4-22.4 34.4-37.6 61.6-37.6z" /></svg>