<?xml version="1.0" standalone="no"?><!DOCTYPE svg PUBLIC "-//W3C//DTD SVG 1.1//EN" "http://www.w3.org/Graphics/SVG/1.1/DTD/svg11.dtd"><svg class="icon" width="200px" height="200.00px" viewBox="0 0 1024 1024" version="1.1" xmlns="http://www.w3.org/2000/svg"><path fill="#2c2c2c" d="M384 448h256c36.266667 0 64-27.733333 64-64V170.666667c0-36.266667-27.733333-64-64-64H384c-36.266667 0-64 27.733333-64 64v213.333333c0 36.266667 27.733333 64 64 64zM362.666667 170.666667c0-12.8 8.533333-21.333333 21.333333-21.333334h256c12.8 0 21.333333 8.533333 21.333333 21.333334v213.333333c0 12.8-8.533333 21.333333-21.333333 21.333333H384c-12.8 0-21.333333-8.533333-21.333333-21.333333V170.666667z"  /><path fill="#2c2c2c" d="M832 341.333333h-21.333333c-46.933333 0-85.333333 38.4-85.333334 85.333334v81.066666c-10.666667-10.666667-25.6-17.066667-42.666666-17.066666H341.333333c-17.066667 0-32 6.4-42.666666 17.066666V426.666667c0-46.933333-38.4-85.333333-85.333334-85.333334H192c-46.933333 0-85.333333 38.4-85.333333 85.333334v298.666666c0 46.933333 38.4 85.333333 85.333333 85.333334h85.333333v42.666666c0 12.8 8.533333 21.333333 21.333334 21.333334s21.333333-8.533333 21.333333-21.333334v-42.666666h384v42.666666c0 12.8 8.533333 21.333333 21.333333 21.333334s21.333333-8.533333 21.333334-21.333334v-42.666666h85.333333c46.933333 0 85.333333-38.4 85.333333-85.333334V426.666667c0-46.933333-38.4-85.333333-85.333333-85.333334zM320 554.666667c0-12.8 8.533333-21.333333 21.333333-21.333334h341.333334c12.8 0 21.333333 8.533333 21.333333 21.333334v42.666666c0 12.8-8.533333 21.333333-21.333333 21.333334H341.333333c-12.8 0-21.333333-8.533333-21.333333-21.333334v-42.666666z m554.666667 170.666666c0 23.466667-19.2 42.666667-42.666667 42.666667H192c-23.466667 0-42.666667-19.2-42.666667-42.666667V426.666667c0-23.466667 19.2-42.666667 42.666667-42.666667h21.333333c23.466667 0 42.666667 19.2 42.666667 42.666667v192c0 23.466667 19.2 42.666667 42.666667 42.666666h426.666666c23.466667 0 42.666667-19.2 42.666667-42.666666v-192c0-23.466667 19.2-42.666667 42.666667-42.666667h21.333333c23.466667 0 42.666667 19.2 42.666667 42.666667v298.666666z"  /></svg>