<?xml version="1.0" standalone="no"?><!DOCTYPE svg PUBLIC "-//W3C//DTD SVG 1.1//EN" "http://www.w3.org/Graphics/SVG/1.1/DTD/svg11.dtd"><svg class="icon" width="200px" height="200.00px" viewBox="0 0 1024 1024" version="1.1" xmlns="http://www.w3.org/2000/svg"><path fill="#2c2c2c" d="M958.4 1020H65.6c-8.8 0-16-7.2-16-16V490.4c0-8.8 7.2-16 16-16h892.8c8.8 0 16 7.2 16 16v513.6c0 8.8-7.2 16-16 16z m-876.8-32h860.8V506.4H81.6v481.6zM845.6 899.2H178.4c-4.8 0-8-3.2-8-8V604c0-4.8 3.2-8 8-8h667.2c4.8 0 8 3.2 8 8v287.2c0 4-3.2 8-8 8z m-659.2-16h651.2V612H186.4v271.2zM568.8 701.6H455.2c-4.8 0-8-3.2-8-8s3.2-8 8-8h114.4c4.8 0 8 3.2 8 8s-4 8-8.8 8zM801.6 432H222.4c-8.8 0-16-7.2-16-16V20c0-8.8 7.2-16 16-16h578.4c8.8 0 16 7.2 16 16V416c0.8 8.8-6.4 16-15.2 16z m-563.2-32h546.4V36H238.4V400zM737.6 360H286.4c-4.8 0-8-3.2-8-8V84c0-4.8 3.2-8 8-8h450.4c4.8 0 8 3.2 8 8V352c0.8 4.8-3.2 8-7.2 8z m-443.2-16h434.4V92H294.4V344zM397.6 506.4c-2.4 0-5.6-0.8-8-2.4-7.2-4.8-10.4-14.4-5.6-21.6l44.8-74.4c4.8-7.2 14.4-10.4 21.6-5.6 7.2 4.8 10.4 14.4 5.6 21.6l-44.8 74.4c-3.2 5.6-8.8 8-13.6 8zM626.4 506.4c-5.6 0-10.4-2.4-13.6-8L568 424c-4.8-7.2-2.4-17.6 5.6-21.6 7.2-4.8 17.6-2.4 21.6 5.6l44.8 74.4c4.8 7.2 2.4 17.6-5.6 21.6-2.4 2.4-4.8 2.4-8 2.4z" /></svg>