<?xml version="1.0" standalone="no"?><!DOCTYPE svg PUBLIC "-//W3C//DTD SVG 1.1//EN" "http://www.w3.org/Graphics/SVG/1.1/DTD/svg11.dtd"><svg class="icon" width="200px" height="200.00px" viewBox="0 0 1024 1024" version="1.1" xmlns="http://www.w3.org/2000/svg"><path fill="#2c2c2c" d="M371.2 979.2c-8.8 0-16-7.2-16-16V173.6C355.2 80 431.2 4 524.8 4S694.4 80 694.4 173.6v56.8c0 8.8-7.2 16-16 16s-16-7.2-16-16v-56.8c0-76-61.6-137.6-137.6-137.6s-137.6 61.6-137.6 137.6v789.6c0 8.8-7.2 16-16 16zM863.2 420H497.6c-4 0-8.8-1.6-12-4.8-3.2-3.2-4.8-7.2-4-12C487.2 298.4 574.4 216 680 216s192.8 82.4 198.4 187.2c0 4-1.6 8.8-4 12-3.2 3.2-7.2 4.8-11.2 4.8z m-348-32h329.6C832 308 763.2 248 680 248c-82.4 0-152 60-164.8 140zM772.8 348c-2.4 0-4.8-0.8-6.4-3.2C745.6 319.2 714.4 304 680 304c-4.8 0-8-3.2-8-8s3.2-8 8-8c38.4 0 74.4 17.6 99.2 47.2 2.4 3.2 2.4 8.8-1.6 11.2-0.8 1.6-3.2 1.6-4.8 1.6zM580.8 1020c-1.6 0-3.2 0-5.6-0.8l-24.8-8.8c-116-41.6-244-41.6-360 0l-24.8 8.8c-8 3.2-17.6-1.6-20.8-9.6-3.2-8 1.6-17.6 9.6-20.8l24.8-8.8c123.2-44 258.4-44 381.6 0l24.8 8.8c8 3.2 12.8 12 9.6 20.8-1.6 6.4-8 10.4-14.4 10.4z" /></svg>