<?xml version="1.0" standalone="no"?><!DOCTYPE svg PUBLIC "-//W3C//DTD SVG 1.1//EN" "http://www.w3.org/Graphics/SVG/1.1/DTD/svg11.dtd"><svg class="icon" width="200px" height="196.92px" viewBox="0 0 1040 1024" version="1.1" xmlns="http://www.w3.org/2000/svg"><path fill="#2c2c2c" d="M16 1020c-8.8 0-16-7.2-16-16v-448c0-8.8 7.2-16 16-16h628.8c8.8 0 16 7.2 16 16s-7.2 16-16 16H32v432c0 8.8-7.2 16-16 16zM1024 1020H644.8c-8.8 0-16-7.2-16-16v-448c0-8.8 7.2-16 16-16H1024c8.8 0 16 7.2 16 16v448c0 8.8-7.2 16-16 16z m-363.2-32H1008v-416H660.8v416zM644.8 927.2H16c-8.8 0-16-7.2-16-16s7.2-16 16-16h628.8c8.8 0 16 7.2 16 16s-7.2 16-16 16zM721.6 829.6c-4.8 0-8-3.2-8-8V724c0-4.8 3.2-8 8-8s8 3.2 8 8v97.6c0 4-4 8-8 8zM608.8 411.2H303.2c-4 0-8.8-1.6-11.2-4.8-3.2-3.2-4.8-7.2-4.8-11.2 1.6-86.4 77.6-156 168.8-156 91.2 0 167.2 70.4 168.8 156 0 4-1.6 8.8-4.8 11.2s-7.2 4.8-11.2 4.8z m-288-32h270.4c-9.6-60.8-67.2-108.8-135.2-108.8s-125.6 47.2-135.2 108.8zM456 270.4c-8.8 0-16-7.2-16-16V20c0-8.8 7.2-16 16-16s16 7.2 16 16v234.4c0 8.8-7.2 16-16 16z" /></svg>