<?xml version="1.0" standalone="no"?><!DOCTYPE svg PUBLIC "-//W3C//DTD SVG 1.1//EN" "http://www.w3.org/Graphics/SVG/1.1/DTD/svg11.dtd"><svg class="icon" width="200px" height="200.00px" viewBox="0 0 1024 1024" version="1.1" xmlns="http://www.w3.org/2000/svg"><path fill="#2c2c2c" d="M591.2 376H20c-8.8 0-16-7.2-16-16s7.2-16 16-16h571.2c8.8 0 16 7.2 16 16s-7.2 16-16 16zM74.4 1024h-1.6c-8.8-0.8-15.2-8.8-14.4-17.6l72-648c0.8-8.8 8.8-15.2 17.6-14.4 8.8 0.8 15.2 8.8 14.4 17.6l-72 648c-0.8 8-8 14.4-16 14.4zM536.8 1024c-8 0-15.2-6.4-16-14.4l-72.8-648c-0.8-8.8 5.6-16.8 14.4-17.6 8.8-0.8 16.8 5.6 17.6 14.4l72 648c0.8 8.8-5.6 16.8-14.4 17.6h-0.8zM1004 628H655.2c-8.8 0-16-7.2-16-16s7.2-16 16-16h348.8c8.8 0 16 7.2 16 16s-7.2 16-16 16zM688 1024h-1.6c-8.8-0.8-15.2-8.8-14.4-17.6l44-396c0.8-8.8 8.8-15.2 17.6-14.4 8.8 0.8 15.2 8.8 14.4 17.6L704 1009.6c-0.8 8-8 14.4-16 14.4zM971.2 1024c-8 0-15.2-6.4-16-14.4l-44-396c-0.8-8.8 5.6-16.8 14.4-17.6 8.8-0.8 16.8 5.6 17.6 14.4l44 396c0.8 8.8-5.6 16.8-14.4 17.6h-1.6zM956 889.6H703.2c-8.8 0-16-7.2-16-16s7.2-16 16-16h252.8c8.8 0 16 7.2 16 16s-7.2 16-16 16zM514.4 820.8H96.8c-8.8 0-16-7.2-16-16s7.2-16 16-16h416.8c8.8 0 16 7.2 16 16s-6.4 16-15.2 16zM956 881.6H703.2c-2.4 0-4.8-0.8-5.6-2.4-1.6-1.6-2.4-4-1.6-6.4l11.2-99.2c0.8-4 4-7.2 8-7.2h230.4c4 0 7.2 3.2 8 7.2l11.2 99.2c0 2.4-0.8 4.8-1.6 6.4-3.2 1.6-4.8 2.4-7.2 2.4z m-244-16h235.2l-9.6-83.2h-216L712 865.6zM514.4 812.8H96.8c-2.4 0-4.8-0.8-6.4-2.4-1.6-1.6-2.4-4-2.4-6.4l12-106.4c0.8-4 4-7.2 8-7.2h393.6c4 0 7.2 3.2 8 7.2l12 106.4c0 2.4-0.8 4.8-1.6 6.4-1.6 1.6-3.2 2.4-5.6 2.4z m-408.8-16h399.2l-10.4-90.4H116l-10.4 90.4z" /></svg>