<?xml version="1.0" standalone="no"?><!DOCTYPE svg PUBLIC "-//W3C//DTD SVG 1.1//EN" "http://www.w3.org/Graphics/SVG/1.1/DTD/svg11.dtd"><svg class="icon" width="200px" height="200.00px" viewBox="0 0 1024 1024" version="1.1" xmlns="http://www.w3.org/2000/svg"><path fill="#2c2c2c" d="M620 560.8H293.6c-33.6 0-60.8-27.2-60.8-60.8v-1.6c0-33.6 27.2-60.8 60.8-60.8h326.4c33.6 0 60.8 27.2 60.8 60.8v1.6c0.8 33.6-27.2 60.8-60.8 60.8zM293.6 468.8c-16 0-28.8 12.8-28.8 28.8v1.6c0 16 12.8 28.8 28.8 28.8h326.4c16 0 28.8-12.8 28.8-28.8v-1.6c0-16-12.8-28.8-28.8-28.8H293.6zM500 734.4H413.6c-8.8 0-16-7.2-16-16V544.8c0-8.8 7.2-16 16-16h86.4c8.8 0 16 7.2 16 16v173.6c0 8.8-7.2 16-16 16z m-70.4-32h54.4V560.8h-54.4v141.6zM456.8 916c-8.8 0-16-7.2-16-16V718.4c0-8.8 7.2-16 16-16s16 7.2 16 16v180.8c0 9.6-7.2 16.8-16 16.8zM632 916c-8.8 0-16-7.2-16-16v-58.4H298.4v58.4c0 8.8-7.2 16-16 16s-16-7.2-16-16v-74.4c0-8.8 7.2-16 16-16H632c8.8 0 16 7.2 16 16v74.4c0 8.8-7.2 16-16 16zM456.8 1020c-35.2 0-64-28.8-64-64.8 0-35.2 28.8-64.8 64-64.8s64 28.8 64 64.8-28.8 64.8-64 64.8z m0-96.8c-17.6 0-32 14.4-32 32.8 0 17.6 14.4 32.8 32 32.8s32-14.4 32-32.8-14.4-32.8-32-32.8zM632 1020c-35.2 0-64-28.8-64-64.8 0-35.2 28.8-64.8 64-64.8s64 28.8 64 64.8c-0.8 36-28.8 64.8-64 64.8z m0-96.8c-17.6 0-32 14.4-32 32.8 0 17.6 14.4 32.8 32 32.8s32-14.4 32-32.8c-0.8-18.4-14.4-32.8-32-32.8zM282.4 1020c-35.2 0-64-28.8-64-64.8 0-35.2 28.8-64.8 64-64.8s64 28.8 64 64.8-28.8 64.8-64 64.8z m0-96.8c-17.6 0-32 14.4-32 32.8 0 17.6 14.4 32.8 32 32.8s32-14.4 32-32.8-14.4-32.8-32-32.8zM665.6 514.4c-8.8 0-16-7.2-16-16s7.2-16 16-16c13.6 0 26.4-6.4 35.2-17.6 8.8-11.2 12-26.4 8-40-12.8-47.2-14.4-97.6-3.2-145.6 1.6-8.8 10.4-14.4 19.2-12 8.8 1.6 14.4 10.4 12 19.2-9.6 43.2-8.8 88 3.2 130.4 6.4 24 1.6 48.8-13.6 68-15.2 18.4-36.8 29.6-60.8 29.6zM720 313.6h-2.4c-28-4.8-52-20.8-68-44.8-20.8-31.2-25.6-74.4-15.2-119.2C654.4 71.2 720.8 8.8 788.8 4c5.6 0 10.4 1.6 13.6 5.6 3.2 4 4.8 8.8 3.2 14.4L736 301.6c-2.4 7.2-8.8 12-16 12zM768 40c-45.6 14.4-88.8 61.6-102.4 117.6-8.8 35.2-4.8 69.6 10.4 93.6 8 12.8 19.2 21.6 32 26.4L768 40z" /></svg>