<?xml version="1.0" standalone="no"?><!DOCTYPE svg PUBLIC "-//W3C//DTD SVG 1.1//EN" "http://www.w3.org/Graphics/SVG/1.1/DTD/svg11.dtd"><svg class="icon" width="200px" height="200.00px" viewBox="0 0 1024 1024" version="1.1" xmlns="http://www.w3.org/2000/svg"><path fill="#2c2c2c" d="M653.6 1020H370.4c-8.8 0-16-7.2-16-16s7.2-16 16-16h284c8.8 0 16 7.2 16 16s-8 16-16.8 16zM512 1020c-8.8 0-16-7.2-16-16v-680c0-8.8 7.2-16 16-16s16 7.2 16 16v680c0 8.8-7.2 16-16 16zM512 225.6c-8.8 0-16-7.2-16-16v-59.2c0-8.8 7.2-16 16-16s16 7.2 16 16v59.2c0 8.8-7.2 16-16 16zM423.2 368c-57.6 0-104.8-62.4-104.8-138.4 0-8.8 7.2-16 16-16s16 7.2 16 16c0 58.4 32.8 106.4 72.8 106.4 12.8 0 24.8-12 32.8-21.6 5.6-7.2 15.2-8 22.4-2.4 7.2 5.6 8 15.2 2.4 22.4-16.8 21.6-36.8 33.6-57.6 33.6zM600.8 368c-20.8 0-40.8-12-57.6-34.4-5.6-7.2-4-16.8 2.4-22.4 7.2-5.6 16.8-4 22.4 2.4 8 9.6 20 21.6 32.8 21.6 40 0 72.8-48 72.8-106.4 0-8.8 7.2-16 16-16s16 7.2 16 16c0 77.6-47.2 139.2-104.8 139.2zM564 340h-104c-8.8 0-16-7.2-16-16v-112c0-8.8 7.2-16 16-16h104c8.8 0 16 7.2 16 16v112.8c0 8-7.2 15.2-16 15.2z m-88-32h72v-80h-72v80zM512 162.4c-43.2 0-79.2-35.2-79.2-79.2S468 4 512 4s79.2 35.2 79.2 79.2c0 43.2-36 79.2-79.2 79.2z m0-126.4c-25.6 0-47.2 20.8-47.2 47.2 0 25.6 20.8 47.2 47.2 47.2 25.6 0 47.2-20.8 47.2-47.2 0-26.4-21.6-47.2-47.2-47.2z" /></svg>