<?xml version="1.0" standalone="no"?><!DOCTYPE svg PUBLIC "-//W3C//DTD SVG 1.1//EN" "http://www.w3.org/Graphics/SVG/1.1/DTD/svg11.dtd"><svg class="icon" width="200px" height="200.00px" viewBox="0 0 1024 1024" version="1.1" xmlns="http://www.w3.org/2000/svg"><path fill="#2c2c2c" d="M815.2 1020H208.8c-8.8 0-16-7.2-16-16V20c0-8.8 7.2-16 16-16H816c8.8 0 16 7.2 16 16v984c-0.8 8.8-8 16-16.8 16z m-590.4-32H800V36H224.8v952zM815.2 1012H208.8c-4.8 0-8-3.2-8-8V285.6c0-4.8 3.2-8 8-8H816c4.8 0 8 3.2 8 8v718.4c-0.8 4.8-4 8-8.8 8z m-598.4-16H808V293.6H216.8v702.4zM512 293.6H208.8c-4.8 0-8-3.2-8-8V20c0-4.8 3.2-8 8-8H512c4.8 0 8 3.2 8 8v265.6c0 4.8-3.2 8-8 8z m-295.2-16H504V28H216.8v249.6zM815.2 293.6H512c-4.8 0-8-3.2-8-8V20c0-4.8 3.2-8 8-8h303.2c4.8 0 8 3.2 8 8v265.6c0 4.8-3.2 8-8 8z m-295.2-16h287.2V28H520v249.6zM290.4 697.6c-4.8 0-8-3.2-8-8V600c0-4.8 3.2-8 8-8s8 3.2 8 8v89.6c0 4.8-4 8-8 8zM696.8 204h-65.6c-4.8 0-8-3.2-8-8s3.2-8 8-8h65.6c4.8 0 8 3.2 8 8s-4 8-8 8zM392.8 204h-65.6c-4.8 0-8-3.2-8-8s3.2-8 8-8h65.6c4.8 0 8 3.2 8 8s-3.2 8-8 8zM896.8 36H127.2c-8.8 0-16-7.2-16-16s7.2-16 16-16h769.6c8.8 0 16 7.2 16 16s-7.2 16-16 16zM896.8 1020H127.2c-8.8 0-16-7.2-16-16s7.2-16 16-16h769.6c8.8 0 16 7.2 16 16s-7.2 16-16 16z" /></svg>