<?xml version="1.0" standalone="no"?><!DOCTYPE svg PUBLIC "-//W3C//DTD SVG 1.1//EN" "http://www.w3.org/Graphics/SVG/1.1/DTD/svg11.dtd"><svg class="icon" width="200px" height="200.00px" viewBox="0 0 1024 1024" version="1.1" xmlns="http://www.w3.org/2000/svg"><path fill="#2c2c2c" d="M1004 1020H20c-8.8 0-16-7.2-16-16V545.6c0-8.8 7.2-16 16-16h984c8.8 0 16 7.2 16 16v458.4c0 8.8-7.2 16-16 16z m-968-32h952V561.6H36v426.4zM328 1012H20c-4.8 0-8-3.2-8-8V774.4c0-4.8 3.2-8 8-8H328c4.8 0 8 3.2 8 8v229.6c0 4.8-3.2 8-8 8z m-300-16H320V782.4H28v213.6zM1004 1012h-304c-4.8 0-8-3.2-8-8V545.6c0-4.8 3.2-8 8-8h304c4.8 0 8 3.2 8 8v458.4c0 4.8-3.2 8-8 8z m-296-16h288V553.6h-288v442.4zM328 782.4H20c-4.8 0-8-3.2-8-8V545.6c0-4.8 3.2-8 8-8H328c4.8 0 8 3.2 8 8v229.6c0 4-3.2 7.2-8 7.2z m-300-16H320V553.6H28v212.8zM700 1012H328c-4.8 0-8-3.2-8-8V545.6c0-4.8 3.2-8 8-8h372c4.8 0 8 3.2 8 8v458.4c0 4.8-3.2 8-8 8z m-364-16h356V553.6H336v442.4zM218.4 705.6h-88c-4.8 0-8-3.2-8-8s3.2-8 8-8h88c4.8 0 8 3.2 8 8 0 4-4 8-8 8zM218.4 860h-88c-4.8 0-8-3.2-8-8s3.2-8 8-8h88c4.8 0 8 3.2 8 8 0 4-4 8-8 8zM777.6 826.4c-4.8 0-8-3.2-8-8v-88c0-4.8 3.2-8 8-8s8 3.2 8 8v88c0 4.8-4 8-8 8zM575.2 226.4H448.8c-8.8 0-16-7.2-16-16V20c0-8.8 7.2-16 16-16h126.4c8.8 0 16 7.2 16 16v190.4c0 8.8-7.2 16-16 16z m-110.4-32h94.4V36H464.8v158.4zM652.8 329.6H371.2c-6.4 0-11.2-3.2-14.4-8.8-2.4-5.6-2.4-12 1.6-16.8l78.4-104.8c3.2-4 8-6.4 12.8-6.4H576c4.8 0 9.6 2.4 12.8 6.4L666.4 304c4 4.8 4 11.2 1.6 16.8-3.2 4.8-8.8 8.8-15.2 8.8z m-250.4-32h218.4L567.2 224H456.8l-54.4 73.6z" /></svg>