<?xml version="1.0" standalone="no"?><!DOCTYPE svg PUBLIC "-//W3C//DTD SVG 1.1//EN" "http://www.w3.org/Graphics/SVG/1.1/DTD/svg11.dtd"><svg class="icon" width="200px" height="200.00px" viewBox="0 0 1024 1024" version="1.1" xmlns="http://www.w3.org/2000/svg"><path d="M881.8 64H468.1c-33.2 0-60.1 26.9-60.1 60.1v211.1c0 28.5-8.5 54.6-33.4 68.3L212 492.2C82.1 563 42.2 730.6 126.1 852.2c66.2 96 190.1 133.2 298.3 89.5l317.2-128.1C862.7 764.8 942 647.2 942 516.5V124.2c0-33.3-26.9-60.2-60.2-60.2z" fill="#FFFFFF" /><path d="M881.8 112.6c6.4 0 11.6 5.2 11.6 12.1v391.9c0 111.4-66.8 210.4-170.1 252.1L406.2 896.8c-24 9.7-49.2 14.6-75 14.6-66 0-127.7-32.4-165.1-86.7-32.2-46.7-43.1-105.1-30-160.3 13.1-55.2 49.2-102.4 99-129.5l162.6-88.7c21.9-12 58.7-42.3 58.7-110.9V124.1c0-6.4 5.2-11.6 11.6-11.6h413.8m0-48.5H468.1c-33.2 0-60.1 26.9-60.1 60.1v211.1c0 28.5-8.5 54.6-33.4 68.3L212 492.2C82.1 563 42.2 730.6 126.1 852.2c47.6 69 125.1 107.7 205.1 107.7 31.2 0 62.8-5.9 93.2-18.1l317.2-128.1C862.7 764.8 942 647.2 942 516.5V124.2c0-33.3-26.9-60.2-60.2-60.2z" fill="#15927F" /><path d="M942 431v85.4c0 130.7-79.3 248.3-200.5 297.3l-4.7 1.9c-38.4-41-61.8-96.4-61.8-156.9 0-127.3 103.3-230.6 230.6-230.6 12.4 0 24.5 1 36.4 2.9z" fill="#F0F4C3" /><path d="M905.6 464.5v51.9c0 109.3-61.4 207.1-158.3 254.8-23.3-32.6-35.9-71.7-35.9-112.5 0-107 87.1-194.2 194.2-194.2m0-36.4C778.2 428.1 675 531.4 675 658.7c0 60.6 23.4 115.9 61.8 156.9l4.7-1.9C862.7 764.8 942 647.2 942 516.5V431c-11.9-1.9-24-2.9-36.4-2.9z" fill="#15927F" /><path d="M456.5 768c0 71.5-26.9 136.7-71.1 185.9-18 4.1-36.2 6.1-54.3 6.1-80 0-157.4-38.7-205-107.8C42.2 730.6 82 563 211.8 492.2l1.7-1c137 17.8 243 134.9 243 276.8z" fill="#F0F4C3" /><path d="M220.6 529.2C335.1 549.7 420.1 650.4 420.1 768c0 55.8-19.2 109.6-54.2 152.7-11.3 1.9-23 2.9-34.8 2.9-69.9 0-135.3-34.4-175-92-34.2-49.6-45.8-111.6-31.8-170.1 13.1-55.2 48-103 96.3-132.3m-7.1-38l-1.7 1C82 563 42.2 730.6 126.1 852.2c47.6 69.1 125 107.8 205 107.8 18.1 0 36.3-1.9 54.3-6.1 44.2-49.3 71.1-114.5 71.1-185.9 0-141.9-106-259-243-276.8zM911.6 205.1H443.1c-10.1 0-18.2-8.1-18.2-18.2s8.1-18.2 18.2-18.2h468.6c10.1 0 18.2 8.1 18.2 18.2-0.1 10-8.2 18.2-18.3 18.2zM911.6 290.1H443.1c-10.1 0-18.2-8.1-18.2-18.2s8.1-18.2 18.2-18.2h468.6c10.1 0 18.2 8.1 18.2 18.2s-8.2 18.2-18.3 18.2z" fill="#15927F" /></svg>