<?xml version="1.0" standalone="no"?><!DOCTYPE svg PUBLIC "-//W3C//DTD SVG 1.1//EN" "http://www.w3.org/Graphics/SVG/1.1/DTD/svg11.dtd"><svg class="icon" width="200px" height="200.00px" viewBox="0 0 1024 1024" version="1.1" xmlns="http://www.w3.org/2000/svg"><path d="M771 105c-10.2-7.9-36.5-26.9-81-26.9S578.8 89.3 578.8 156s74.2 77.7 74.2 77.7 27 49.2 25.9 89.2c-2.2 76-66.3 111.2-166.9 111.2s-164.6-35.3-166.9-111.2c-1.1-40.1 25.9-89.2 25.9-89.2s74.2-10.9 74.2-77.7S378.5 78.1 334 78.1s-70.8 19-81 26.9C174.7 165.6 67 360.1 67 634.4c0 245.8 199.2 311.5 445 311.5s445-65.7 445-311.5c0-274.3-107.7-468.8-186-529.4z" fill="#FFFFFF" /><path d="M690 122.6c27.7 0 44 10.1 53.8 17.6 21 16.2 40.2 41.3 52.5 59.5 20.7 30.5 39.5 66.3 55.8 106.5 27.5 67.9 60.4 179.9 60.4 328.1 0 51.5-9.9 95.5-29.4 130.8-17.9 32.3-43.7 58.1-78.9 78.7-33.8 19.8-76.6 34.6-127.2 44.1-47.1 8.9-102.6 13.3-165 13.3s-117.9-4.5-165-13.3c-50.6-9.5-93.4-24.4-127.2-44.1-35.2-20.6-61-46.4-78.9-78.7-19.5-35.3-29.4-79.3-29.4-130.8 0-148.2 32.8-260.2 60.4-328.1 16.3-40.2 35.1-76.1 55.8-106.5 22.4-32.9 40.9-50.5 52.5-59.5 9.8-7.6 26.1-17.7 53.8-17.7 21.9 0 40.5 3.3 52.4 9.2 10.7 5.4 14.3 11.5 14.3 24.2 0 11.2-4 18.4-13.9 24.7-9.8 6.3-20.7 8.6-22.5 8.9l-21.3 2.6-11 19.9c-3.4 6.1-32.8 61.2-31.4 111.9 0.8 25.9 7 49.5 18.6 70 11.4 20.2 27.8 37.2 48.6 50.4 35.6 22.6 84.1 34.1 144.2 34.1 60 0 108.5-11.5 144.2-34.1 20.9-13.2 37.2-30.2 48.6-50.4 11.6-20.5 17.8-44.1 18.6-70 1.4-50.7-28-105.8-31.4-111.9l-10.7-19.4-21.9-3.2c-0.1 0-10.8-2-20.8-8-13.5-8.1-15.4-17.1-15.4-25.6 0-12.7 3.6-18.8 14.3-24.2 12-5.7 30.6-9 52.5-9m0-44.5c-44.5 0-111.2 11.1-111.2 77.9s74.2 77.7 74.2 77.7 27 49.2 25.9 89.2c-2.2 76-66.3 111.2-166.9 111.2s-164.6-35.3-166.9-111.2c-1.1-40.1 25.9-89.2 25.9-89.2s74.2-10.9 74.2-77.7S378.5 78.1 334 78.1s-70.8 19-81 26.9C174.7 165.6 67 360.1 67 634.4c0 245.8 199.2 311.5 445 311.5s445-65.7 445-311.5c0-274.2-107.7-468.8-186-529.3-10.2-8-36.5-27-81-27z" fill="#15927F" /><path d="M512 767.9c-30.7 0-55.6-25-55.6-55.6 0-6.1 5-11.1 11.1-11.1s11.1 5 11.1 11.1c0 18.4 15 33.4 33.4 33.4s33.4-15 33.4-33.4c0-6.1 5-11.1 11.1-11.1s11.1 5 11.1 11.1c0 30.6-24.9 55.6-55.6 55.6z" fill="#15927F" /><path d="M400.8 623.2m-33.4 0a33.4 33.4 0 1 0 66.8 0 33.4 33.4 0 1 0-66.8 0Z" fill="#15927F" /><path d="M623.2 623.2m-33.4 0a33.4 33.4 0 1 0 66.8 0 33.4 33.4 0 1 0-66.8 0Z" fill="#15927F" /><path d="M356.2 678.9h-44.5c-12.3 0-22.2 10-22.2 22.2 0 12.3 10 22.2 22.2 22.2h44.5c12.3 0 22.2-10 22.2-22.2 0.1-12.3-9.9-22.2-22.2-22.2zM712.2 678.9h-44.5c-12.3 0-22.2 10-22.2 22.2 0 12.3 10 22.2 22.2 22.2h44.5c12.3 0 22.2-10 22.2-22.2 0.1-12.3-9.9-22.2-22.2-22.2z" fill="#F0F4C3" /></svg>