<?xml version="1.0" standalone="no"?><!DOCTYPE svg PUBLIC "-//W3C//DTD SVG 1.1//EN" "http://www.w3.org/Graphics/SVG/1.1/DTD/svg11.dtd"><svg class="icon" width="200px" height="200.00px" viewBox="0 0 1024 1024" version="1.1" xmlns="http://www.w3.org/2000/svg"><path d="M233.5 233.5m-169.5 0a169.5 169.5 0 1 0 339 0 169.5 169.5 0 1 0-339 0Z" fill="#F0F4C3" /><path d="M233.5 100.3c73.4 0 133.2 59.7 133.2 133.2S307 366.7 233.5 366.7 100.3 307 100.3 233.5s59.8-133.2 133.2-133.2m0-36.3C139.9 64 64 139.9 64 233.5S139.9 403 233.5 403 403 327.1 403 233.5 327.1 64 233.5 64z" fill="#15927F" /><path d="M790.5 233.5m-169.5 0a169.5 169.5 0 1 0 339 0 169.5 169.5 0 1 0-339 0Z" fill="#F0F4C3" /><path d="M790.5 100.3c73.4 0 133.2 59.7 133.2 133.2S864 366.7 790.5 366.7 657.3 307 657.3 233.5 717 100.3 790.5 100.3m0-36.3C696.9 64 621 139.9 621 233.5S696.9 403 790.5 403 960 327.1 960 233.5 884.1 64 790.5 64z" fill="#15927F" /><path d="M923.2 584.6C935.3 378.9 899 148.9 512 148.8h-0.4c-387 0.2-423.3 230.1-411.2 435.9C27.7 863 284.3 959.9 511.6 960h0.4c227.3-0.1 483.8-97 411.2-375.4z" fill="#FFFFFF" /><path d="M510.9 197.2h1c137.1 0.1 235.7 30.9 293 91.7 72.7 77.1 75.5 197 69.9 292.9l-0.5 7.7 1.9 7.4c20.8 79.7 11.7 145.5-26.9 195.6-57.3 74.2-182.8 118.7-335.9 119.1h-2c-153.8-0.1-280-44.6-337.5-119.1-38.7-50.1-47.7-115.9-26.9-195.6l1.9-7.4-0.5-7.7C143 486 145.9 366 218.6 288.9c57.2-60.7 155.5-91.5 292.3-91.7m1.1-48.4h-0.4c-387 0.2-423.3 230.1-411.2 435.9C27.7 863 284.3 959.9 511.6 960h0.4c227.3-0.1 483.8-97 411.2-375.3C935.3 378.9 899 148.9 512 148.8z" fill="#15927F" /><path d="M221.4 796.5a290.6 163.5 0 1 0 581.2 0 290.6 163.5 0 1 0-581.2 0Z" fill="#F0F4C3" /><path d="M512 669.4c71.5 0 138.1 15.3 187.7 43.2 42.3 23.8 66.6 54.4 66.6 83.9 0 29.5-24.3 60.1-66.6 83.9-49.5 27.9-116.2 43.2-187.7 43.2s-138.1-15.3-187.7-43.2c-42.3-23.8-66.6-54.4-66.6-83.9 0-29.5 24.3-60.1 66.6-83.9 49.6-27.8 116.2-43.2 187.7-43.2m0-36.3c-160.5 0-290.6 73.2-290.6 163.5S351.5 960 512 960s290.6-73.2 290.6-163.5S672.5 633.1 512 633.1z" fill="#15927F" /><path d="M390.9 437.6m-36.3 0a36.3 36.3 0 1 0 72.6 0 36.3 36.3 0 1 0-72.6 0Z" fill="#15927F" /><path d="M633.1 437.6m-36.3 0a36.3 36.3 0 1 0 72.6 0 36.3 36.3 0 1 0-72.6 0Z" fill="#15927F" /><path d="M342.5 498.1h-48.4c-13.4 0-24.2 10.8-24.2 24.2 0 13.4 10.8 24.2 24.2 24.2h48.4c13.4 0 24.2-10.8 24.2-24.2 0-13.3-10.8-24.2-24.2-24.2z" fill="#F0F4C3" /><path d="M729.9 498.1h-48.4c-13.4 0-24.2 10.8-24.2 24.2 0 13.4 10.8 24.2 24.2 24.2h48.4c13.4 0 24.2-10.8 24.2-24.2 0.1-13.3-10.8-24.2-24.2-24.2z" fill="#F0F4C3" /><path d="M621 584.6c0 26.7-48.8 109-109 109s-109-82.2-109-109c0-26.7 48.8-48.4 109-48.4s109 21.7 109 48.4z" fill="#15927F" /><path d="M512 838.9c-10 0-18.2-8.1-18.2-18.2V663.4c0-10 8.1-18.2 18.2-18.2 10 0 18.2 8.1 18.2 18.2v157.4c0 10-8.2 18.1-18.2 18.1z" fill="#15927F" /><path d="M512 838.9c-57.6 0-103.8-25.4-105.7-26.5-8.8-4.9-11.9-16-7-24.7 4.9-8.8 16-11.9 24.7-7 0.4 0.2 40.2 21.9 88 21.9s87.7-21.7 88-21.9c8.8-4.8 19.8-1.7 24.7 7.1 4.9 8.8 1.7 19.8-7 24.7-1.9 1-48.1 26.4-105.7 26.4z" fill="#15927F" /></svg>