<?xml version="1.0" standalone="no"?><!DOCTYPE svg PUBLIC "-//W3C//DTD SVG 1.1//EN" "http://www.w3.org/Graphics/SVG/1.1/DTD/svg11.dtd"><svg class="icon" width="200px" height="200.00px" viewBox="0 0 1024 1024" version="1.1" xmlns="http://www.w3.org/2000/svg"><path d="M925.9 301L678.4 73.3c-6.5-5.9-15-9.3-23.8-9.3H369.4c-8.8 0-17.3 3.4-23.8 9.3L98.1 301c-7.5 6.9-11.2 16.8-9.9 26.9l20.4 157c3.4 12.3 15.6 19.8 28.1 17.6l98.6-17.7-92.1 299.4c-2.6 8.4-1.9 17.7 2.2 25.6l13.6 27.3c2.8 5.5 4.2 11.7 4.2 17.9v60.4c0 8.4 5.8 15.5 13.9 17.3L302 959.5c5.7 1.2 11.5-0.5 15.8-4.4L512 781l194.1 174.1c4.2 4 10.1 5.7 15.8 4.4l124.9-26.8c8.2-1.8 13.9-8.9 13.9-17.3V855c0-6.3 1.4-12.4 4.2-17.9l13.6-27.3c4.1-7.9 4.8-17.2 2.2-25.6l-92.1-299.4 98.6 17.7c12.5 2.3 24.8-5.3 28.1-17.6l20.4-157c1.4-10.1-2.3-20-9.8-26.9z" fill="#FFFFFF" /><path d="M649.6 112.1l237.3 218.4-15.7 120.3-74.2-13.3-77.7-13.9 23.2 75.4L833 793.2l-11.2 22.5a88.46 88.46 0 0 0-9.3 39.4v35.8L727 909.3 544.1 745.2 512 716.4l-32.1 28.8L297 909.3l-85.6-18.4v-35.8c0-13.6-3.2-27.3-9.2-39.4L191 793.1 281.4 499l23.2-75.4-77.7 13.9-74.2 13.3L137 330.5l237.3-218.4h275.3m5-48.1H369.4c-8.8 0-17.3 3.4-23.8 9.3L98.1 301c-7.5 6.9-11.2 16.8-9.9 26.9l20.4 157c3 10.8 12.8 18 23.7 18 1.5 0 3-0.1 4.5-0.4l98.6-17.7-92.1 299.4c-2.6 8.4-1.9 17.7 2.2 25.6l13.6 27.3c2.8 5.5 4.2 11.7 4.2 17.9v60.4c0 8.4 5.8 15.5 13.9 17.3l124.9 26.8c1.2 0.3 2.4 0.4 3.6 0.4 4.5 0 8.8-1.7 12.1-4.8L512 781l194.1 174.1c3.3 3.1 7.7 4.8 12.1 4.8 1.2 0 2.4-0.1 3.6-0.4l124.9-26.8c8.2-1.8 13.9-8.9 13.9-17.3V855c0-6.3 1.4-12.4 4.2-17.9l13.6-27.3c4.1-7.9 4.8-17.2 2.2-25.6l-92.1-299.4 98.6 17.7c1.5 0.3 3 0.4 4.5 0.4 10.9 0 20.7-7.2 23.7-18l20.4-157c1.3-10.1-2.4-20.1-9.9-26.9L678.4 73.3c-6.5-5.9-15-9.3-23.8-9.3z" fill="#15927F" /><path d="M530 773.5c-4.6 0-9.2-1.8-12.8-5.3-7.9-7.9-15.3-15-22.4-21.8-25.8-24.6-48-45.9-65-78.9-58.5-113.5-73.3-286.2 25.7-416 37.4-49.1 89.9-88.5 151.8-114 9.3-3.8 19.8 0.6 23.5 9.8 3.8 9.2-0.6 19.8-9.8 23.5-56 23-103.3 58.5-136.8 102.5-89 116.7-74 277.5-22.4 377.6 14.2 27.6 33.5 46 57.9 69.4 7.3 7 14.9 14.3 23 22.3 7 7 7 18.5 0 25.5-3.4 3.6-8 5.4-12.7 5.4z" fill="#15927F" /><path d="M715.8 110.4c-8.9 61.6-96.6 109.9-203.6 109.9-108.5 0-197.2-49.8-203.9-112.6l37.5-34.5c6.5-5.9 15-9.3 23.8-9.3h282.1c8.8 0 17.3 3.4 23.8 9.3l40.3 37.2z" fill="#F0F4C3" /><path d="M651.3 100.1l22.9 21.1c-19.2 32.8-81.4 63.1-162 63.1-82.8 0-145.4-31.3-163.2-65l20.9-19.2h281.4m0.4-36.1H369.6c-8.8 0-17.3 3.4-23.8 9.3l-37.5 34.5c6.7 62.8 95.5 112.6 203.9 112.6 107 0 194.7-48.3 203.6-109.9l-40.3-37.2c-6.5-5.9-15.1-9.3-23.8-9.3z" fill="#15927F" /><path d="M512 460.8m-36.1 0a36.1 36.1 0 1 0 72.2 0 36.1 36.1 0 1 0-72.2 0Z" fill="#15927F" /><path d="M361.7 893.7c-1.3 0-2.5-0.1-3.8-0.4l-168.3-36.1c-9.7-2.1-15.9-11.7-13.9-21.4 2.1-9.7 11.7-15.9 21.4-13.9L365.5 858c9.7 2.1 15.9 11.7 13.9 21.4-1.9 8.5-9.4 14.3-17.7 14.3zM662.3 893.7c-8.3 0-15.8-5.8-17.6-14.3-2.1-9.7 4.1-19.3 13.9-21.4l168.3-36c9.8-2.1 19.3 4.1 21.4 13.9 2.1 9.7-4.1 19.3-13.9 21.4l-168.3 36.1c-1.3 0.2-2.6 0.3-3.8 0.3z" fill="#15927F" /></svg>