<?xml version="1.0" standalone="no"?><!DOCTYPE svg PUBLIC "-//W3C//DTD SVG 1.1//EN" "http://www.w3.org/Graphics/SVG/1.1/DTD/svg11.dtd"><svg class="icon" width="200px" height="200.00px" viewBox="0 0 1024 1024" version="1.1" xmlns="http://www.w3.org/2000/svg"><path d="M938.1 695.6V328.4c-0.7-15.6 1.3-31.2 5.7-46.2l16.2-66.1c0-33.1-26.2-60.3-58.4-60.3L801 167.7c-8.2 1.8-16.5 2.8-24.9 2.8H247.9c-8.4 0-16.8-0.9-25-2.8l-100.5-11.8c-32.2 0-58.4 27.2-58.4 60.3l16.2 66.1c4.5 14.9 6.4 30.6 5.7 46.2v367.1c0.7 15.6-1.3 31.2-5.7 46.2l-16.2 66c0 33.1 26.2 60.3 58.4 60.3l54.6-11.8c8.3-1.8 16.7-2.8 25-2.8h574.1c8.4 0 16.8 0.9 24.9 2.8l100.6 11.8c32.2 0 58.4-27.2 58.4-60.3l-16.2-66.1c-4.5-14.9-6.4-30.5-5.7-46.1z" fill="#FFFFFF" /><path d="M903.3 202c4.9 0.8 9 5 10.3 10.5l-14.2 57.8c-5.6 19.2-8.1 39.1-7.3 59.1v365.2c-0.8 20 1.7 39.9 7.3 59.1l14.2 57.8c-1.3 5.5-5.4 9.7-10.3 10.5l-94.7-11.1c-10.6-2.2-21.5-3.3-32.5-3.3H202c-11.7 0-23.5 1.3-34.8 3.8l-47.8 10.4c-4.3-1.3-7.8-5.2-9-10.2l14.2-57.8c5.6-19.2 8.1-39.1 7.3-59.1V329.4c0.8-20-1.7-39.9-7.3-59.1l-14.2-57.8c1.3-5.5 5.4-9.7 10.3-10.5l94.6 11.1c10.7 2.2 21.6 3.3 32.5 3.3H776c10.9 0 21.9-1.1 32.5-3.3l94.8-11.1m-1.7-46.1L801 167.7c-8.2 1.8-16.5 2.8-24.9 2.8H247.9c-8.4 0-16.8-0.9-25-2.8l-100.5-11.8c-32.2 0-58.4 27.2-58.4 60.3l16.2 66.1c4.5 14.9 6.4 30.6 5.7 46.2v367.1c0.7 15.6-1.3 31.2-5.7 46.2l-16.2 66c0 33.1 26.2 60.3 58.4 60.3l54.6-11.8c8.3-1.8 16.7-2.8 25-2.8h574.1c8.4 0 16.8 0.9 24.9 2.8l100.6 11.8c32.2 0 58.4-27.2 58.4-60.3l-16.2-66.1c-4.5-14.9-6.4-30.6-5.7-46.2V328.4c-0.7-15.6 1.3-31.2 5.7-46.2l16.2-66.1c0-33-26.2-60.2-58.4-60.2z" fill="#15927F" /><path d="M756.6 642.3c-1.8 14.4-13.3 25.8-27.7 27-66.8 5.7-139.4 9.3-216.9 9.3-66.8 0-139.3-2.6-216.8-9.3-14.4-1.2-26-12.4-27.8-26.8-4.9-38.8-8.1-82.6-8.1-130.5 0-38.5 2.1-82.3 8.1-130.3 1.8-14.4 13.3-25.8 27.7-27 66.8-5.7 139.4-9.3 216.9-9.3 66.8 0 139.3 2.6 216.8 9.3 14.4 1.2 26 12.4 27.8 26.8 4.9 38.8 8.1 82.6 8.1 130.5 0 38.5-2.1 82.3-8.1 130.3z" fill="#F0F4C3" /><path d="M512 379.9c70.1 0 140.9 3 210.8 8.9 5 40.7 7.5 82.2 7.5 123.2s-2.5 82.5-7.5 123.2c-69.8 5.9-140.7 8.9-210.8 8.9-70.1 0-140.9-3-210.8-8.9-5-40.7-7.5-82.2-7.5-123.2s2.5-82.5 7.5-123.2c69.9-5.9 140.8-8.9 210.8-8.9m0-34.5c-77.5 0-150.1 3.6-216.9 9.3-14.5 1.2-25.9 12.6-27.7 27-6 47.9-8.1 91.8-8.1 130.3 0 47.9 3.3 91.7 8.1 130.5 1.8 14.3 13.4 25.5 27.8 26.8 77.4 6.6 150 9.3 216.8 9.3 77.5 0 150.1-3.6 216.9-9.3 14.5-1.2 25.9-12.6 27.7-27 6-47.9 8.1-91.8 8.1-130.3 0-47.9-3.3-91.7-8.1-130.5-1.8-14.3-13.4-25.5-27.8-26.8-77.5-6.6-150-9.3-216.8-9.3z" fill="#15927F" /><path d="M283.3 392.5c-4.4 0-8.8-1.7-12.2-5L200 316.4c-6.7-6.7-6.7-17.6 0-24.4 6.7-6.7 17.6-6.7 24.4 0l71.1 71.1c6.7 6.7 6.7 17.6 0 24.4-3.3 3.3-7.8 5-12.2 5zM740.7 392.5c-4.4 0-8.8-1.7-12.2-5-6.7-6.7-6.7-17.6 0-24.4l71.1-71.1c6.7-6.7 17.6-6.7 24.4 0 6.7 6.7 6.7 17.6 0 24.4l-71.1 71.1c-3.4 3.3-7.8 5-12.2 5z" fill="#15927F" /><path d="M811.7 748.6c-4.4 0-8.8-1.7-12.2-5l-71.1-71.1c-6.7-6.7-6.7-17.6 0-24.4 6.7-6.7 17.6-6.7 24.4 0l71.1 71.1c6.7 6.7 6.7 17.6 0 24.4-3.3 3.3-7.7 5-12.2 5zM212.3 748.6c-4.4 0-8.8-1.7-12.2-5-6.7-6.7-6.7-17.6 0-24.4l71.1-71.1c6.7-6.7 17.6-6.7 24.4 0s6.7 17.6 0 24.4l-71.1 71.1c-3.4 3.3-7.8 5-12.2 5z" fill="#15927F" /></svg>