<?xml version="1.0" standalone="no"?><!DOCTYPE svg PUBLIC "-//W3C//DTD SVG 1.1//EN" "http://www.w3.org/Graphics/SVG/1.1/DTD/svg11.dtd"><svg class="icon" width="200px" height="200.00px" viewBox="0 0 1024 1024" version="1.1" xmlns="http://www.w3.org/2000/svg"><path d="M93.7 339c-17.1 0-30.8 19.6-29.6 42.7C80.3 696.5 129 895 512 895s431.7-198.5 447.9-513.3c1.2-23.1-12.5-42.7-29.6-42.7H93.7z" fill="#FFFFFF" /><path d="M911.7 386.9C903.6 537.5 887 653.4 834.2 729 798.9 779.7 727 847.1 512 847.1S225.1 779.7 189.8 729c-52.7-75.6-69.4-191.5-77.5-342.1h799.4m18.6-47.9H93.7c-17.1 0-30.8 19.6-29.6 42.7C80.3 696.5 129 895 512 895s431.7-198.5 447.9-513.3c1.2-23-12.5-42.7-29.6-42.7z" fill="#15927F" /><path d="M413.2 783.8c0 37.1-9.1 72-25.2 102.7-196.2-29.7-270.7-136.4-302.2-298.8 31.3-16.8 67.1-26.3 105-26.3 122.8 0 222.4 99.6 222.4 222.4z" fill="#F0F4C3" /><path d="M190.8 609.3c96.2 0 174.5 78.3 174.5 174.5 0 16.4-2.4 32.8-6.9 48.5-120.4-26.8-184.6-90.7-217.1-215.9 16-4.7 32.7-7.1 49.5-7.1m0-47.9c-37.9 0-73.8 9.5-105 26.3C117.3 750 191.8 856.8 388 886.4c16.1-30.6 25.2-65.6 25.2-102.7 0-122.7-99.6-222.3-222.4-222.3z" fill="#15927F" /><path d="M944.4 388.5H79.6V170c0-22.6 14.9-41 33.2-41h798.4c18.3 0 33.2 18.4 33.2 41v218.5z" fill="#FFFFFF" /><path d="M896.5 176.9v163.7h-769V176.9h769m14.7-47.9H112.8c-18.3 0-33.2 18.4-33.2 41v218.4h864.8V170c0-22.6-14.9-41-33.2-41z" fill="#15927F" /><path d="M938.2 587.7C906.7 750 832.2 856.8 636 886.4c-16.1-30.6-25.2-65.6-25.2-102.7 0-122.8 99.6-222.4 222.4-222.4 37.9 0.1 73.8 9.6 105 26.4z" fill="#F0F4C3" /><path d="M833.2 609.3c16.8 0 33.5 2.4 49.5 7.1-32.5 125.2-96.7 189-217.1 215.9-4.6-15.7-6.9-32.1-6.9-48.5 0-96.2 78.3-174.5 174.5-174.5m0-47.9c-122.8 0-222.4 99.6-222.4 222.4 0 37.1 9.1 72 25.2 102.7 196.2-29.6 270.7-136.4 302.2-298.7-31.2-16.9-67.1-26.4-105-26.4z" fill="#15927F" /><path d="M282.9 277.9H100.7c-9.9 0-18-8-18-18s8-18 18-18h182.2c9.9 0 18 8 18 18s-8.1 18-18 18zM913 277.9H730.7c-9.9 0-18-8-18-18s8-18 18-18H913c9.9 0 18 8 18 18s-8.1 18-18 18z" fill="#15927F" /></svg>