<?xml version="1.0" standalone="no"?><!DOCTYPE svg PUBLIC "-//W3C//DTD SVG 1.1//EN" "http://www.w3.org/Graphics/SVG/1.1/DTD/svg11.dtd"><svg class="icon" width="200px" height="200.00px" viewBox="0 0 1024 1024" version="1.1" xmlns="http://www.w3.org/2000/svg"><path d="M960 556.6c0 239.3-200.6 316.1-448 316.1S64 795.9 64 556.6c0-198 111.5-258.6 290.6-327.8 60.5-23.4 209.8-117.1 244.7-58.5 34.9 58.5-14.6 105.4 23.3 128.8 22.9 14.2 70.8 15.5 105 14.3 22.1-0.8 43.6-7.2 62.2-19.2 25.4-16.3 66.5-37.8 97.6-30.2 48.4 11.6 72.6 70.1 72.6 292.6z" fill="#FFFFFF" /><path d="M559.2 197.8c0.9 0 1.6 0 2.2 0.1 6.4 13.1 5.1 25.1 2.2 43.9-3.6 24.2-10.4 69.1 34.5 96.8 23.5 14.5 59.7 21.6 110.5 21.6 7.1 0 14-0.1 20.5-0.4 30.7-1.1 60.4-10.2 85.8-26.5 28.1-18 48.7-24.4 58.7-24.4 1.6 0 2.5 0.2 2.8 0.2 13.8 3.3 37 39.9 37 247.5 0 95.6-35.6 163.6-108.8 208-67.5 40.9-165.9 61.6-292.7 61.6-126.7 0-225.2-20.7-292.7-61.6-73.2-44.4-108.8-112.4-108.8-208 0-165.4 83.5-215.8 260.8-284.4 15.1-5.8 33.2-14.6 54.1-24.8 40.8-19.7 102.3-49.6 133.9-49.6m0-46.5c-59.1 0-158.1 59.5-204.6 77.5C175.5 298 64 358.6 64 556.6c0 239.3 200.6 316.1 448 316.1s448-76.9 448-316.1c0-222.5-24.2-281-72.6-292.7-4.4-1.1-9-1.5-13.7-1.5-28.7 0-62 17.8-83.9 31.8-18.6 12-40.2 18.4-62.2 19.2-6 0.2-12.3 0.3-18.9 0.3-31.2 0-67.1-2.9-86.1-14.6-37.9-23.4 11.6-70.3-23.3-128.8-8.1-13.6-22.3-19-40.1-19z" fill="#15927F" /><path d="M678.1 466.5c-94.9 0-177.1-31.1-226.2-92.1-31.1-38.7-48.5-90.9-50.4-150.9-0.3-9.6 7.3-17.7 16.9-18 9.6-0.3 17.7 7.3 18 16.9 1.6 52.4 16.4 97.4 42.7 130.1 79.2 98.5 261 106.4 432.3 18.8 8.6-4.4 19.1-1 23.5 7.6 4.4 8.6 1 19.1-7.6 23.5-84.1 42.9-171 64.1-249.2 64.1zM530.8 780.4c-16.5 0-33.2-0.5-50.1-1.5-180.2-10.9-331.9-83.3-381.8-107-8.7-4.2-12.4-14.6-8.2-23.3 4.2-8.7 14.6-12.4 23.3-8.2 48.3 23.1 195.5 93.2 368.9 103.7 166.1 10 310.5-34.7 404.6-69.2 9-3.3 19.1 1.3 22.4 10.4 3.3 9-1.3 19.1-10.4 22.4-87.6 32.1-217.4 72.7-368.7 72.7z" fill="#15927F" /><path d="M523.6 527.3c-34.9 59-135.2 90.2-186.2 58.5-30.1-18.6-30.1-51.3-46.5-105.4-24.9-82.3-63.3-134.8-96.8-176.3 44.1-28.2 98.2-51.3 160.5-75.4 18.5-7.1 45.3-20.8 74.5-34.8 83.7 108.9 140.7 255.3 94.5 333.4z" fill="#F0F4C3" /><path d="M418.1 238c74.1 105.5 106.5 219 75.5 271.5-17.6 29.8-65.1 54-105.8 54-13.2 0-24.2-2.5-32-7.4-9.9-6.1-13.3-16.8-21.2-48.2-2.8-11.1-6-23.6-10.2-37.6-20.1-66.5-48.5-115.2-78.3-156 37.1-19.7 79.7-37 121.1-53.1 14.1-5.3 31.2-13.6 50.9-23.2m10.9-44c-29.2 13.9-56 27.6-74.5 34.8-62.3 24.1-116.4 47.2-160.5 75.4 33.5 41.6 71.9 94 96.8 176.3 16.4 54.1 16.4 86.8 46.5 105.4 13.9 8.6 31.4 12.6 50.3 12.6 50.4 0 110.4-28.2 135.8-71.1 46.4-78.2-10.6-224.6-94.4-333.4z" fill="#15927F" /><path d="M366.6 462.9a34.9 35.1 0 1 0 69.8 0 34.9 35.1 0 1 0-69.8 0Z" fill="#15927F" /></svg>