<?xml version="1.0" standalone="no"?><!DOCTYPE svg PUBLIC "-//W3C//DTD SVG 1.1//EN" "http://www.w3.org/Graphics/SVG/1.1/DTD/svg11.dtd"><svg class="icon" width="200px" height="200.00px" viewBox="0 0 1024 1024" version="1.1" xmlns="http://www.w3.org/2000/svg"><path d="M523.5 960h-22.9c-38 0-68.8-30.8-68.8-68.8V533.5c0-38 30.8-68.8 68.8-68.8h22.9c38 0 68.8 30.8 68.8 68.8v357.6c0 38.1-30.8 68.9-68.8 68.9z" fill="#FFFFFF" /><path d="M523.5 510.6c12.7 0 22.9 10.3 22.9 22.9v357.6c0 12.7-10.3 22.9-22.9 22.9h-22.9c-12.7 0-22.9-10.3-22.9-22.9V533.5c0-12.7 10.3-22.9 22.9-22.9h22.9m0-45.9h-22.9c-38 0-68.8 30.8-68.8 68.8v357.6c0 38 30.8 68.8 68.8 68.8h22.9c38 0 68.8-30.8 68.8-68.8V533.5c0-38-30.8-68.8-68.8-68.8zM139.1 551.7c-9.5 0-17.2-7.7-17.2-17.2V414c0-41.1 33.5-74.6 74.6-74.6h68.8c9.5 0 17.2 7.7 17.2 17.2s-7.7 17.2-17.2 17.2h-68.8c-22.1 0-40.2 18-40.2 40.2v120.5c0 9.5-7.7 17.2-17.2 17.2zM816.1 379.6h-68.8c-9.5 0-17.2-7.7-17.2-17.2s7.7-17.2 17.2-17.2h68.8c22.1 0 40.2-18 40.2-40.2V184.5c0-9.5 7.7-17.2 17.2-17.2s17.2 7.7 17.2 17.2V305c0 41.1-33.5 74.6-74.6 74.6z" fill="#15927F" /><path d="M144.8 534.5m-68.8 0a68.8 68.8 0 1 0 137.6 0 68.8 68.8 0 1 0-137.6 0Z" fill="#FFFFFF" /><path d="M144.8 500c19 0 34.4 15.4 34.4 34.4s-15.4 34.4-34.4 34.4-34.4-15.4-34.4-34.4c0-18.9 15.4-34.4 34.4-34.4m0-34.4c-38 0-68.8 30.8-68.8 68.8s30.8 68.8 68.8 68.8 68.8-30.8 68.8-68.8c0.1-38-30.8-68.8-68.8-68.8z" fill="#15927F" /><path d="M879.2 190.2m-68.8 0a68.8 68.8 0 1 0 137.6 0 68.8 68.8 0 1 0-137.6 0Z" fill="#FFFFFF" /><path d="M879.2 155.8c19 0 34.4 15.4 34.4 34.4s-15.4 34.4-34.4 34.4-34.4-15.4-34.4-34.4 15.4-34.4 34.4-34.4m0-34.4c-38 0-68.8 30.8-68.8 68.8s30.8 68.8 68.8 68.8 68.8-30.8 68.8-68.8-30.8-68.8-68.8-68.8z" fill="#15927F" /><path d="M512 350.9m-286.9 0a286.9 286.9 0 1 0 573.8 0 286.9 286.9 0 1 0-573.8 0Z" fill="#FFFFFF" /><path d="M512 109.9c132.9 0 241 108.1 241 241s-108.1 241-241 241-241-108.1-241-241 108.1-241 241-241m0-45.9c-158.4 0-286.9 128.4-286.9 286.9 0 158.4 128.4 286.9 286.9 286.9s286.9-128.4 286.9-286.9C798.9 192.4 670.4 64 512 64z" fill="#15927F" /><path d="M512 350.9m-218 0a218 218 0 1 0 436 0 218 218 0 1 0-436 0Z" fill="#F0F4C3" /><path d="M512 167.3c101.2 0 183.6 82.4 183.6 183.6S613.2 534.5 512 534.5c-101.2 0-183.6-82.4-183.6-183.6S410.8 167.3 512 167.3m0-34.5c-120.2 0-218 97.8-218 218s97.8 218 218 218 218-97.8 218-218-97.8-218-218-218z" fill="#15927F" /><path d="M563.6 718.1H448.9c-9.5 0-17.2-7.7-17.2-17.2s7.7-17.2 17.2-17.2h114.7c9.5 0 17.2 7.7 17.2 17.2s-7.7 17.2-17.2 17.2z" fill="#15927F" /></svg>