<?xml version="1.0" standalone="no"?><!DOCTYPE svg PUBLIC "-//W3C//DTD SVG 1.1//EN" "http://www.w3.org/Graphics/SVG/1.1/DTD/svg11.dtd"><svg class="icon" width="200px" height="200.00px" viewBox="0 0 1024 1024" version="1.1" xmlns="http://www.w3.org/2000/svg"><path d="M667.4 960H226.8c-62 0-112.7-50.7-112.7-112.7V197.2H780v650.1c0.1 62-50.6 112.7-112.6 112.7z" fill="#FFFFFF" /><path d="M731.7 245.6v601.7c0 35.4-28.8 64.3-64.3 64.3H226.8c-35.4 0-64.3-28.8-64.3-64.3V245.6h569.2m48.4-48.4h-666v650.1c0 62 50.7 112.7 112.7 112.7h440.5c62 0 112.7-50.7 112.7-112.7V197.2h0.1z" fill="#15927F" /><path d="M758.5 289.4H123.6c-31.9 0-57.9-26.1-57.9-57.9V121.9C65.7 90 91.8 64 123.6 64h634.8c31.9 0 57.9 26.1 57.9 57.9v109.6c0.1 31.9-26 57.9-57.8 57.9z" fill="#F0F4C3" /><path d="M758.5 100.3c11.7 0 21.6 9.9 21.6 21.6v109.6c0 11.7-9.9 21.6-21.6 21.6H123.6c-11.7 0-21.6-9.9-21.6-21.6V121.9c0-11.7 9.9-21.6 21.6-21.6h634.9m0-36.3H123.6c-31.9 0-57.9 26.1-57.9 57.9v109.6c0 31.9 26.1 57.9 57.9 57.9h634.8c31.9 0 57.9-26.1 57.9-57.9V121.9c0.1-31.8-26-57.9-57.8-57.9zM593.9 759.4c-3.4 0-6.8-0.9-9.9-2.9-8.4-5.5-10.8-16.7-5.3-25.1l255.9-393c5.5-8.4 16.7-10.8 25.1-5.3s10.8 16.7 5.3 25.1l-255.9 393c-3.5 5.3-9.3 8.2-15.2 8.2z" fill="#15927F" /><path d="M834.081793 372.401475a60.5 94.8 33.073 1 0 103.466073-158.880243 60.5 94.8 33.073 1 0-103.466073 158.880243Z" fill="#FFFFFF" /><path d="M914.2 231.1c4.1 0 7.4 0.9 10.2 2.7 6.3 4.1 9.8 13.6 9.7 26.1-0.1 16.4-6.6 35.7-17.8 52.9-18.8 28.9-43.6 42-58.8 42-4.1 0-7.4-0.9-10.2-2.7-14.4-9.4-14-45.1 8.1-79 18.8-28.9 43.6-42 58.8-42m0-24.2c-26.1 0-57.5 20-79.1 53-28.6 43.9-29 94.2-1 112.5 6.9 4.5 14.9 6.6 23.4 6.6 26.1 0 57.5-20 79.1-53 28.6-43.9 29-94.2 1-112.5-6.9-4.5-14.9-6.6-23.4-6.6z" fill="#15927F" /><path d="M501.497199 883.215893a60.5 94.8 33.073 1 0 103.466073-158.880244 60.5 94.8 33.073 1 0-103.466073 158.880244Z" fill="#FFFFFF" /><path d="M581.6 741.9c4.1 0 7.4 0.9 10.2 2.7 6.3 4.1 9.8 13.6 9.7 26.1-0.1 16.4-6.6 35.7-17.8 52.9-18.8 28.9-43.6 42-58.8 42-4.1 0-7.4-0.9-10.2-2.7-6.3-4.1-9.8-13.6-9.7-26.1 0.1-16.4 6.6-35.7 17.8-52.9 18.8-28.9 43.7-42 58.8-42m0-24.3c-26.1 0-57.5 20-79.1 53-28.6 43.9-29 94.2-1 112.5 6.9 4.5 14.9 6.6 23.4 6.6 26.1 0 57.5-20 79.1-53 28.6-43.9 29-94.2 1-112.5-6.9-4.4-14.9-6.6-23.4-6.6z" fill="#15927F" /><path d="M749.8 363.7H144.4c-10 0-18.2-8.1-18.2-18.2 0-10 8.1-18.2 18.2-18.2h605.4c10 0 18.2 8.1 18.2 18.2 0 10-8.2 18.2-18.2 18.2zM362.4 848h-215c-10 0-18.2-8.1-18.2-18.2s8.1-18.2 18.2-18.2h214.9c10 0 18.2 8.1 18.2 18.2s-8.1 18.2-18.1 18.2z" fill="#15927F" /></svg>