<?xml version="1.0" standalone="no"?><!DOCTYPE svg PUBLIC "-//W3C//DTD SVG 1.1//EN" "http://www.w3.org/Graphics/SVG/1.1/DTD/svg11.dtd"><svg class="icon" width="200px" height="200.00px" viewBox="0 0 1024 1024" version="1.1" xmlns="http://www.w3.org/2000/svg"><path d="M856.6 636.8c0 213-80.2 323.2-342.6 323.2S167.4 849.8 167.4 636.8s81.6-366 343.9-366 345.3 152.9 345.3 366z" fill="#FFFFFF" /><path d="M511.3 316.7c207 0 299.3 98.7 299.3 320.1 0 101-19 167.6-59.9 209.4-44.5 45.7-122 67.9-236.8 67.9-115.3 0-193.5-22.3-239.1-68.2-42-42.2-61.6-108.7-61.6-209.1 0.1-221.4 92-320.1 298.1-320.1m0-45.9c-262.4 0-343.9 152.9-343.9 366 0 213 84.3 323.2 346.6 323.2 262.4 0 342.6-110.2 342.6-323.2 0-213.1-82.9-366-345.3-366z" fill="#15927F" /><path d="M804.9 500.5h-62.1c-14.5 0-28.7-5.4-40.1-15.2l-15.8-13.6c-10.7-9.2-24.5-9.2-35.2 0L636 485.3c-11.4 9.8-25.6 15.2-40.1 15.2h-2.4c-14.5 0-28.7-5.4-40.1-15.2l-15.8-13.6c-10.7-9.2-24.5-9.2-35.2 0l-15.8 13.6c-11.4 9.8-25.6 15.2-40.1 15.2h-2.4c-14.5 0-28.7-5.4-40.1-15.2l-15.8-13.6c-10.7-9.2-24.5-9.2-35.2 0l-15.8 13.6c-11.4 9.8-25.6 15.2-40.1 15.2h-89.8c-9.5 0-17.2-7.7-17.2-17.2s7.7-17.2 17.2-17.2h89.8c6.3 0 12.4-2.4 17.6-6.9l15.8-13.6c23.6-20.4 56.6-20.3 80.2 0l15.8 13.6c5.2 4.5 11.3 6.9 17.6 6.9h2.4c6.3 0 12.4-2.4 17.6-6.9l15.8-13.6c23.6-20.4 56.6-20.4 80.2 0l15.8 13.6c5.2 4.5 11.3 6.9 17.6 6.9h2.4c6.3 0 12.4-2.4 17.6-6.9l15.8-13.6c23.6-20.3 56.6-20.3 80.2 0l15.8 13.6c5.2 4.5 11.3 6.9 17.6 6.9H805c9.5 0 17.2 7.7 17.2 17.2s-7.8 17.2-17.3 17.2z" fill="#15927F" /><path d="M512 282.3c-48.2 0-87.3-39.1-87.3-87.3v-43.7c0-48.2 39.1-87.3 87.3-87.3 48.2 0 87.3 39.1 87.3 87.3V195c0 48.2-39.1 87.3-87.3 87.3z" fill="#FFFFFF" /><path d="M512 109.9c22.8 0 41.4 18.6 41.4 41.4V195c0 22.8-18.6 41.4-41.4 41.4-22.8 0-41.4-18.6-41.4-41.4v-43.7c0-22.8 18.6-41.4 41.4-41.4m0-45.9c-48.2 0-87.3 39.1-87.3 87.3V195c0 48.2 39.1 87.3 87.3 87.3 48.2 0 87.3-39.1 87.3-87.3v-43.7c0-48.2-39.1-87.3-87.3-87.3z" fill="#15927F" /><path d="M512 351.2c-114.9 0-199.3 21.6-246.2 32.1-11.7 2.6-22.4-7-21.2-18.8l9.7-96.9c1.9-18.7 14.9-34.3 32.9-39.6 46.3-13.7 138.9-37.5 224.7-37.5s178.5 23.8 224.7 37.5c18 5.3 31 21 32.9 39.6l9.7 96.9c1.2 11.9-9.5 21.5-21.2 18.8-46.7-10.5-131.1-32.1-246-32.1z" fill="#F0F4C3" /><path d="M512 224.8c81.1 0 169.5 22.6 214.9 36.1 4.6 1.4 7.9 5.3 8.4 10l7.4 73.5c-50.3-11.3-129-27.7-230.7-27.7-101.7 0-180.4 16.4-230.7 27.7l7.4-73.5c0.5-4.7 3.8-8.7 8.4-10 45.4-13.5 133.8-36.1 214.9-36.1m0-34.4c-85.8 0-178.5 23.8-224.7 37.5-18 5.3-31 21-32.9 39.6l-9.7 96.9c-1.1 10.6 7.3 19.3 17.3 19.3 1.3 0 2.6-0.1 3.9-0.4 46.8-10.5 131.3-32.1 246.2-32.1s199.3 21.6 246.2 32.1c1.3 0.3 2.6 0.4 3.9 0.4 10 0 18.4-8.7 17.3-19.3l-9.7-96.9c-1.9-18.7-14.9-34.3-32.9-39.6-46.4-13.8-139.1-37.5-224.9-37.5zM557.9 621.1H190.4c-9.5 0-17.2-7.7-17.2-17.2s7.7-17.2 17.2-17.2H558c9.5 0 17.2 7.7 17.2 17.2s-7.7 17.2-17.3 17.2zM362.7 713H191.8c-9.5 0-17.2-7.7-17.2-17.2s7.7-17.2 17.2-17.2h170.9c9.5 0 17.2 7.7 17.2 17.2s-7.7 17.2-17.2 17.2zM362.7 804.9H214.8c-9.5 0-17.2-7.7-17.2-17.2s7.7-17.2 17.2-17.2h147.9c9.5 0 17.2 7.7 17.2 17.2s-7.7 17.2-17.2 17.2z" fill="#15927F" /></svg>