<?xml version="1.0" standalone="no"?><!DOCTYPE svg PUBLIC "-//W3C//DTD SVG 1.1//EN" "http://www.w3.org/Graphics/SVG/1.1/DTD/svg11.dtd"><svg class="icon" width="200px" height="200.00px" viewBox="0 0 1024 1024" version="1.1" xmlns="http://www.w3.org/2000/svg"><path d="M795.5 676.5C795.5 833.1 668.6 960 512 960S228.5 833.1 228.5 676.5 355.4 392.9 512 392.9s283.5 127 283.5 283.6z m-170.1 0c0-62.5-50.9-113.4-113.4-113.4S398.6 614 398.6 676.5 449.5 789.9 512 789.9 625.4 739 625.4 676.5z" fill="#F0F4C3" /><path d="M512 438.3c131.3 0 238.2 106.8 238.2 238.2S643.3 914.6 512 914.6c-131.3 0-238.2-106.8-238.2-238.2S380.7 438.3 512 438.3m0 396.9c87.6 0 158.8-71.2 158.8-158.8S599.6 517.7 512 517.7c-87.6 0-158.8 71.2-158.8 158.8S424.4 835.2 512 835.2m0-442.3c-156.6 0-283.5 126.9-283.5 283.5S355.4 960 512 960s283.5-126.9 283.5-283.5S668.6 392.9 512 392.9z m0 397c-62.5 0-113.4-50.9-113.4-113.4S449.5 563 512 563s113.4 50.9 113.4 113.4S574.5 789.9 512 789.9z" fill="#15927F" /><path d="M92.4 594.4c0-82.5 187.9-212.8 419.6-212.8s419.6 130.3 419.6 212.8-187.8 97.2-419.6 97.2-419.6-14.8-419.6-97.2z" fill="#FFFFFF" /><path d="M512 426.9c223.1 0 374.3 125.7 374.3 167.4 0 4-14.6 21.8-85.8 34.9-82.3 15.2-204.1 16.9-288.5 16.9s-206.2-1.8-288.5-16.9c-71.2-13.1-85.8-30.9-85.8-34.9 0-41.7 151.2-167.4 374.3-167.4m0-45.3c-231.8 0-419.6 130.3-419.6 212.8s187.9 97.2 419.6 97.2c231.8 0 419.6-14.7 419.6-97.2S743.8 381.6 512 381.6z" fill="#15927F" /><path d="M428.2 546c5.1 3.6 17.6 11.3 83.8 11.3s78.7-7.8 83.8-11.3c18.5-13 36.4-38.7 30.9-58.2-2.5-9-8.4-10.8-15.8-30.3-2.8-7.3-5.1-15.2-6.7-23.5-1.3-6.6-2.1-13-2.5-19.3-2.4-38.3-8.3-74.6 17.9-102.6 26.6-28.4 42.1-67.2 39.5-109.7-4.4-74.5-66.5-135.3-141.1-138.3-84.2-3.3-153.5 63.9-153.5 147.3 0 39 15.2 74.4 40 100.8 26.2 27.9 20.2 64.2 17.8 102.5-0.4 6.2-1.2 12.7-2.5 19.3-1.6 8.4-3.9 16.2-6.7 23.5-7.4 19.5-13.3 21.3-15.8 30.3-5.5 19.5 12.5 45.2 30.9 58.2z" fill="#FFFFFF" /><path d="M512 98c1.5 0 3.1 0 4.7 0.1 57.4 2.3 105.1 49 108.5 106.3 1.9 31.5-8.9 61.4-30.4 84.3-33.7 35.9-30.5 80.5-27.9 116.4 0.3 3.9 0.6 7.7 0.8 11.6 0.5 7.9 1.5 15.9 3.1 23.7 1.9 9.9 4.7 19.7 8.3 29 5.5 14.5 10.9 22.5 14.3 27.4-1.5 4.9-7.8 14.6-16.9 21.1-2.1 0.8-15.8 5.3-64.4 5.3-48.7 0-62.3-4.5-64.4-5.3-9.1-6.5-15.4-16.2-16.9-21.1 3.3-4.9 8.8-12.9 14.3-27.4 3.5-9.4 6.3-19.1 8.3-29 1.5-7.8 2.6-15.8 3.1-23.8 0.2-4 0.5-8 0.8-12 2.6-35.7 5.8-80.1-27.8-115.9-19.8-21.1-30.7-48.6-30.7-77.5C398.6 148.9 449.5 98 512 98m0-34c-81.4 0-147.4 66-147.4 147.4 0 39 15.2 74.4 40 100.8 26.2 27.9 20.2 64.2 17.8 102.5-0.4 6.2-1.2 12.7-2.5 19.3-1.6 8.4-3.9 16.2-6.7 23.5-7.4 19.5-13.3 21.3-15.8 30.3-5.5 19.5 12.4 45.3 30.9 58.2 5.1 3.6 17.6 11.3 83.8 11.3 66.2 0 78.7-7.8 83.8-11.3 18.5-13 36.4-38.7 30.9-58.2-2.5-9-8.4-10.8-15.8-30.3-2.8-7.3-5.1-15.2-6.7-23.5-1.3-6.6-2.1-13-2.5-19.3-2.4-38.3-8.3-74.6 17.9-102.6 26.6-28.4 42.1-67.2 39.5-109.7-4.5-74.5-66.6-135.3-141.2-138.3-2-0.1-4-0.1-6-0.1z" fill="#15927F" /></svg>