<?xml version="1.0" standalone="no"?><!DOCTYPE svg PUBLIC "-//W3C//DTD SVG 1.1//EN" "http://www.w3.org/Graphics/SVG/1.1/DTD/svg11.dtd"><svg class="icon" width="200px" height="200.00px" viewBox="0 0 1024 1024" version="1.1" xmlns="http://www.w3.org/2000/svg"><path d="M565.1 511.2c0 127 44.5 248.3 165.1 248.3s212.2-140.2 212.2-267.1-50.5-192.6-171.1-192.6-206.2 84.5-206.2 211.4z" fill="#FFFFFF" /><path d="M771.3 346.9c45.3 0 76.3 10.6 94.9 32.3 19.2 22.4 29 60.5 29 113.2 0 52.5-19.3 109.7-51.5 153-18.7 25-58.2 67-113.5 67-38.8 0-66.3-16.7-86.7-52.7-20.1-35.5-31.2-88.2-31.2-148.5-0.1-99.8 62.3-164.3 159-164.3m0-47.1c-120.5 0-206.2 84.5-206.2 211.4 0 127 44.5 248.3 165.1 248.3s212.2-140.2 212.2-267.1c-0.1-126.9-50.6-192.6-171.1-192.6z" fill="#15927F" /><path d="M765.5 464.8c0 240.9-70.6 365.5-339.8 365.5s-344-124.6-344-365.5S153.6 64 422.9 64s342.6 159.9 342.6 400.8z" fill="#FFFFFF" /><path d="M422.9 111.2c212.6 0 295.4 99.2 295.4 353.7 0 118.5-18.4 195.6-57.9 242.8-43.1 51.5-117.7 75.5-234.7 75.5-221.9 0-296.8-80.3-296.8-318.3-0.1-254.6 82.4-353.7 294-353.7m0-47.2C153.6 64 81.7 223.9 81.7 464.8s74.7 365.5 344 365.5 339.8-124.6 339.8-365.5S692.1 64 422.9 64z" fill="#15927F" /><path d="M323.3 777.3c-8.8 0-16.5-6.6-17.5-15.6L294 661.4c-1.1-9.7 5.8-18.5 15.5-19.6 9.7-1.3 18.5 5.8 19.6 15.5l11.8 100.2c1.1 9.7-5.8 18.5-15.5 19.6-0.7 0.1-1.4 0.2-2.1 0.2zM523.8 777.3c-0.7 0-1.4 0-2.1-0.1-9.7-1.1-16.6-9.9-15.5-19.6L518 657.3c1.1-9.7 9.9-16.7 19.6-15.5 9.7 1.1 16.6 9.9 15.5 19.6l-11.8 100.2c-1 9-8.6 15.7-17.5 15.7z" fill="#15927F" /><path d="M705.4 960H177.1c-13.6 0-24.7-11-24.7-24.7V760.7c0-13.6 11-24.7 24.7-24.7h528.3c13.6 0 24.7 11 24.7 24.7v174.6c0 13.7-11 24.7-24.7 24.7z" fill="#F0F4C3" /><path d="M682.9 783.2v129.7H199.6V783.2h483.3m22.5-47.2H177.1c-13.6 0-24.7 11-24.7 24.7v174.6c0 13.6 11 24.7 24.7 24.7h528.3c13.6 0 24.7-11 24.7-24.7V760.7c0-13.7-11-24.7-24.7-24.7z" fill="#15927F" /><path d="M311.6 877.5H184.8c-9.8 0-17.7-7.9-17.7-17.7 0-9.8 7.9-17.7 17.7-17.7h126.7c9.8 0 17.7 7.9 17.7 17.7 0.1 9.8-7.9 17.7-17.6 17.7zM700.6 877.5H573.9c-9.8 0-17.7-7.9-17.7-17.7 0-9.8 7.9-17.7 17.7-17.7h126.7c9.8 0 17.7 7.9 17.7 17.7 0 9.8-7.9 17.7-17.7 17.7z" fill="#15927F" /></svg>