<?xml version="1.0" standalone="no"?><!DOCTYPE svg PUBLIC "-//W3C//DTD SVG 1.1//EN" "http://www.w3.org/Graphics/SVG/1.1/DTD/svg11.dtd"><svg class="icon" width="200px" height="200.00px" viewBox="0 0 1024 1024" version="1.1" xmlns="http://www.w3.org/2000/svg"><path d="M756.9 529.9c-1.7 0-3.5-0.2-5.2-0.8-9.5-2.9-14.8-12.9-12-22.3l107.6-357.6c9.6-29.7 36.7-49.4 67.5-49.4H936c9.9 0 17.9 8 17.9 17.9s-8 17.9-17.9 17.9h-21.2c-15.2 0-28.6 9.7-33.3 24.2L774.1 517.2c-2.4 7.7-9.5 12.7-17.2 12.7z" fill="#15927F" /><path d="M457.4 65C368.5 87.7 285 134.8 218 205.5c-13 13.7-11.4 35.6 3.1 47.6l291.6 241.2c23.5 19.5 58.5-1.1 53-31.1L497.5 90.9c-3.4-18.5-21.8-30.6-40.1-25.9z" fill="#F0F4C3" /><path d="M462.8 100.6l66 360.5-282.4-233.6c59.2-61.4 133.9-105.2 216.4-126.9m2.6-36.6c-2.6 0-5.3 0.3-8 1C368.5 87.7 285 134.8 218 205.5c-13 13.7-11.4 35.6 3.1 47.6l291.6 241.2c6.4 5.3 13.6 7.6 20.6 7.6 18.9 0 36.4-16.8 32.4-38.7L497.5 90.9C494.6 75.1 480.8 64 465.4 64z" fill="#15927F" /><path d="M186.7 214.7c-53.4 73.6-87.2 162.2-94.1 258.4-1.4 19.5 14.4 36 34 36h373.5c31.7 0 46.2-39.6 21.9-60L236 208.9c-15-12.6-37.8-10.1-49.3 5.8z" fill="#F0F4C3" /><path d="M214.4 237.6L495 473.3H128.5c6.5-85 36.1-166.4 85.9-235.7m-0.4-36.7c-10.4 0-20.7 4.7-27.3 13.8-53.4 73.6-87.2 162.2-94.1 258.4-1.4 19.5 14.4 36 34 36h373.5c31.7 0 46.2-39.6 21.9-60L236 208.9c-6.4-5.4-14.3-8-22-8z" fill="#15927F" /><path d="M107.5 468.4c-16.6 0-29.8 14.1-28.7 30.6C94.5 724.5 141.7 866.8 512 866.8S929.5 724.5 945.2 499c1.1-16.5-12.1-30.6-28.7-30.6h-809z" fill="#FFFFFF" /><path d="M895.9 516.2c-8 98.6-23.6 170.2-69.2 218.5C772.6 792.2 672.6 819 512 819s-260.6-26.8-314.8-84.3c-45.5-48.3-61.1-119.9-69.2-218.5h767.9m20.6-47.8h-809c-16.6 0-29.8 14.1-28.7 30.6C94.5 724.5 141.7 866.8 512 866.8S929.5 724.5 945.2 499c1.1-16.5-12.1-30.6-28.7-30.6z" fill="#15927F" /><path d="M685.2 589.7H111.8c-9.9 0-17.9-8-17.9-17.9s8-17.9 17.9-17.9h573.4c9.9 0 17.9 8 17.9 17.9s-8 17.9-17.9 17.9z" fill="#15927F" /><path d="M177.5 852.5m-107.5 0a107.5 107.5 0 1 0 215 0 107.5 107.5 0 1 0-215 0Z" fill="#FFFFFF" /><path d="M177.5 780.8c39.5 0 71.7 32.2 71.7 71.7s-32.2 71.7-71.7 71.7-71.7-32.2-71.7-71.7 32.2-71.7 71.7-71.7m0-35.8C118.1 745 70 793.1 70 852.5S118.1 960 177.5 960 285 911.9 285 852.5 236.9 745 177.5 745z" fill="#15927F" /><path d="M846.5 852.5m-107.5 0a107.5 107.5 0 1 0 215 0 107.5 107.5 0 1 0-215 0Z" fill="#FFFFFF" /><path d="M846.5 780.8c39.5 0 71.7 32.2 71.7 71.7s-32.2 71.7-71.7 71.7-71.7-32.2-71.7-71.7 32.2-71.7 71.7-71.7m0-35.8C787.1 745 739 793.1 739 852.5S787.1 960 846.5 960 954 911.9 954 852.5 905.9 745 846.5 745z" fill="#15927F" /></svg>