<?xml version="1.0" standalone="no"?><!DOCTYPE svg PUBLIC "-//W3C//DTD SVG 1.1//EN" "http://www.w3.org/Graphics/SVG/1.1/DTD/svg11.dtd"><svg class="icon" width="200px" height="200.00px" viewBox="0 0 1024 1024" version="1.1" xmlns="http://www.w3.org/2000/svg"><path d="M261.4 373.9H146.2c-45.2 0-82.2-37-82.2-82.2s37-82.2 82.2-82.2h115.1c45.2 0 82.2 37 82.2 82.2 0.1 45.2-36.9 82.2-82.1 82.2z" fill="#F0F4C3" /><path d="M261.4 243.7c26.5 0 48 21.5 48 48s-21.5 48-48 48H146.2c-26.5 0-48-21.5-48-48s21.5-48 48-48h115.2m0-34.2H146.2c-45.2 0-82.2 37-82.2 82.2s37 82.2 82.2 82.2h115.1c45.2 0 82.2-37 82.2-82.2 0.1-45.2-36.9-82.2-82.1-82.2z" fill="#15927F" /><path d="M503.4 439.4V230.8c0-79.9-54.1-152.2-164-152.4S161 142.3 161 226.6V569c0 99.1 32.3 179.1 86.4 251.1 73.2 97.5 186.2 125.5 313.1 125.5 132.3 0 249.6-55 322.3-159.8 48.5-69.9 77.1-169.2 77.1-262.5-2-14.7 11.4-79.9-45.7-91.3-41.3-8.3-88.6 25.3-111.5 44.5-9.8 8.1-22 12.6-34.7 12.6H553.1c-27.4 0-49.7-22.3-49.7-49.7z" fill="#FFFFFF" /><path d="M339 78.4l0.4 45.7c87.3 0.1 118.4 55.2 118.4 106.7v208.6c0 25.5 9.9 49.4 27.9 67.4 18 18 42 27.9 67.4 27.9H768c23.3 0 46-8.2 63.9-23.2 26-21.7 52.4-35.2 68.9-35.2 1.6 0 3.1 0.1 4.4 0.4 5.6 1.1 9.7 1.9 8.9 34-0.1 5.2-0.3 9.9 0.1 14.7-0.4 83.9-26.8 173.5-69 234.4C782.6 850.2 681.4 900 560.5 900c-133.8 0-221.6-34.1-276.6-107.3-52.7-70.2-77.2-141.3-77.2-223.7V226.6c0-28.5 11.1-53.1 32-71.1C262.5 134.9 297.2 124 339 124V78.4m0 0c-109.6 0-177.9 64-177.9 148.2V569c0 99.1 32.3 179.1 86.4 251.1 73.2 97.5 186.2 125.5 313.1 125.5 132.3 0 249.6-55 322.3-159.8 48.5-69.9 77.1-169.2 77.1-262.5-2-14.7 11.4-79.9-45.7-91.3-4.4-0.9-8.8-1.3-13.3-1.3-37.7 0-77.7 28.6-98.2 45.8-9.8 8.1-22 12.6-34.7 12.6H553.2c-27.5 0-49.7-22.3-49.7-49.7V230.8c0-79.9-54.1-152.2-164-152.4h-0.5z" fill="#15927F" /><path d="M748.8 657.4H432.1c-9.5 0-17.1-7.7-17.1-17.1s7.7-17.1 17.1-17.1h316.7c9.5 0 17.1 7.7 17.1 17.1s-7.6 17.1-17.1 17.1zM634.7 737.3H432.1c-9.5 0-17.1-7.7-17.1-17.1s7.7-17.1 17.1-17.1h202.6c9.5 0 17.1 7.7 17.1 17.1s-7.7 17.1-17.1 17.1z" fill="#15927F" /><path d="M298 283.6m-34.2 0a34.2 34.2 0 1 0 68.4 0 34.2 34.2 0 1 0-68.4 0Z" fill="#15927F" /><path d="M925.7 860h-96.3c-17.7 0-34.6-5-48.9-14.5L759 831.3c-17.7-11.7-42.3-11.7-59.9 0l-21.5 14.3c-14.3 9.5-31.2 14.4-48.9 14.4h-3.2c-17.7 0-34.6-5-48.9-14.4L555 831.3c-17.6-11.7-42.3-11.7-59.9 0l-21.5 14.3c-14.3 9.5-31.2 14.4-48.9 14.4h-3.2c-17.7 0-34.6-5-48.9-14.4L351 831.3c-17.6-11.7-42.3-11.7-59.9 0l-21.5 14.3c-14.3 9.5-31.2 14.4-48.9 14.4H97.9c-9.5 0-17.1-7.7-17.1-17.1s7.7-17.1 17.1-17.1h122.8c10.8 0 21.4-3.1 30-8.8l21.5-14.3c29.2-19.4 68.5-19.3 97.7 0l21.5 14.3c8.5 5.7 19.2 8.8 30 8.8h3.2c10.8 0 21.4-3.1 30-8.8l21.5-14.3c29.2-19.4 68.5-19.3 97.7 0l21.5 14.3c8.5 5.7 19.2 8.8 30 8.8h3.2c10.8 0 21.4-3.1 29.9-8.7l21.5-14.3c29.2-19.3 68.5-19.3 97.7 0l21.5 14.3c8.5 5.7 19.2 8.8 30 8.8h96.3c9.5 0 17.1 7.7 17.1 17.1s-7.3 17-16.8 17z" fill="#15927F" /></svg>