<?xml version="1.0" standalone="no"?><!DOCTYPE svg PUBLIC "-//W3C//DTD SVG 1.1//EN" "http://www.w3.org/Graphics/SVG/1.1/DTD/svg11.dtd"><svg class="icon" width="200px" height="200.00px" viewBox="0 0 1024 1024" version="1.1" xmlns="http://www.w3.org/2000/svg"><path d="M238.54784 512c-73.28-2.496-144.608-40.416-187.744-99.84-13.952-19.2-25.248-44.864-14.56-66.08 6.016-11.936 18.144-19.936 31.04-23.424 12.832-3.52 26.464-3.008 39.68-1.472A266.208 266.208 0 0 1 288.01984 426.016L238.54784 512zM785.49184 512c73.28-2.496 144.608-40.416 187.744-99.84 13.952-19.2 25.248-44.864 14.56-66.08-6.016-11.936-18.144-19.936-31.04-23.424-12.832-3.52-26.464-3.008-39.68-1.472A266.208 266.208 0 0 0 736.01984 426.016L785.49184 512z" fill="#E0EBFE" /><path d="M416.01984 608m-32 0a32 32 0 1 0 64 0 32 32 0 1 0-64 0Z" fill="#5465CF" /><path d="M608.01984 608m-32 0a32 32 0 1 0 64 0 32 32 0 1 0-64 0Z" fill="#5465CF" /><path d="M965.20384 291.776c-19.136-5.248-37.76-4.064-51.84-2.4-72.48 8.416-141.696 45.888-189.504 101.184a239.808 239.808 0 0 0-48.832-31.872C804.37184 306.56 896.01984 179.872 896.01984 32a32 32 0 0 0-64 0 288.128 288.128 0 0 1-124.48 237.024c18.08-32.32 28.48-69.44 28.48-109.024a32 32 0 0 0-64 0c0 88.224-71.776 160-160 160s-160-71.776-160-160a32 32 0 0 0-64 0c0 39.584 10.4 76.736 28.48 109.024A288.128 288.128 0 0 1 192.01984 32a32 32 0 0 0-64 0c0 147.872 91.648 274.56 220.992 326.72-18.56 9.216-34.816 19.872-48.832 31.84-47.808-55.296-117.024-92.8-189.504-101.184-14.08-1.632-32.672-2.784-51.84 2.4-22.88 6.24-41.536 20.8-51.168 39.904-14.464 28.768-8.352 64 17.248 99.264 46.528 64.16 123.36 106.208 202.336 112.064-0.576 5.152-1.504 10.08-1.856 15.392-5.504 80.448 5.44 163.776 31.616 240.96 30.848 91.04 113.824 194.88 229.568 221.76a112.896 112.896 0 0 0 50.88 0c115.744-26.88 198.72-130.72 229.568-221.728a624.192 624.192 0 0 0 31.616-240.992c-0.352-5.312-1.28-10.24-1.856-15.36 80-5.824 155.072-46.944 202.336-112.096 25.6-35.264 31.712-70.496 17.248-99.264-9.632-19.104-28.288-33.664-51.168-39.904zM241.07584 480.352c-0.48-0.032-0.896-0.32-1.408-0.32-63.296-2.176-125.76-35.36-162.976-86.688-11.52-15.872-14.208-28.16-11.84-32.864 1.12-2.24 4.96-5.344 10.816-6.944 8.576-2.4 19.232-1.568 27.648-0.576 60.48 7.008 118.08 39.808 155.52 87.936a236.48 236.48 0 0 0-17.76 39.456z m465.376 298.464c-25.184 74.24-91.68 158.656-183.456 179.936a49.056 49.056 0 0 1-21.952 0c-91.776-21.28-158.272-105.696-183.456-179.936a567.712 567.712 0 0 1-28.352-216c2.656-38.496 12.32-71.168 28.768-97.12 22.336-35.296 67.776-60.64 135.04-75.328a277.056 277.056 0 0 1 117.952 0c67.264 14.688 112.704 40 135.04 75.328 16.448 25.92 26.112 58.624 28.768 97.088a567.744 567.744 0 0 1-28.352 216.032z m240.896-385.472C910.09984 444.672 847.66784 477.856 784.33984 480c-0.512 0.032-0.928 0.32-1.408 0.352a236.576 236.576 0 0 0-17.792-39.456c37.44-48.128 95.104-80.96 155.552-87.936 8.352-0.96 19.072-1.76 27.648 0.576 5.856 1.6 9.696 4.704 10.848 6.944 2.336 4.704-0.352 16.96-11.872 32.864z" fill="#5465CF" /><path d="M544.01984 832a16 16 0 0 1-16-16 16 16 0 1 0-32 0 16 16 0 0 1-16 16 16 16 0 1 0 0 32c12.352 0 23.488-4.8 32-12.48 8.512 7.68 19.648 12.48 32 12.48a16 16 0 1 0 0-32z" fill="#5465CF" /></svg>