<?xml version="1.0" standalone="no"?><!DOCTYPE svg PUBLIC "-//W3C//DTD SVG 1.1//EN" "http://www.w3.org/Graphics/SVG/1.1/DTD/svg11.dtd"><svg class="icon" width="200px" height="200.00px" viewBox="0 0 1024 1024" version="1.1" xmlns="http://www.w3.org/2000/svg"><path d="M83.54304 299.008c-25.856-28.352-47.936-77.824-50.752-115.84-2.848-38.016 2.784-76.096 8.416-113.792 1.28-8.512 2.624-17.248 6.976-24.672 4.352-7.456 12.48-13.408 21.152-12.64 10.88 0.96 17.984 11.2 24 20.16A339.904 339.904 0 0 0 216.82304 163.2L83.51104 299.008zM940.50304 299.008c25.856-28.352 47.936-77.824 50.752-115.84 2.848-38.016-2.784-76.096-8.416-113.792-1.28-8.512-2.624-17.248-6.976-24.672-4.352-7.456-12.48-13.408-21.184-12.64-10.848 0.96-17.952 11.2-24 20.16A339.872 339.872 0 0 1 807.25504 163.2l133.312 135.84z" fill="#E0EBFE" /><path d="M1003.44704 28.48c-11.104-18.944-31.264-30.08-51.52-28.288-26.464 2.304-40.864 23.872-47.808 34.24a306.528 306.528 0 0 1-100.288 93.408c-70.496-33.792-156.576-64.512-256.16-91.264a139.904 139.904 0 0 0-71.2 0 1210.88 1210.88 0 0 0-53.472 15.296c-74.496 21.92-144.48 48.16-202.784 75.968a306.528 306.528 0 0 1-100.288-93.408C112.47104 23.296 98.58304 2.496 72.08704 0.192 52.18304-1.408 31.70304 9.568 20.56704 28.48c-7.552 12.896-9.536 26.336-11.008 36.128C3.76704 103.552-2.24896 143.808 0.85504 185.568c3.328 44.352 28.16 101.12 59.04 135.008 1.6 1.792 3.744 2.72 5.664 4.032 3.52 28.512 14.208 57.728 32.32 85.44 8.288 12.448 17.792 22.784 26.976 32.768 12.224 13.28 22.784 24.768 27.52 37.952 11.008 30.08 10.976 60.736 10.88 96.256v9.44c-0.32 81.472 14.976 195.52 89.12 275.552 10.176 11.36 22.272 20.928 35.392 28.16 27.264 15.616 59.84 21.76 97.44 19.68C391.19104 973.696 445.43104 1024 512.02304 1024c66.464 0 120.64-50.112 126.784-113.76 4.48 0.256 9.088 0.64 13.44 0.64 49.28 0 89.344-16.32 119.104-48.48 74.464-80.416 89.76-194.464 89.472-275.84v-9.536c-0.128-35.52-0.16-66.208 10.88-96.384 4.704-13.056 15.264-24.544 27.488-37.824 9.184-9.984 18.688-20.32 27.136-32.96 17.92-27.52 28.64-56.64 32.16-85.216 1.92-1.344 4.032-2.272 5.664-4.064 30.912-33.888 55.712-90.656 59.04-135.04 3.104-41.728-2.88-81.984-8.704-120.896-1.472-9.792-3.456-23.232-11.04-36.16zM82.61504 239.2c-9.6-19.584-16.64-40.8-17.92-58.368-2.496-33.344 2.496-68.544 7.584-102.752A370.368 370.368 0 0 0 158.10304 163.904c-10.752 7.52-21.12 15.296-30.784 23.68-14.816 12.672-31.968 29.664-44.736 51.584zM512.02304 960a63.04 63.04 0 0 1-63.68-60.256A597.76 597.76 0 0 0 512.02304 879.68c12.576 4.704 25.6 9.184 38.752 13.248 8.64 2.688 16.96 4.992 25.088 7.04C574.96704 933.248 546.74304 960 512.02304 960z m360.896-585.44c-5.536 8.288-12.96 16.384-20.864 24.96-14.72 16.032-31.456 34.24-40.48 59.2-14.944 40.8-14.88 80.32-14.784 118.464v9.504c0.384 98.912-25.344 181.376-72.416 232.224-30.336 32.8-78.432 36.704-154.624 12.928-15.808-4.896-31.36-10.368-45.952-16.16a31.936 31.936 0 0 0-23.456 0c-28 10.944-52.704 18.88-75.712 24.224-45.44 10.816-79.616 9.312-105.504-5.536a72.384 72.384 0 0 1-19.456-15.488c-47.04-50.816-72.8-133.28-72.448-232.32v-9.376c0.128-38.176 0.192-77.664-14.72-118.272-9.056-25.152-25.792-43.36-40.512-59.392-7.904-8.576-15.36-16.672-20.704-24.736-9.984-15.264-22.144-39.04-23.264-65.248-0.96-26.272 10.88-47.552 41.088-73.504 22.016-19.008 47.264-35.328 77.056-49.728 55.52-26.592 122.88-51.84 195.296-73.152 17.12-5.312 34.24-10.304 51.2-14.688a75.776 75.776 0 0 1 38.56-0.032c95.008 25.536 180.288 55.904 246.528 87.808 29.92 14.464 55.168 30.784 77.28 49.888 30.08 25.856 41.984 47.136 41.024 73.216-1.152 26.4-13.312 50.176-23.136 65.216z m86.432-193.792c-1.28 17.6-8.32 38.784-17.92 58.368-12.768-21.888-29.888-38.816-44.64-51.52a377.6 377.6 0 0 0-30.88-23.68 370.336 370.336 0 0 0 85.856-85.888c5.12 34.208 10.08 69.44 7.584 102.72z" fill="#5465CF" /><path d="M632.24704 475.456l-120.224 30.08-120.224-30.08a32.032 32.032 0 0 0-15.552 62.08L480.02304 563.52v178.016a32 32 0 0 0 64 0v-178.016l103.776-25.92a32 32 0 0 0-15.552-62.112z" fill="#5465CF" /><path d="M768.02304 352m-32 0a32 32 0 1 0 64 0 32 32 0 1 0-64 0Z" fill="#5465CF" /><path d="M256.02304 352m-32 0a32 32 0 1 0 64 0 32 32 0 1 0-64 0Z" fill="#5465CF" /></svg>