<?xml version="1.0" standalone="no"?><!DOCTYPE svg PUBLIC "-//W3C//DTD SVG 1.1//EN" "http://www.w3.org/Graphics/SVG/1.1/DTD/svg11.dtd"><svg class="icon" width="200px" height="200.00px" viewBox="0 0 1024 1024" version="1.1" xmlns="http://www.w3.org/2000/svg"><path d="M268.73248 542.784c-40.064-4.064-80.32-9.024-118.208-23.2-41.728-15.616-80.96-43.808-101.888-85.152-23.584-46.624-20.672-105.088 0.32-153.088s58.24-86.336 99.968-115.36C190.62048 136.96 236.95648 116.384 283.00448 96a764.256 764.256 0 0 0-93.28 108.384c-17.376 24.448-34.048 52.48-32.352 83.008 1.984 36.064 30.112 65.696 61.856 78.72 24.768 10.208 51.488 12.32 78.176 12.576l-28.672 164.096zM753.46848 542.976c40.704-4.096 81.6-8.992 120.128-23.392 41.728-15.616 80.96-43.808 101.888-85.152 23.584-46.624 20.672-105.088-0.32-153.088s-58.24-86.336-99.968-115.36c-41.696-29.024-88.032-49.6-134.08-69.984a764.224 764.224 0 0 1 93.28 108.384c17.376 24.448 34.048 52.48 32.352 83.008-1.984 36.064-30.112 65.696-61.856 78.72-21.024 8.64-43.488 11.52-66.144 12.32l14.72 164.544z" fill="#E0EBFE" /><path d="M1004.47648 268.544c-21.44-49.12-58.784-92.48-110.976-128.832-44.384-30.88-92.704-52.288-139.424-72.96a32 32 0 0 0-35.168 52.32 730.88 730.88 0 0 1 89.408 103.872c13.76 19.328 27.648 41.888 26.496 62.72-1.312 23.584-22.752 42.912-42.112 50.88-14.592 6.016-31.584 9.056-55.104 9.92-3.072 0.096-5.76 1.12-8.544 2.016-19.136-10.592-39.68-12.64-56.096-12.64-4.96 0-9.952 0.16-14.912 0.32-4.288 0.096-8.512 0.224-13.792 0.224h-0.192c-40.032-0.224-84.416-16.32-110.464-40.032a31.968 31.968 0 0 0-43.072 0c-26.048 23.712-70.432 39.808-111.584 40.032-4.256 0-8.544-0.128-12.864-0.256-4.96-0.128-9.952-0.288-14.912-0.288-15.52 0-34.752 1.824-52.992 10.944-0.128 0-0.256-0.096-0.416-0.096-21.12-0.192-45.504-1.6-66.336-10.144-19.36-7.968-40.8-27.296-42.112-50.944-1.152-20.8 12.768-43.328 26.496-62.72 26.56-37.408 56.64-72.32 89.376-103.808a32 32 0 0 0-35.136-52.352c-46.72 20.704-95.04 42.112-139.424 73.024C78.46048 176.064 41.08448 219.424 19.64448 268.544c-26.368 60.224-26.208 127.616 0.416 180.32 22.528 44.576 64.896 80.32 119.264 100.672 31.744 11.904 64.576 17.792 96.544 21.76-4.832 16.096-9.44 32.64-11.136 50.752-3.456 38.272 6.4 79.712 28.544 119.872 18.656 33.792 42.88 62.176 66.272 89.632l59.136 69.376c15.36 18.016 32.736 38.432 54.048 54.912a200.224 200.224 0 0 0 71.232 35.104 31.584 31.584 0 0 0 16.192 0 200.64 200.64 0 0 0 71.264-35.104c21.28-16.48 38.656-36.896 54.016-54.912l59.136-69.376c23.36-27.392 47.52-55.68 66.24-89.6 22.176-40.192 32-81.632 28.576-119.936-1.696-18.112-6.304-34.624-11.136-50.688 32.64-4.064 64.8-9.92 96.544-21.76 54.368-20.352 96.736-56.128 119.264-100.704 26.624-52.704 26.784-120.096 0.416-180.32zM249.21248 476.352c0.96 11.392 1.664 22.144 1.248 32.224-30.784-3.584-60.672-8.48-88.704-18.976-39.296-14.688-69.312-39.424-84.576-69.6-17.824-35.296-17.408-83.52 1.088-125.824 14.56-33.28 39.168-63.616 73.312-90.4-15.392 24.608-28 53.088-26.144 85.44 2.496 45.344 34.56 87.168 81.6 106.496 15.104 6.208 30.4 9.792 45.312 11.936a143.456 143.456 0 0 0-4.864 34.304c-0.096 11.456 0.8 22.944 1.728 34.4z m465.6 234.624c-15.616 28.256-37.632 54.08-58.944 79.04l-59.136 69.408c-13.984 16.416-28.48 33.408-44.48 45.792a136.64 136.64 0 0 1-40.192 21.44c-14.4-4.8-28.16-12.096-40.192-21.44-16-12.384-30.496-29.376-44.48-45.824l-59.136-69.376c-21.344-25.024-43.424-50.88-58.912-79.008-11.136-20.16-23.776-50.976-20.832-83.104 1.408-15.264 6.272-31.072 11.456-47.84 6.176-20.032 12.608-40.736 14.272-63.744 1.184-15.904-0.064-30.816-1.248-45.248-0.768-9.44-1.6-18.912-1.504-28.352 0.224-17.824 5.184-32.32 12.896-37.76 5.056-3.584 13.056-5.12 26.784-5.12 4.32 0 8.704 0.128 13.056 0.256 4.96 0.16 10.272 0.416 16.224 0.32 45.856-0.32 94.848-15.52 131.616-40 36.8 24.48 86.016 39.68 133.12 40 4.864 0 9.792-0.16 14.72-0.32 4.352-0.128 8.736-0.256 13.056-0.256 13.728 0 21.728 1.536 26.784 5.12 7.712 5.44 12.672 19.936 12.896 37.728 0.096 9.472-0.736 18.944-1.504 28.384-1.184 14.4-2.464 29.344-1.28 45.248 1.696 23.04 8.128 43.712 14.304 63.744 5.184 16.768 10.048 32.576 11.456 47.808 2.944 32.16-9.696 62.976-20.8 83.104z m232.128-290.976c-15.264 30.176-45.28 54.912-84.576 69.6-27.776 10.4-57.76 15.36-88.704 18.976-0.416-10.112 0.32-20.8 1.248-32.224 0.96-11.456 1.824-22.944 1.728-34.464a143.264 143.264 0 0 0-4.864-34.304 188.8 188.8 0 0 0 45.248-11.84c47.104-19.36 79.168-61.184 81.664-106.56 1.856-32.32-10.752-60.8-26.144-85.44 34.144 26.816 58.784 57.152 73.28 90.432 18.528 42.304 18.944 90.528 1.12 125.824z" fill="#5465CF" /><path d="M556.31648 800.64c-9.44-2.048-19.456 0.768-28.192 8-1.728 1.376-5.28 5.408-9.344 10.368a356.48 356.48 0 0 1-6.72 8.032 356.448 356.448 0 0 1-6.72-8 98.432 98.432 0 0 0-9.28-10.368c-8.832-7.296-18.976-10.144-28.224-8-13.568 2.976-23.424 16.32-22.976 31.04 0.352 10.4 5.76 20.8 14.752 28.48a16 16 0 0 0 26.208-14.56c9.024 10.752 16.48 18.464 26.24 17.824 9.76 1.216 17.216-7.04 26.24-17.824a15.904 15.904 0 0 0 15.808 18.368 16 16 0 0 0 10.4-3.84c9.024-7.648 14.4-18.048 14.72-28.48 0.48-14.72-9.376-28.032-22.912-31.04zM448.92448 572.256a16.128 16.128 0 0 0 11.648-19.52c-3.616-14.464-8.064-32.448-22.08-44.512-8-6.88-17.28-10.208-24.768-12.864l-40.256-14.4a16.032 16.032 0 0 0-10.816 30.08l40.256 14.432c5.504 1.984 11.2 4.032 14.688 7.04 6.304 5.408 9.152 16.864 11.968 28.16a15.872 15.872 0 0 0 19.36 11.584zM661.46848 511.04a16 16 0 0 0-10.816-30.08l-40.256 14.4c-7.456 2.656-16.736 5.984-24.736 12.864-14.048 12.064-18.496 30.08-22.176 44.736l31.136 7.52c2.752-11.104 5.6-22.56 11.904-27.968 3.488-3.008 9.184-5.056 14.72-7.04l40.224-14.4z" fill="#5465CF" /><path d="M384.06048 576m-32 0a32 32 0 1 0 64 0 32 32 0 1 0-64 0Z" fill="#5465CF" /><path d="M640.06048 576m-32 0a32 32 0 1 0 64 0 32 32 0 1 0-64 0Z" fill="#5465CF" /></svg>