<?xml version="1.0" standalone="no"?><!DOCTYPE svg PUBLIC "-//W3C//DTD SVG 1.1//EN" "http://www.w3.org/Graphics/SVG/1.1/DTD/svg11.dtd"><svg class="icon" width="200px" height="200.00px" viewBox="0 0 1024 1024" version="1.1" xmlns="http://www.w3.org/2000/svg"><path d="M246.6624 303.808a3.36 3.36 0 0 0-2.464 1.728 3.456 3.456 0 0 0-0.256 3.008c12.416 30.88 28.736 57.408 47.488 77.888 18.72 20.512 39.872 34.976 61.984 41.792 7.232 2.24 15.296 3.04 22.528 0.736 7.2-2.336 13.568-7.808 17.344-18.176 3.008-8.224 3.584-17.856 2.496-27.296a82.08 82.08 0 0 0-7.552-26.176 75.296 75.296 0 0 0-20.832-26.08c-8-6.368-16.736-10.784-25.344-14.304a194.304 194.304 0 0 0-47.36-12.864 182.112 182.112 0 0 0-48.032-0.256zM775.9744 303.808a3.36 3.36 0 0 1 2.464 1.728c0.512 0.896 0.64 2.016 0.256 3.008-12.448 30.88-28.768 57.408-47.488 77.888-18.752 20.512-39.904 34.976-62.016 41.792-7.2 2.24-15.296 3.04-22.496 0.736-7.232-2.336-13.6-7.808-17.376-18.176a60.448 60.448 0 0 1-2.496-27.296c1.12-9.472 3.872-18.72 7.552-26.176 5.6-11.36 12.864-19.68 20.864-26.08 8-6.368 16.736-10.784 25.344-14.304 15.552-6.4 31.392-10.688 47.36-12.864a182.112 182.112 0 0 1 48-0.256z" fill="#E0EBFE" /><path d="M29.9584 325.28c7.456 12.736 15.872 24.096 24 35.104l3.648 4.96c7.68 10.464 15.68 21.664 21.408 33.28 5.568 11.36 9.696 24.576 13.024 41.6 3.36 17.536 26.88 162.08 29.248 179.84 14.304 107.008 77.376 202.784 168.704 256.224C355.2064 914.464 446.6624 960 512.0064 960c67.744 0 168.448-52.928 222.432-84.48 94.4-55.2 158.016-153.696 170.112-263.52 1.6-14.528 24.224-155.232 27.424-171.744 3.328-17.056 7.456-30.272 13.024-41.632 5.728-11.616 13.728-22.816 21.44-33.28l3.616-4.96c8.128-11.008 16.544-22.4 24-35.072 16.672-28.352 26.816-61.248 29.312-95.104a221.024 221.024 0 0 0-14.88-98.432 32 32 0 0 0-35.936-19.488l-179.008 35.648c-5.568 1.088-11.2 2.24-16.96 2.72a28.224 28.224 0 0 1-9.6-0.416 33.888 33.888 0 0 1-9.6-4.8c-3.872-2.56-7.552-5.44-11.264-8.32l-4.48-3.392c-31.808-24.192-67.648-42.496-106.464-54.464s-78.72-16.928-118.464-14.784c-1.6 0.096-3.2 0.32-4.704 0.64a32.96 32.96 0 0 0-4.704-0.64 338.816 338.816 0 0 0-118.496 14.784A342.24 342.24 0 0 0 282.3424 133.76l-4.48 3.424c-3.68 2.848-7.36 5.76-11.232 8.32-3.84 2.528-7.008 4.096-9.568 4.8a30.368 30.368 0 0 1-9.728 0.416c-5.664-0.48-11.296-1.664-16.864-2.752L51.4624 112.288c-15.04-2.88-30.176 5.216-35.936 19.488A221.024 221.024 0 0 0 0.6464 230.208a220.512 220.512 0 0 0 29.312 95.072z m37.376-144.576l150.656 29.984c7.936 1.6 16.032 3.104 24.032 3.776 11.36 0.96 21.568 0.224 31.136-2.272a95.68 95.68 0 0 0 28.8-13.376c5.12-3.392 10.112-7.2 15.04-11.008l4.032-3.104a278.976 278.976 0 0 1 86.624-44.288 275.168 275.168 0 0 1 96.192-12.032A32 32 0 0 0 512.0064 127.808c2.624 0.512 5.44 0.736 8.16 0.576a274.688 274.688 0 0 1 96.16 12.032c31.616 9.76 60.8 24.64 86.656 44.288l4.032 3.104c4.928 3.808 9.92 7.616 15.04 11.008 9.824 6.528 19.264 10.88 28.8 13.376s19.776 3.2 31.04 2.24c8.096-0.64 16.192-2.144 24.128-3.744l150.656-29.984c3.008 14.496 4 29.632 2.88 44.736a156.512 156.512 0 0 1-20.672 67.424c-6.048 10.304-13.184 19.872-20.288 29.472l-3.744 5.088c-8.992 12.224-19.264 26.624-27.296 42.976-8.128 16.576-13.984 34.88-18.4 57.664-3.584 18.624-26.4 160.32-28.256 176.896-9.856 89.792-61.76 170.304-138.784 215.296C620.9984 867.68 549.9264 896 512.0064 896c-38.624 0-109.568-28-189.728-74.944-74.4-43.552-125.824-121.856-137.568-209.472-2.528-18.944-26.24-164.736-29.856-183.552-4.416-22.72-10.272-41.056-18.4-57.664-8.032-16.32-18.304-30.72-27.296-42.944l-3.744-5.088c-7.104-9.6-14.24-19.168-20.288-29.472a156.384 156.384 0 0 1-20.672-67.424 160.704 160.704 0 0 1 2.88-44.736z" fill="#5465CF" /><path d="M279.5904 397.248c20.864 22.752 44.736 38.752 69.12 46.272 6.08 1.888 12.096 2.816 17.856 2.816 0.992 0 1.856-0.352 2.816-0.416 0.224 8-0.32 16-2.368 24.32-3.328 13.024-9.12 26.144-15.808 40.736-6.304 13.664-13.44 26.88-20.608 40.128l-2.368 4.352c-8.32 15.52-16.448 30.784-23.36 47.104a215.904 215.904 0 0 0-15.264 52.96 136.32 136.32 0 0 0 3.072 56.64 107.296 107.296 0 0 0 32.128 50.656c16.448 14.464 36.608 22.624 56.8 23.04 21.376 0.32 43.36-4.96 64.832-10.176l4.352-1.056c22.304-5.376 42.176-9.792 59.584-7.936a18.816 18.816 0 0 0 3.264 0c17.28-1.856 37.248 2.56 59.584 7.936l4.352 1.056c20.672 4.992 42.048 10.176 62.496 10.176h2.336c20.192-0.416 40.32-8.576 56.8-23.04 15.2-13.344 26.624-31.36 32.128-50.656 4.928-17.472 5.952-36.48 3.072-56.64a216.32 216.32 0 0 0-15.264-52.992c-6.912-16.32-15.04-31.552-23.36-47.04l-2.368-4.384c-7.168-13.248-14.304-26.464-20.608-40.128-6.944-15.232-10.88-27.136-12.736-38.592a105.152 105.152 0 0 1-0.256-26.624c4.608-0.32 9.28-0.736 14.08-2.24 24.384-7.52 48.256-23.52 69.12-46.272 20.128-22.016 37.6-50.592 50.688-83.2a19.744 19.744 0 0 0-1.504-16.736l-6.464-8.352-7.712-0.992a202.88 202.88 0 0 0-103.52 14.144c-11.744 4.8-21.056 10.08-29.248 16.64a91.616 91.616 0 0 0-25.216 31.488c-4.608 9.28-7.808 20.416-9.056 31.36a75.84 75.84 0 0 0 3.296 34.688c3.616 9.856 8.928 16.256 14.432 20.672a139.968 139.968 0 0 0-0.256 40.48c2.336 14.464 7.04 28.896 15.296 46.88 6.528 14.272 14.048 28.16 21.504 41.984l2.336 4.352c8 14.816 15.68 29.344 22.048 44.32 6.72 15.936 11.104 31.072 13.088 45.12 2.24 15.648 1.504 30.24-2.24 43.328a74.88 74.88 0 0 1-22.4 35.36c-7.648 6.72-20.096 14.72-36.288 15.04-17.12 0.352-36.256-4.32-56.704-9.28l-4.384-1.056c-24.64-5.888-46.944-10.72-68.704-8.768-21.888-1.984-44.064 2.848-68.704 8.8l-4.384 1.056c-20.384 4.928-38.624 9.696-56.704 9.28-16.192-0.32-28.64-8.384-36.256-15.104a74.72 74.72 0 0 1-22.464-35.328 104.256 104.256 0 0 1-2.208-43.392c1.984-13.984 6.4-29.12 13.12-45.024 6.304-15.008 14.016-29.536 22.016-44.352l2.336-4.352c7.456-13.824 14.976-27.712 21.504-41.984 7.072-15.456 13.76-30.592 17.76-46.272 4.096-16.192 4.48-31.456 2.08-47.488 3.104-3.84 6.016-8.256 8.192-14.24 3.68-9.984 4.864-21.984 3.392-34.688a98.24 98.24 0 0 0-9.12-31.392 91.68 91.68 0 0 0-25.184-31.488 115.296 115.296 0 0 0-29.248-16.64 201.696 201.696 0 0 0-103.296-14.176 19.2 19.2 0 0 0-14.4 9.376l-4.32 9.856 2.976 7.36c12.928 32.096 30.4 60.704 50.496 82.72z m372 16.48c-1.28-0.416-4.736-1.536-7.232-8.416a44.8 44.8 0 0 1-1.6-20c0.832-7.392 2.976-14.848 5.952-20.928 4.096-8.32 9.504-15.04 16.48-20.608 5.76-4.576 12.576-8.416 21.44-12.064a178.688 178.688 0 0 1 43.456-11.808 165.28 165.28 0 0 1 26.816-1.504 233.184 233.184 0 0 1-37.536 57.28c-16.96 18.528-35.968 31.424-54.848 37.248-5.056 1.6-9.728 1.856-12.928 0.8zM292.5184 319.904c14.624 2.016 29.248 5.984 43.488 11.84 8.864 3.616 15.68 7.424 21.408 12.032 6.976 5.568 12.384 12.288 16.48 20.608 3.008 6.144 5.12 13.568 5.984 20.928 0.896 7.744 0.32 14.656-1.6 20-2.56 6.88-5.952 8-7.232 8.416-3.2 1.024-7.936 0.736-12.928-0.8-18.912-5.824-37.92-18.72-54.88-37.248a233.216 233.216 0 0 1-37.504-57.28c8.768-0.32 17.824 0.288 26.784 1.504z" fill="#5465CF" /><path d="M431.3024 668.448a45.536 45.536 0 0 0 29.696 10.752c8.448 0 16.48-2.336 22.976-6.72 3.264-2.24 6.144-4.896 9.184-8.544 1.984-2.432 3.712-5.024 5.44-7.52a16.48 16.48 0 0 1 13.376-7.744 16.064 16.064 0 0 1 13.408 7.68c1.728 2.56 3.52 5.12 5.44 7.584 2.88 3.456 5.856 6.272 9.248 8.576 7.68 5.152 17.344 7.424 27.584 6.464 9.44-0.96 18.368-4.704 25.056-10.528 6.528-5.632 11.2-13.056 13.536-21.536 2.144-7.616 2.336-15.84 0.512-23.84a61.76 61.76 0 0 0-8.896-19.968c-3.52-5.312-8-10.528-13.28-15.52a16 16 0 1 0-22.016 23.232c3.52 3.36 6.432 6.72 8.64 10.048a29.408 29.408 0 0 1 4.352 9.408 16.736 16.736 0 0 1-0.128 8.064 11.968 11.968 0 0 1-3.648 5.92 13.984 13.984 0 0 1-7.296 2.88 10.56 10.56 0 0 1-6.464-1.12 10.784 10.784 0 0 1-2.368-2.304c-1.344-1.664-2.496-3.392-3.712-5.216a47.872 47.872 0 0 0-40.288-21.824 48.64 48.64 0 0 0-39.616 21.856c-1.152 1.728-2.336 3.52-3.584 5.056a12.064 12.064 0 0 1-2.432 2.4 9.92 9.92 0 0 1-6.4 1.152 13.888 13.888 0 0 1-7.392-2.88 11.968 11.968 0 0 1-3.68-6.016 15.968 15.968 0 0 1-0.096-7.872 28.992 28.992 0 0 1 4.32-9.504c2.24-3.328 5.12-6.72 8.64-10.048a16 16 0 0 0-21.984-23.232c-5.28 4.992-9.728 10.24-13.28 15.52a61.44 61.44 0 0 0-8.896 20.064 47.68 47.68 0 0 0 0.512 23.744c2.336 8.48 7.04 15.904 13.536 21.536z" fill="#5465CF" /></svg>