<?xml version="1.0" standalone="no"?><!DOCTYPE svg PUBLIC "-//W3C//DTD SVG 1.1//EN" "http://www.w3.org/Graphics/SVG/1.1/DTD/svg11.dtd"><svg class="icon" width="200px" height="200.00px" viewBox="0 0 1024 1024" version="1.1" xmlns="http://www.w3.org/2000/svg"><path d="M336.11669 175.99659a175.99659 79.99845 0 1 0 351.99318 0 175.99659 79.99845 0 1 0-351.99318 0Z" fill="#E0EBFE" /><path d="M3.099142 595.924454a15.99969 15.99969 0 0 0 31.551389-5.375896c-7.679851-45.087126 2.335955-84.478363 28.223453-110.94185 20.479603-20.927595 49.471041-31.679386 83.006392-32.127378a398.040288 398.040288 0 0 0 6.591872 334.937511C116.056954 814.000229 96.12134 853.711459 96.12134 895.98264c0 47.551079 25.055515 91.934219 70.590632 124.957579a15.935691 15.935691 0 0 0 22.335568-3.58393 15.99969 15.99969 0 0 0-3.519932-22.335568C148.504325 968.173242 128.12072 933.005923 128.12072 895.98264c0-30.687405 14.175725-59.998838 40.031224-84.478363A397.272303 397.272303 0 0 0 512.11328 1007.98047a397.272303 397.272303 0 0 0 343.961336-196.476193C881.930115 836.015802 896.10584 865.327234 896.10584 895.98264c0 37.023283-20.383605 72.190601-57.406887 99.038081a15.99969 15.99969 0 0 0 18.815635 25.919498C903.049706 987.916859 928.10522 943.50172 928.10522 895.98264c0-42.30318-19.935614-82.014411-56.350908-113.5338a398.040288 398.040288 0 0 0 6.591872-334.96951c33.53535 0.447991 62.526789 11.199783 83.006392 32.127378 25.887498 26.463487 35.903304 65.854724 28.223453 110.94185a15.99969 15.99969 0 0 0 31.551389 5.375896c9.439817-55.454926-3.647929-104.701971-36.895285-138.685313-29.887421-30.591407-72.574594-45.023128-121.437647-41.599194a401.272225 401.272225 0 0 0-67.870685-90.494247c-26.559485-26.559485-58.782861-39.423236-98.59009-39.423236-29.247433 0-58.494867 6.71987-89.438267 13.791733-31.007399 7.135862-63.038779 14.495719-94.782164 14.495719s-63.774764-7.359857-94.782163-14.495719c-30.9434-7.103862-60.158834-13.791733-89.438268-13.791733-39.807229 0-72.062604 12.89575-98.55809 39.423236-27.199473 27.199473-49.855034 57.726882-67.902684 90.494247-48.959051-3.455933-91.518227 11.007787-121.437648 41.599194C6.747072 491.190483-6.340675 540.469528 3.099142 595.924454zM544.11266 376.120713c27.295471-2.879944 53.342966-8.76783 77.118506-14.207725 27.295471-6.271878 53.118971-12.191764 75.102545-12.191764 22.879557 0 38.847247 6.17588 53.342966 20.6716 63.454771 63.48677 98.398094 147.837136 98.398094 237.595396s-34.943323 174.108627-98.398094 237.595397A333.465539 333.465539 0 0 1 544.11266 942.381741V376.120713z m-269.562777-5.727889c14.495719-14.495719 30.46341-20.671599 53.342966-20.6716 22.015573 0 47.807074 5.919885 75.134545 12.159765 23.74354 5.439895 49.791035 11.327781 77.086506 14.239724v566.293028a333.465539 333.465539 0 0 1-205.564017-96.830124C211.095112 782.064847 176.151789 697.746481 176.151789 607.98822s34.943323-174.108627 98.398094-237.595396z" fill="#5465CF" /><path d="M184.88762 1.05598a16.063689 16.063689 0 0 0-20.6396 9.215821c-10.591795 27.615465-0.543989 60.446829 25.663503 83.646379 18.55964 16.415682 43.583156 27.903459 78.814473 36.063302l5.119901 1.215976c13.95173 3.199938 27.999458 6.623872 38.079262 12.415759-4.895905 9.919808-7.807849 20.6396-7.807849 32.383373C304.11731 249.531165 408.755283 287.99442 512.11328 287.99442s207.99597-38.463255 207.99597-111.99783c0-11.743772-2.911944-22.463565-7.807848-32.383373 10.079805-5.791888 24.127533-9.215821 38.079262-12.415759l5.119901-1.215976c35.231317-8.159842 60.254833-19.647619 78.846472-36.063302 26.175493-23.199551 36.223298-55.998915 25.631503-83.646379a15.99969 15.99969 0 0 0-29.887421 11.455778c6.591872 17.119668-3.807926 36.543292-16.959671 48.223066-14.399721 12.767753-35.039321 21.951575-64.862743 28.89544l-5.023903 1.151978c-16.959671 3.871925-35.199318 8.543834-50.015031 18.01565C655.534501 82.398404 583.535896 63.99876 512.11328 63.99876s-143.421221 18.399644-181.116491 54.014953c-14.847712-9.471816-33.05536-14.143726-50.015031-18.01565l-5.023902-1.151978c-29.823422-6.943865-50.431023-16.127688-64.830744-28.863441-13.183745-11.711773-23.583543-31.135397-17.02367-48.255065a15.99969 15.99969 0 0 0-9.215822-20.671599zM512.11328 127.99752c93.534188 0 143.99721 34.04734 143.99721 47.99907S605.647468 223.99566 512.11328 223.99566s-143.99721-34.04734-143.99721-47.99907S418.579092 127.99752 512.11328 127.99752z" fill="#5465CF" /></svg>