<?xml version="1.0" standalone="no"?><!DOCTYPE svg PUBLIC "-//W3C//DTD SVG 1.1//EN" "http://www.w3.org/Graphics/SVG/1.1/DTD/svg11.dtd"><svg class="icon" width="200px" height="200.00px" viewBox="0 0 1024 1024" version="1.1" xmlns="http://www.w3.org/2000/svg"><path d="M606.6 274.86c0-27.94 5.23-54.67 14.76-79.24C539.35 227.37 481.2 307 481.2 400.21c0 121.13 98.19 219.32 219.32 219.32 93.18 0 172.79-58.11 204.56-140.08-24.56 9.51-51.25 14.73-79.16 14.73-121.13 0-219.32-98.19-219.32-219.32z" fill="#FFD500" /><path d="M655.58 503.83h-21.26c-10.5-38.42-32.12-73.2-62.42-99.84-37.35-32.83-85.34-50.91-135.11-50.91-50.02 0-98.18 18.24-135.61 51.35-31.62 27.97-53.68 64.79-63.45 105.34-69.07 19.28-118.81 82.98-118.81 156.33 0 89.48 72.8 162.28 162.28 162.28h374.38c89.48 0 162.28-72.8 162.28-162.27 0-89.48-72.8-162.28-162.28-162.28z" fill="#67ABF5" /></svg>