<?xml version="1.0" standalone="no"?><!DOCTYPE svg PUBLIC "-//W3C//DTD SVG 1.1//EN" "http://www.w3.org/Graphics/SVG/1.1/DTD/svg11.dtd"><svg class="icon" width="200px" height="200.00px" viewBox="0 0 1024 1024" version="1.1" xmlns="http://www.w3.org/2000/svg"><path d="M837.14 336.18c-8.52-38.91-29.25-74.32-59.41-101-34.53-30.55-78.96-47.37-125.11-47.37-45.92 0-90.18 16.67-124.64 46.96-29.23 25.69-49.7 59.61-58.84 96.97h-25.41c-39.49 0-76.7 15.47-104.79 43.56-28.09 28.09-43.56 65.31-43.56 104.79 0 39.49 15.47 76.7 43.56 104.79 28.09 28.09 65.31 43.56 104.79 43.56h357.44c39.49 0 76.7-15.47 104.79-43.56s43.56-65.3 43.56-104.79c0-68.38-47.29-127.58-112.38-143.91z" fill="#628EBE" /><path d="M897.86 491.68c-38.23-38.23-88.87-59.28-142.61-59.28h-34.58c-12.45-50.84-40.31-97-80.09-131.97-46.9-41.22-107.14-63.92-169.64-63.92-62.8 0-123.27 22.89-170.27 64.47-41.05 36.32-69.26 84.51-80.86 137.46-88.59 22.21-152.95 102.79-152.95 195.85 0 53.73 21.06 104.38 59.28 142.61 38.22 38.23 88.87 59.28 142.61 59.28h486.5c53.73 0 104.38-21.05 142.61-59.28 38.23-38.22 59.28-88.87 59.28-142.61 0-53.72-21.05-104.38-59.28-142.61z" fill="#76AAEE" /></svg>