<?xml version="1.0" standalone="no"?><!DOCTYPE svg PUBLIC "-//W3C//DTD SVG 1.1//EN" "http://www.w3.org/Graphics/SVG/1.1/DTD/svg11.dtd"><svg class="icon" width="200px" height="200.00px" viewBox="0 0 1024 1024" version="1.1" xmlns="http://www.w3.org/2000/svg"><path d="M782.471595 597.187259h80.170221l-111.705889 343.820692h-71.262418l78.327227-343.820692z" fill="#F7B239" /><path d="M758.000736 597.187259l-78.327227 343.820692h-95.221336l33.788216-343.820692z" fill="#F7B239" /><path d="M618.240389 597.187259l-33.788216 343.820692h-144.36783l-33.788216-343.820692z" fill="#F7B239" /><path d="M406.296127 597.187259l33.788216 343.820692h-95.221336l-78.327227-343.820692z" fill="#E09B2D" /><path d="M245.546131 597.187259h20.989649l78.327227 343.820692h-71.262418l-111.705889-343.820692z" fill="#E09B2D" /><path d="M606.056154 175.244117c0 30.71656-15.051114 57.951909-38.190923 74.64124h-107.712736c-23.139808-16.689331-38.190923-43.92468-38.190923-74.64124 0-50.784712 41.16019-92.047291 92.047291-92.047291s92.047291 41.16019 92.047291 92.047291z" fill="#F95428" /><path d="M501.517462 175.244117c0-36.552706 21.399203-68.190763 52.32054-83.0371-12.081847-5.733758-25.494745-9.010191-39.72675-9.010191-50.784712 0-92.047291 41.262579-92.047291 92.047291 0 30.71656 15.051114 57.951909 38.190922 74.64124h79.453502c-23.139808-16.689331-38.190923-43.92468-38.190923-74.64124z" fill="#E54728" /><path d="M789.229238 460.908122c16.689331 16.689331 26.928184 39.624362 26.928184 65.119107 0 28.668789-13.208121 54.368311-33.685827 71.16003h-536.925464c-2.354936-1.945382-4.607484-3.993153-6.757643-6.143312-16.689331-16.689331-26.928184-39.624362-26.928184-65.119107 0-50.784712 41.262579-92.047291 92.04729-92.04729h420.304926c25.289968 0.102389 48.327387 10.44363 65.016718 27.030572zM567.865231 249.885357h90.204297c48.429776 0 87.746972 39.317196 87.746973 87.746972v8.498248c0 48.429776-39.317196 87.746972-87.746973 87.746973h-288.018942c-48.429776 0-87.746972-39.317196-87.746972-87.746973v-8.498248c0-48.429776 39.317196-87.746972 87.746972-87.746972h197.814645z" fill="#B27214" /><path d="M361.347561 591.146336c2.150159 2.150159 4.402707 4.19793 6.757643 6.143312h-122.559073c-2.354936-1.945382-4.607484-3.993153-6.757643-6.143312-16.689331-16.689331-26.928184-39.624362-26.928184-65.119107 0-50.784712 41.262579-92.047291 92.04729-92.047291h122.559074c-50.784712 0-92.047291 41.262579-92.047291 92.047291 0 25.392356 10.341242 48.429776 26.928184 65.119107zM492.60966 433.979938h-122.559074c-48.429776 0-87.746972-39.317196-87.746972-87.746972v-8.498248c0-48.429776 39.317196-87.746972 87.746972-87.746973h122.559074c-48.429776 0-87.746972 39.317196-87.746973 87.746973v8.498248c0 48.429776 39.214808 87.746972 87.746973 87.746972z" fill="#995C0D" /><path d="M750.219207 574.457005c-4.812261 0-9.522134-2.047771-12.798566-6.040924-5.836146-7.064809-4.812261-17.508439 2.252548-23.344585 5.733758-4.709872 9.112579-11.672293 9.112579-19.146656 0-6.552866-2.559713-12.798567-7.269586-17.508439-4.607484-4.607484-10.853184-7.167197-17.40605-7.167197-9.112579 0-16.586942-7.371974-16.586943-16.586942 0-9.112579 7.371974-16.586942 16.586943-16.586942 15.460668 0 29.897451 6.040923 40.853024 16.894107 10.955573 10.955573 16.996496 25.494745 16.996497 40.955413 0 17.406051-7.67914 33.685827-21.194427 44.743789-3.071656 2.559713-6.757643 3.788376-10.546019 3.788376zM673.427808 396.403347c-6.2457 0-12.286624-3.583599-15.051114-9.624522-3.788376-8.293471-0.204777-18.12277 8.191082-21.911146 7.269586-3.378822 11.979458-10.648407 11.979459-18.532325v-8.498248c0-11.262739-9.112579-20.477706-20.477707-20.477706-9.112579 0-16.586942-7.371974-16.586942-16.586943s7.371974-16.586942 16.586942-16.586942c29.487897 0 53.549202 24.061305 53.549203 53.549203v8.498248c0 20.887261-12.286624 39.931528-31.330891 48.634553-2.252548 1.023885-4.607484 1.535828-6.860032 1.535828zM538.070168 225.312109c-5.119427 0-10.238853-2.354936-13.412898-6.860032-5.324204-7.371974-3.685987-17.815605 3.685988-23.139808 6.655255-4.812261 10.341242-11.979458 10.341241-20.068152 0-8.703025-4.402707-16.586942-11.877069-21.092038-7.781528-4.812261-10.238853-14.948726-5.528981-22.730254 4.812261-7.781528 14.948726-10.238853 22.730254-5.528981 17.406051 10.648407 27.747292 29.078343 27.747292 49.351273 0 18.737101-8.805414 35.835986-24.061305 46.893948-2.866879 2.150159-6.2457 3.174045-9.624522 3.174044z" fill="#FFFFFF" /><path d="M876.054714 587.460348c-3.071656-4.300318-8.088694-6.860032-13.412898-6.860031h-44.6414c9.522134-16.382165 14.743949-35.119267 14.743949-54.675477 0-28.975955-11.262739-56.211304-31.842834-76.791399-18.83949-18.737101-43.207961-29.795063-69.521814-31.535668 19.044267-19.55621 30.921337-46.279617 30.921337-75.767514 0-59.897292-48.736941-108.634233-108.634233-108.634233h-48.12261c10.853184-17.201273 16.996496-37.269426 16.996496-58.156686 0-59.897292-48.736941-108.634233-108.634233-108.634233s-108.634233 48.736941-108.634232 108.634233c0 20.784872 6.040923 40.955413 16.996496 58.156686h-48.020222c-59.897292 0-108.634233 48.736941-108.634233 108.634233 0 29.487897 11.774681 56.211304 30.921337 75.767514-56.51847 3.788376-101.262259 50.887101-101.262259 108.327067 0 19.453821 5.119427 38.190923 14.743949 54.675477h-48.12261c-5.324204 0-10.238853 2.559713-13.412898 6.860031-3.071656 4.300318-3.993153 9.829299-2.354936 14.846338l111.705889 343.820692c2.252548 6.860032 8.600637 11.467516 15.767834 11.467515h477.335338c7.167197 0 13.515286-4.607484 15.767834-11.467515l111.705889-343.820692c1.638217-5.017038 0.71672-10.546019-2.354936-14.846338z m-437.506199-412.216231c0-41.672133 33.890604-75.460348 75.460348-75.460349s75.460348 33.890604 75.460348 75.460349c0 22.423089-10.136465 43.822292-27.337738 58.156686h-96.24522c-17.201273-14.334395-27.337738-35.733598-27.337738-58.156686z m-64.299999 91.228182h279.418305c41.569744 0 75.460348 33.890604 75.460349 75.460349s-33.788216 75.35796-75.255572 75.460348h-279.827859c-41.569744-0.102389-75.255571-33.890604-75.255571-75.460348s33.890604-75.460348 75.460348-75.460349z m-123.685347 312.899355c-14.232006-14.232006-22.115923-33.276273-22.115923-53.344425 0-41.672133 33.890604-75.460348 75.460348-75.460348h420.304926c20.170541 0 39.112419 7.883917 53.344426 22.115923 14.232006 14.232006 22.115923 33.276273 22.115923 53.344425 0 20.784872-8.498248 40.44347-23.446974 54.675476h-524.331675l-1.331051-1.331051z m-65.835826 34.402547h68.600316l70.750476 310.749196h-38.395699l-100.955093-310.749196z m102.593309 0h103.924361l30.614171 310.749196h-63.685667l-70.852865-310.749196z m167.814805 310.749196l-30.511783-310.749196h175.391556l-30.511782 310.749196h-114.367991z m147.644264 0l30.511782-310.749196h103.924361l-70.750476 310.749196h-63.685667z m136.176748 0h-38.498088l70.750476-310.749196h68.600316l-100.852704 310.749196z" fill="#333333" /></svg>