<?xml version="1.0" standalone="no"?><!DOCTYPE svg PUBLIC "-//W3C//DTD SVG 1.1//EN" "http://www.w3.org/Graphics/SVG/1.1/DTD/svg11.dtd"><svg class="icon" width="200px" height="200.00px" viewBox="0 0 1024 1024" version="1.1" xmlns="http://www.w3.org/2000/svg"><path d="M692.432144 940.160174h-360.407635c72.59347-27.440127 135.050474-75.460348 180.203817-136.893468 45.255731 61.433119 107.712736 109.453341 180.203818 136.893468z" fill="#E09B2D" /><path d="M597.620363 169.48169c14.846337 15.665445 25.392356 35.221655 29.897451 57.132801-9.522134 5.733758-18.83949 11.979458-27.849681 18.429936-0.71672-0.819108-1.433439-1.535828-2.04777-2.252548-0.71672-0.71672-1.433439-1.535828-2.15016-2.150159-21.296815-21.296815-50.784712-34.504935-83.241877-34.504935-33.583439 0-63.890444 14.027229-85.392036 36.655094-0.71672 0.71672-1.433439 1.535828-2.04777 2.252548-9.010191-6.552866-18.327547-12.696178-27.849681-18.429936 4.505095-21.911146 15.051114-41.467356 29.897451-57.132801 15.767834-16.586942 36.347929-28.668789 59.487738-33.788216 8.293471-1.842994 16.996496-2.866879 25.904298-2.866879s17.508439 1.023885 25.904299 2.866879c22.115923 4.91465 41.87691 16.177388 57.337578 31.638057l2.15016 2.150159z" fill="#71A517" /><path d="M599.668133 245.044427c-33.48105 24.266082-62.968947 53.549202-87.439807 86.825476-24.470859-33.276273-54.061145-62.559393-87.439806-86.825476 0.71672-0.819108 1.433439-1.535828 2.04777-2.252548 21.399203-22.627866 51.706209-36.655095 85.392036-36.655094 32.457165 0 61.945062 13.208121 83.241877 34.504935l2.15016 2.150159c0.71672 0.71672 1.433439 1.535828 2.04777 2.252548z" fill="#F95428" /><path d="M713.933735 128.628666l-21.399203 66.450157c-22.730254 8.600637-44.436623 19.146656-64.914329 31.535668-4.505095-21.911146-15.051114-41.467356-29.897452-57.132801-0.71672-0.71672-1.433439-1.535828-2.150159-2.252548-15.460668-15.460668-35.221655-26.621018-57.337578-31.638056l45.35812-49.760827 28.464012 26.621018 36.655094-28.668789 16.279777 48.83933 48.941718-3.993152zM440.863519 85.830259l45.460509 49.863215c-23.139808 5.221815-43.719903 17.201273-59.487738 33.788216-14.846337 15.665445-25.392356 35.221655-29.897451 57.132801-20.477706-12.389012-42.184075-23.03742-64.91433-31.535668l-21.399203-66.450157 48.83933 4.095541 16.279777-48.941719 36.655094 28.668789 28.464012-26.621018z" fill="#9AD14B" /><path d="M627.517814 226.614491c20.477706-12.389012 42.184075-23.03742 64.91433-31.535668v745.081351c-72.59347-27.440127-135.050474-75.460348-180.203818-136.893468 48.532164-65.938215 77.200953-147.541875 77.200954-235.698402s-28.668789-169.657798-77.200954-235.698401c24.470859-33.276273 54.061145-62.559393 87.439807-86.825476 9.010191-6.450478 18.327547-12.696178 27.849681-18.429936z" fill="#F7B239" /><path d="M424.78852 245.044427c33.48105 24.266082 62.968947 53.549202 87.439806 86.825476 48.532164 65.938215 77.200953 147.541875 77.200954 235.698401s-28.668789 169.657798-77.200954 235.698402c-45.255731 61.433119-107.712736 109.453341-180.203817 136.893468v-745.081351c22.730254 8.600637 44.436623 19.146656 64.91433 31.535668 9.522134 5.733758 18.83949 11.979458 27.849681 18.429936z" fill="#F7B239" /><path d="M415.471163 238.593949c-6.040923-4.095541-12.286624-8.088694-18.532324-11.979458-20.477706-12.389012-42.184075-23.03742-64.91433-31.535668v745.081351c29.692674-11.262739 57.644744-25.904299 83.446654-43.515126v-658.051099z" fill="#E09B2D" /><path d="M542.637721 582.926584c-8.39586 0-15.255891-6.860032-15.255892-15.255891 0-67.781209-20.068152-133.002704-57.849521-188.599677-4.709872-6.96242-2.969267-16.484554 3.993153-21.194426s16.484554-2.969267 21.194426 3.993153c41.364967 60.7164 63.173725 131.87643 63.173725 205.80095 0 8.39586-6.860032 15.255891-15.255891 15.255891zM646.66447 763.94951c-8.39586 0-15.255891-6.860032-15.255892-15.255892v-372.591869c0-8.39586 6.860032-15.255891 15.255892-15.255892s15.255891 6.860032 15.255891 15.255892v372.591869c0 8.498248-6.860032 15.255891-15.255891 15.255892zM646.66447 316.102069c-8.39586 0-15.255891-6.860032-15.255892-15.255892v-28.464012c0-8.39586 6.860032-15.255891 15.255892-15.255891s15.255891 6.860032 15.255891 15.255891v28.361624c0 8.498248-6.860032 15.35828-15.255891 15.35828z" fill="#FFFFFF" /><path d="M449.668933 328.286304m-15.255891 0a15.255891 15.255891 0 1 0 30.511782 0 15.255891 15.255891 0 1 0-30.511782 0Z" fill="#FFFFFF" /><path d="M533.217976 245.453981m-15.255892 0a15.255891 15.255891 0 1 0 30.511783 0 15.255891 15.255891 0 1 0-30.511783 0Z" fill="#FFFFFF" /><path d="M651.579119 168.355416m-15.255891 0a15.255891 15.255891 0 1 0 30.511782 0 15.255891 15.255891 0 1 0-30.511782 0Z" fill="#FFFFFF" /><path d="M725.810805 119.106532c-3.174045-3.993153-8.088694-6.143312-13.208121-5.733758l-36.859871 3.071656-12.491401-37.474203c-1.535828-4.709872-5.324204-8.39586-10.136465-9.829299-4.709872-1.433439-9.931688-0.409554-13.822452 2.559714l-26.313853 20.682483-18.941878-17.713216c-2.969267-2.76449-6.96242-4.300318-11.057962-4.095541s-7.883917 1.945382-10.648407 5.017038l-39.726751 43.515126c-6.655255-1.023885-13.412898-1.535828-20.375318-1.535828-6.860032 0-13.720063 0.511943-20.375318 1.535828l-39.72675-43.515126c-2.76449-2.969267-6.552866-4.812261-10.648408-5.017038-4.095541-0.204777-8.088694 1.331051-11.057961 4.095541l-18.941879 17.713216-26.313852-20.682483c-3.890764-3.071656-9.010191-3.993153-13.822452-2.559714-4.709872 1.433439-8.498248 5.119427-10.136465 9.829299l-12.491401 37.474203-36.859872-3.071656c-5.119427-0.409554-10.034076 1.740605-13.20812 5.733758s-4.095541 9.317356-2.559714 14.232006l20.682484 64.19761v742.726415c0 8.39586 6.860032 15.255891 15.255891 15.255891h360.510023c8.39586 0 15.255891-6.860032 15.255891-15.255891v-742.828804l20.682484-64.197609c1.535828-4.812261 0.511943-10.136465-2.662102-14.129618z m-141.398563-11.569904l17.201273 16.074999c5.528981 5.119427 13.92484 5.528981 19.863376 0.921497l19.556209-15.35828 9.419745 28.361624c2.252548 6.655255 8.805414 10.955573 15.767834 10.341242l26.006688-2.150159-12.184236 37.781368c-14.948726 5.938535-29.385509 12.696178-43.412738 20.272929-6.2457-16.586942-15.665445-31.740445-28.054458-44.743788-0.819108-0.921497-1.638217-1.740605-2.457324-2.559714-11.979458-11.979458-25.904299-21.399203-40.955413-27.952069l19.249044-20.989649z m-84.470539 233.445854c48.532164 66.040603 74.231686 144.367831 74.231686 226.585822s-25.699522 160.647607-74.231686 226.688211c-39.624362 53.856368-92.149679 96.040443-152.661302 123.071016v-699.416065c60.511623 27.030573 113.03694 69.214648 152.661302 123.071016z m12.286623-33.992993c-19.044267-23.446974-40.44347-44.6414-63.890444-63.276113 18.020382-14.539172 40.238693-22.423089 63.890444-22.423089 23.446974 0 45.767674 7.883917 63.890445 22.423089-23.446974 18.634713-44.846177 39.829139-63.890445 63.276113z m0 521.260019c31.638057 39.010031 69.828979 71.671973 112.832163 96.654775h-225.664325c43.003184-25.08519 81.194106-57.747132 112.832162-96.654775z m18.941879-25.289967c48.12261-69.317036 73.514966-150.408754 73.514966-235.391237s-25.392356-166.0742-73.514966-235.391236c38.805254-49.658438 88.770858-88.770858 146.006047-114.367991v699.416066c-57.23519-25.392356-107.200794-64.504775-146.006047-114.265602z m53.549202-624.877214c0.614331 0.614331 1.228662 1.228662 1.842994 1.945382 10.750796 11.365127 18.737101 24.880413 23.344585 39.521973-2.866879 1.842994-5.733758 3.685987-8.498248 5.63137-24.470859-22.218312-55.904139-34.300158-89.180412-34.300159-33.378662 0-64.709553 12.184235-89.180411 34.402547-2.866879-1.945382-5.631369-3.788376-8.498249-5.631369 4.607484-14.743949 12.593789-28.259235 23.344586-39.521974 19.55621-20.580095 45.870063-31.945222 74.334074-31.945222 27.337738-0.102389 53.03726 10.546019 72.491081 29.897452z m-226.585822-30.204617c6.96242 0.614331 13.515286-3.685987 15.767834-10.341242l9.419745-28.361624 19.55621 15.35828c5.938535 4.607484 14.334395 4.300318 19.863375-0.921497l17.201273-16.074999 19.146656 20.989649c-16.075 7.064809-30.818948 17.303662-43.310349 30.511783-12.389012 13.003344-21.808757 28.259235-28.054458 44.743788-14.027229-7.576751-28.464012-14.334395-43.412738-20.272929l-12.184235-37.781368 26.006687 2.150159z" fill="#333333" /><path d="M626.186763 340.880093m-15.255891 0a15.255891 15.255891 0 1 0 30.511782 0 15.255891 15.255891 0 1 0-30.511782 0Z" fill="#333333" /><path d="M417.211768 376.818468m-15.255891 0a15.255891 15.255891 0 1 0 30.511783 0 15.255891 15.255891 0 1 0-30.511783 0Z" fill="#333333" /><path d="M479.566385 491.493625m-15.255892 0a15.255891 15.255891 0 1 0 30.511783 0 15.255891 15.255891 0 1 0-30.511783 0Z" fill="#333333" /><path d="M481.511767 644.359704m-15.255892 0a15.255891 15.255891 0 1 0 30.511783 0 15.255891 15.255891 0 1 0-30.511783 0Z" fill="#333333" /><path d="M416.802214 759.444414m-15.255891 0a15.255891 15.255891 0 1 0 30.511782 0 15.255891 15.255891 0 1 0-30.511782 0Z" fill="#333333" /><path d="M625.470043 793.94935m-15.255891 0a15.255891 15.255891 0 1 0 30.511783 0 15.255891 15.255891 0 1 0-30.511783 0Z" fill="#333333" /></svg>