<?xml version="1.0" standalone="no"?><!DOCTYPE svg PUBLIC "-//W3C//DTD SVG 1.1//EN" "http://www.w3.org/Graphics/SVG/1.1/DTD/svg11.dtd"><svg class="icon" width="200px" height="200.00px" viewBox="0 0 1024 1024" version="1.1" xmlns="http://www.w3.org/2000/svg"><path d="M864.791975 439.867279v83.0371h-700.644727v-83.0371z" fill="#9AD14B" /><path d="M246.058073 439.867279v83.0371h-81.910825v-83.0371z" fill="#8BB73D" /><path d="M779.809493 522.904379v5.324203l-95.016558 95.016559-100.44315-100.340762z" fill="#F4DE3B" /><path d="M864.791975 522.904379c21.706369 0 41.364967 8.805414 55.699362 23.03742 14.232006 14.232006 23.03742 33.890604 23.03742 55.596973 0 43.515126-35.221655 78.736781-78.736782 78.736781h-704.945046c-21.706369 0-41.364967-8.805414-55.699362-23.03742s-23.03742-33.890604-23.037419-55.699361c0-43.412738 35.221655-78.736781 78.736781-78.736782h424.605244l100.340762 100.340762 95.118947-95.016558v-5.221815h84.880093z" fill="#B27214" /><path d="M871.140064 680.275553c19.760987 0 35.733598 15.972611 35.733598 35.733598v43.515126c0 51.808597-41.979298 93.787896-93.787896 93.787896h-601.635016c-51.808597 0-93.787896-41.979298-93.787896-93.787896v-43.515126c0-19.760987 15.972611-35.733598 35.733598-35.733598h717.743612zM906.873662 404.133681c0 19.760987-15.972611 35.733598-35.733598 35.733598h-717.743612c-9.829299 0-18.83949-3.993153-25.289968-10.44363-6.450478-6.450478-10.44363-15.35828-10.44363-25.289968 0-129.009551 104.538692-233.650631 233.650631-233.650631h322.011935c64.504775 0 122.866239 26.109076 165.152702 68.39554 42.286464 42.388852 68.39554 100.750316 68.39554 165.255091z" fill="#F7B239" /><path d="M334.2146 759.626666v-43.515126c0-19.760987 15.972611-35.733598 35.733598-35.733598h-216.551746c-19.760987 0-35.733598 15.972611-35.733598 35.733598v43.515126c0 51.808597 41.979298 93.787896 93.787896 93.787896h216.551746c-51.808597 0-93.787896-42.081687-93.787896-93.787896zM299.402499 404.23607c0-129.009551 104.538692-233.650631 233.650631-233.650632h-181.739645c-129.009551 0-233.650631 104.64108-233.650631 233.650632 0 9.829299 3.993153 18.83949 10.44363 25.289967 6.450478 6.450478 15.35828 10.44363 25.289968 10.44363h181.739645c-9.829299 0-18.83949-3.993153-25.289968-10.44363-6.450478-6.552866-10.44363-15.460668-10.44363-25.289967z" fill="#E09B2D" /><path d="M249.436895 601.538772c0-28.771178 15.460668-54.061145 38.600477-67.781209l-11.057962-10.853184h-117.132481c-43.515126 0-78.736781 35.221655-78.736781 78.736781 0 21.706369 8.805414 41.364967 23.037419 55.699362s33.890604 23.03742 55.699362 23.03742H328.173677c-21.706369 0-41.364967-8.805414-55.699362-23.03742-14.232006-14.334395-23.03742-33.992993-23.03742-55.80175z" fill="#995E10" /><path d="M855.986562 787.681124c-9.829299 0-17.815605-7.986306-17.815605-17.815605v-36.347929c0-9.829299 7.986306-17.815605 17.815605-17.815605s17.815605 7.986306 17.815604 17.815605v36.347929c-0.102389 9.931688-7.986306 17.815605-17.815604 17.815605zM853.836402 392.461388c-8.600637 0-16.177388-6.2457-17.508439-15.051114-5.221815-33.890604-20.887261-64.709553-45.35812-89.180412-7.167197-7.167197-15.051114-13.720063-23.344585-19.351432-8.088694-5.528981-10.238853-16.586942-4.607484-24.675637s16.586942-10.238853 24.675636-4.607484c10.136465 6.96242 19.658598 14.846337 28.464012 23.651751 29.897451 29.897451 49.044107 67.474043 55.392196 108.941399 1.535828 9.726911-5.119427 18.737101-14.846337 20.272929-1.023885-0.102389-1.945382 0-2.866879 0zM892.539268 617.408994c-9.829299 0-17.815605-7.986306-17.815605-17.815604 0-2.150159-1.023885-3.685987-1.842994-4.505096-0.819108-0.819108-2.354936-1.842994-4.505095-1.842993-9.829299 0-17.815605-7.986306-17.815605-17.815605 0-9.829299 7.986306-17.815605 17.815605-17.815605 15.153503 0 25.08519 7.67914 29.692674 12.286624s12.286624 14.539172 12.286624 29.692675c-0.102389 9.829299-7.986306 17.815605-17.815604 17.815604z" fill="#FFFFFF" /><path d="M736.80631 233.349609m-17.815605 0a17.815605 17.815605 0 1 0 35.631209 0 17.815605 17.815605 0 1 0-35.631209 0Z" fill="#FFFFFF" /><path d="M961.241973 601.64116c0-47.917833-35.016878-87.746972-80.886941-95.221335v-49.55605c25.08519-4.402707 44.231846-26.313853 44.231846-52.627705 0-138.634073-112.729774-251.363847-251.363847-251.363848h-321.909546c-138.634073-0.102389-251.363847 112.729774-251.363847 251.261459 0 26.313853 19.146656 48.327387 44.231846 52.627706v49.556049c-45.767674 7.474363-80.886941 47.303502-80.886941 95.221336 0 35.119267 18.83949 65.938215 46.996336 82.832322-6.552866 8.907802-10.44363 19.760987-10.44363 31.638057v43.515126c0 61.535508 50.067992 111.6035 111.603501 111.603501h601.635016c61.535508 0 111.6035-50.067992 111.603501-111.603501v-43.515126c0-11.87707-3.890764-22.730254-10.443631-31.638057 28.156846-16.894108 46.996336-47.610668 46.996337-82.729934z m-781.531669-96.552386v-47.40589h665.115907v47.40589h-665.115907z m562.522598 35.528821l-57.439967 57.439967-57.439967-57.439967h114.879934z m-606.754444-136.483914c0-118.975475 96.859552-215.835026 215.835027-215.835026h322.011935c118.975475 0 215.835026 96.859552 215.835026 215.835026 0 9.931688-8.088694 17.917993-17.917993 17.917993h-717.846001c-9.931688 0.102389-17.917993-7.986306-17.917994-17.917993z m735.661606 293.957477c9.931688 0 17.917993 8.088694 17.917993 17.917993v43.515126c0 41.87691-34.095381 76.07468-76.074679 76.07468h-601.532628c-41.87691 0-76.07468-34.095381-76.07468-76.07468v-43.515126c0-9.931688 8.088694-17.917993 17.917993-17.917993H871.140064z m-6.348089-35.528821h-704.945046c-33.583439 0-60.921177-27.337738-60.921177-60.921177s27.337738-60.921177 60.921177-60.921177h417.23327l95.118947 95.221336c3.48121 3.48121 7.986306 5.221815 12.593789 5.221815s9.112579-1.740605 12.59379-5.221815l95.016558-95.016559-0.102389-0.102388h72.491081c33.583439 0 60.921177 27.337738 60.921177 60.921177 0 33.48105-27.337738 60.818788-60.921177 60.818788z" fill="#333333" /><path d="M338.002976 243.178908m-17.815605 0a17.815605 17.815605 0 1 0 35.631209 0 17.815605 17.815605 0 1 0-35.631209 0Z" fill="#333333" /><path d="M686.53354 243.178908m-17.815604 0a17.815605 17.815605 0 1 0 35.631209 0 17.815605 17.815605 0 1 0-35.631209 0Z" fill="#333333" /><path d="M454.21396 243.178908m-17.815605 0a17.815605 17.815605 0 1 0 35.63121 0 17.815605 17.815605 0 1 0-35.63121 0Z" fill="#333333" /><path d="M570.424944 243.178908m-17.815604 0a17.815605 17.815605 0 1 0 35.631209 0 17.815605 17.815605 0 1 0-35.631209 0Z" fill="#333333" /></svg>