<?xml version="1.0" standalone="no"?><!DOCTYPE svg PUBLIC "-//W3C//DTD SVG 1.1//EN" "http://www.w3.org/Graphics/SVG/1.1/DTD/svg11.dtd"><svg class="icon" width="200px" height="200.00px" viewBox="0 0 1024 1024" version="1.1" xmlns="http://www.w3.org/2000/svg"><path d="M883.289488 512v115.217816h-74.813253v-230.435632h74.813253zM637.147455 512v115.217816h-74.814276v-230.435632h74.814276zM391.005423 512v115.217816h-74.814276v-230.435632h74.814276z" fill="#B27214" /><path d="M760.218472 512v46.707601c0 20.667125-16.740525 37.406626-37.406627 37.406626s-37.406626-16.740525-37.406626-37.406626v-93.414178c0-20.667125 16.740525-37.406626 37.406626-37.406626a37.413794 37.413794 0 0 1 26.453101 10.953525 37.413794 37.413794 0 0 1 10.953526 26.453101v46.706577z" fill="#F95428" /><path d="M514.076439 512v46.707601c0 20.667125-16.740525 37.406626-37.406626 37.406626s-37.406626-16.740525-37.406626-37.406626v-93.414178c0-20.667125 16.740525-37.406626 37.406626-37.406626 10.333051 0 19.634025 4.236837 26.453101 10.953525a37.413794 37.413794 0 0 1 10.953525 26.453101v46.706577z" fill="#9AD14B" /><path d="M944.670389 497.016462h-46.500776v-100.234278c0-8.26685-6.716688-14.983538-14.983538-14.983537h-74.710864c-8.26685 0-14.983538 6.716688-14.983538 14.983537v100.234278h-18.290688v-31.724063c0-28.830563-23.457213-52.390164-52.390164-52.390164-28.830563 0-52.390164 23.457213-52.390164 52.390164v31.724063h-18.289664v-100.234278c0-8.26685-6.716688-14.983538-14.983538-14.983537h-74.814276c-8.26685 0-14.983538 6.716688-14.983538 14.983537v100.234278h-18.289664v-31.724063c0-28.830563-23.457213-52.390164-52.390164-52.390164s-52.390164 23.457213-52.390164 52.390164v31.724063h-18.290688v-100.234278c0-8.26685-6.716688-14.983538-14.983538-14.983537h-74.814276c-8.26685 0-14.983538 6.716688-14.983538 14.983537v100.234278h-44.847201c-8.26685 0-14.983538 6.716688-14.983538 14.983538 0 40.403539-32.860576 73.367527-73.367527 73.367527-40.403539 0-73.264114-32.860576-73.264114-73.367527 0-40.403539 32.860576-73.264114 73.264114-73.264114 8.26685 0 14.983538-6.716688 14.983538-14.983538 0-8.26685-6.716688-14.983538-14.983538-14.983538-56.937239 0-103.23119 46.293951-103.23119 103.23119s46.293951 103.23119 103.23119 103.23119c51.874126 0 94.860928-38.440751 102.19809-88.247652h31.000176v100.234278c0 8.26685 6.716688 14.983538 14.983538 14.983537h74.814276c8.26685 0 14.983538-6.716688 14.983538-14.983537v-100.234278h18.290688v31.724063c0 28.830563 23.457213 52.390164 52.390164 52.390164s52.390164-23.457213 52.390164-52.390164v-31.724063h18.289664v100.234278c0 8.26685 6.716688 14.983538 14.983538 14.983537h74.814276c8.26685 0 14.983538-6.716688 14.983538-14.983537v-100.234278h18.289664v31.724063c0 28.830563 23.457213 52.390164 52.390164 52.390164 28.933975 0 52.390164-23.457213 52.390164-52.390164v-31.724063h18.290688v100.234278c0 8.26685 6.716688 14.983538 14.983538 14.983537h74.814277c8.26685 0 14.983538-6.716688 14.983537-14.983537v-100.234278h46.500776c8.26685 0 14.983538-6.716688 14.983538-14.983538-0.103412-8.26685-6.8201-14.983538-15.08695-14.983538z m-568.648503 115.217816h-44.847202V411.765722h44.847202v200.468556z m100.647927-31.103589c-12.400275 0-22.423089-10.023837-22.423089-22.423088v-93.414178c0-12.400275 10.023837-22.423089 22.423089-22.423088s22.423089 10.023837 22.423089 22.423088v93.414178c0 12.399251-10.023837 22.423089-22.423089 22.423088z m145.494105 31.103589h-44.847201V411.765722h44.847201v200.468556z m100.647927-31.103589c-12.400275 0-22.423089-10.023837-22.423089-22.423088v-93.414178c0-12.400275 10.023837-22.423089 22.423089-22.423088s22.423089 10.023837 22.423089 22.423088v93.414178c0 12.399251-10.022813 22.423089-22.423089 22.423088z m145.494105 31.103589h-44.847201V411.765722h44.847201v200.468556z" fill="#333333" /><path d="M356.594685 430.986098m-14.983537 0a14.983538 14.983538 0 1 0 29.967075 0 14.983538 14.983538 0 1 0-29.967075 0Z" fill="#FFFFFF" /><path d="M479.356488 464.879773m-14.983538 0a14.983538 14.983538 0 1 0 29.967076 0 14.983538 14.983538 0 1 0-29.967076 0Z" fill="#FFFFFF" /><path d="M726.738445 464.879773m-14.983538 0a14.983538 14.983538 0 1 0 29.967076 0 14.983538 14.983538 0 1 0-29.967076 0Z" fill="#FFFFFF" /><path d="M603.046955 430.986098m-14.983538 0a14.983538 14.983538 0 1 0 29.967076 0 14.983538 14.983538 0 1 0-29.967076 0Z" fill="#FFFFFF" /><path d="M853.013199 430.986098m-14.983538 0a14.983538 14.983538 0 1 0 29.967075 0 14.983538 14.983538 0 1 0-29.967075 0Z" fill="#FFFFFF" /></svg>