<?xml version="1.0" standalone="no"?><!DOCTYPE svg PUBLIC "-//W3C//DTD SVG 1.1//EN" "http://www.w3.org/Graphics/SVG/1.1/DTD/svg11.dtd"><svg class="icon" width="200px" height="200.00px" viewBox="0 0 1024 1024" version="1.1" xmlns="http://www.w3.org/2000/svg"><path d="M456.374358 411.244565c20.567808 0 37.32574 16.649399 37.32574 37.325739 0 20.567808-16.649399 37.32574-37.32574 37.32574-20.567808 0-37.32574-16.649399-37.325739-37.32574s16.757931-37.32574 37.325739-37.325739zM597.081799 608.212456c31.123042 0 56.370007 25.246964 56.370006 56.370007s-25.246964 56.370007-56.370006 56.370006-56.370007-25.246964-56.370007-56.370006 25.24594-56.370007 56.370007-56.370007z" fill="#E09B2D" /><path d="M802.429168 497.214072c-13.276721 13.276721-31.667749 21.546643-52.01747 21.546643-40.59091 0-73.564113-32.864671-73.564113-73.564113 0-20.349721 8.270946-38.632217 21.546643-52.01747L512.309213 207.093094 308.702449 410.591326c28.075959 13.711872 47.446846 42.549602 47.446846 75.957956 0 46.685075-37.760891 84.445966-84.445966 84.445967-33.408354 0-62.246084-19.370886-75.957956-47.446846L81.045643 638.356664c62.899323 62.899323 136.028285 109.149247 214.053466 138.748748 69.863791 26.552418 143.536436 39.829139 217.318636 39.829139 156.159918 0 312.211304-59.525621 431.262547-178.686419L802.429168 497.214072z m-346.05481-11.42656c-19.58795 0-35.693666-15.125858-37.217208-34.278657-0.108532-0.979858-0.108532-1.958693-0.108531-2.938551 0-10.556258 4.462092-20.132657 11.535092-26.879037 6.637849-6.420785 15.779097-10.33817 25.790647-10.338171 20.567808 0 37.32574 16.649399 37.32574 37.32574s-16.758955 37.108676-37.32574 37.108676zM597.081799 720.952469c-31.123042 0-56.370007-25.246964-56.370007-56.370006s25.246964-56.370007 56.370007-56.370007 56.370007 25.246964 56.370006 56.370007-25.246964 56.370007-56.370006 56.370006z" fill="#F7B239" /><path d="M512.309213 207.093094l-81.725502 214.488617-11.426561 29.92612L295.099109 777.213944c-78.025181-29.708033-151.262675-75.957957-214.053466-138.85728l114.807237-114.807238c13.711872 28.075959 42.549602 47.446846 75.957957 47.446846 46.685075 0 84.445966-37.760891 84.445966-84.445966 0-33.408354-19.369863-62.246084-47.446846-75.957956l203.499256-203.499256z" fill="#E09B2D" /><path d="M875.993281 652.2856a15.2477 15.2477 0 0 1-10.773322-4.462092l-58.328699-58.220168c-5.985634-5.985634-5.985634-15.670565 0-21.655174 5.985634-5.985634 15.670565-5.985634 21.655175 0l58.220167 58.220167c5.985634 5.985634 5.985634 15.670565 0 21.656199a15.250772 15.250772 0 0 1-10.773321 4.461068zM736.482762 580.136497c-0.543683 0-1.196922 0-1.741629-0.108532-35.911754-4.135473-69.210552-23.070184-91.51999-51.690851-5.223863-6.637849-3.917385-16.323804 2.720464-21.438111 6.637849-5.223863 16.323804-3.917385 21.43811 2.720464 17.302638 22.308413 43.093286 36.890588 70.84365 40.155758 8.379477 0.979858 14.364087 8.596541 13.385253 16.976019-0.870303 7.617707-7.508151 13.385253-15.125858 13.385253zM638.869631 415.16195a15.2477 15.2477 0 0 1-10.773322-4.462092l-88.581439-88.799527c-5.985634-5.985634-5.985634-15.670565 0-21.655174s15.670565-5.985634 21.655175 0l88.581439 88.799526c5.985634 5.985634 5.985634 15.670565 0 21.655175-3.047083 2.938551-6.964468 4.462092-10.881853 4.462092z" fill="#FFFFFF" /><path d="M512.309213 273.366119m-15.343945 0a15.343945 15.343945 0 1 0 30.687891 0 15.343945 15.343945 0 1 0-30.687891 0Z" fill="#FFFFFF" /><path d="M512.309213 832.277473c-167.041771 0-324.073016-65.076103-442.145423-183.147488-2.828995-2.828995-4.462092-6.747404-4.462093-10.773321s1.632073-7.944326 4.462093-10.773321l114.807237-114.808262c3.482234-3.482234 8.488009-5.114307 13.385253-4.244004 4.897244 0.761771 9.032716 3.917385 11.208473 8.379477 11.643624 23.940487 35.475579 38.849281 62.137552 38.849281 38.08751 0 69.102021-31.01451 69.102021-69.102021 0-26.66095-14.908794-50.493929-38.849281-62.246084-4.462092-2.17678-7.509175-6.311229-8.379477-11.208473-0.761771-4.897244 0.761771-9.794487 4.244004-13.385253l203.606764-203.606764c5.985634-5.985634 15.670565-5.985634 21.655175 0l186.19457 186.194571c5.985634 5.985634 5.985634 15.670565 0 21.655174-10.991409 10.991409-17.085574 25.573584-17.085574 41.134593 0 32.1029 26.117267 58.220167 58.220167 58.220167 15.562033 0 30.144208-6.094165 41.134593-17.085574 5.985634-5.985634 15.670565-5.985634 21.656198 0l141.142592 141.142592c5.985634 5.985634 5.985634 15.670565 0 21.655175-117.961828 118.182988-274.993073 183.149535-442.034844 183.149535zM102.810373 638.247108C213.808757 743.80559 358.651671 801.80767 512.417745 801.80767s298.608988-57.893548 409.607372-163.559538l-120.466252-120.35772c-14.800262 10.446702-32.538052 16.105716-51.037611 16.105716-48.970387 0-88.798503-39.829139-88.798503-88.799526 0-18.49956 5.659014-36.237349 16.105716-51.037612L512.417745 228.749292 333.078087 407.870862c24.050042 18.608092 38.41413 47.33729 38.41413 78.67842 0 54.954997-44.726383 99.68138-99.789912 99.68138-31.34113 0-60.070328-14.364087-78.67842-38.414129l-90.213512 90.430575z" fill="#333333" /><path d="M597.081799 736.187883c-39.50252 0-71.60542-32.1029-71.60542-71.60542s32.1029-71.60542 71.60542-71.60542 71.60542 32.1029 71.60542 71.60542c-0.001024 39.50252-32.1029 71.60542-71.60542 71.60542z m0-112.631481c-22.635033 0-41.026061 18.391028-41.026061 41.026061s18.391028 41.026061 41.026061 41.026061 41.026061-18.391028 41.026061-41.026061-18.391028-41.026061-41.026061-41.026061zM456.374358 501.131457c-29.055818 0-52.561153-23.614891-52.561153-52.561153s23.614891-52.561153 52.561153-52.561153c29.055818 0 52.561153 23.614891 52.561153 52.561153s-23.614891 52.561153-52.561153 52.561153z m0-74.652503c-12.188331 0-21.981794 9.903019-21.981794 21.981794s9.903019 21.981794 21.981794 21.981794c12.079799 0 21.981794-9.903019 21.981794-21.981794s-9.903019-21.981794-21.981794-21.981794z" fill="#333333" /><path d="M615.907978 555.433215m-15.343945 0a15.343945 15.343945 0 1 0 30.687891 0 15.343945 15.343945 0 1 0-30.687891 0Z" fill="#333333" /><path d="M310.007903 661.426848m-15.343945 0a15.343945 15.343945 0 1 0 30.687891 0 15.343945 15.343945 0 1 0-30.687891 0Z" fill="#333333" /></svg>