<?xml version="1.0" standalone="no"?><!DOCTYPE svg PUBLIC "-//W3C//DTD SVG 1.1//EN" "http://www.w3.org/Graphics/SVG/1.1/DTD/svg11.dtd"><svg class="icon" width="200px" height="200.00px" viewBox="0 0 1024 1024" version="1.1" xmlns="http://www.w3.org/2000/svg"><path d="M253.258035 393.068552a313.364199 258.955957 90 1 0 517.911914 0 313.364199 258.955957 90 1 0-517.911914 0Z" fill="#2BA5F7" /><path d="M412.482442 393.068552c0-139.429632 75.285264-257.549138 179.343753-298.220935-25.095429-9.843634-51.812693-15.143264-79.612203-15.143264-142.998896 0-258.955957 140.294815-258.955957 313.364199s115.957061 313.256691 258.955957 313.256692c27.79951 0 54.516774-5.300654 79.612203-15.143264-104.058489-40.564289-179.343753-158.683795-179.343753-298.113428z" fill="#2197D8" /><path d="M787.178396 393.068552c0-181.507223-123.312653-329.265138-274.856896-329.265138s-274.964404 147.650407-274.964404 329.265138c0 175.125346 114.767306 318.773385 258.955957 328.724527v222.502568c0 8.761387 7.139552 15.900939 15.900939 15.900939 8.761387 0 15.900939-7.139552 15.900939-15.900939V721.684547c144.188651-9.84261 259.063465-153.490649 259.063465-328.615995z m-274.964404 297.355752c-92.916569 0-173.718528-64.144368-214.606364-158.034652 35.046571 22.823428 90.861631 48.243429 168.526405 51.921225h0.757675c8.436815 0 15.467836-6.706449 15.900939-15.143264 0.433103-8.761387-6.381877-16.225511-15.143264-16.65759-66.739917-3.137185-114.983346-24.230246-143.864079-41.32094-24.446286-14.602653-39.37351-28.773225-44.781672-34.397428-6.381877-26.501224-9.843634-54.625306-9.843634-83.614571 0-63.711264 16.441551-122.879549 44.457101-171.23151 22.282816 21.525141 71.066857 55.815061 163.658854 69.33649 0.757675 0.108532 1.514326 0.21604 2.272002 0.21604 7.787672 0 14.602653-5.732734 15.792407-13.628937 1.298287-8.653879-4.759019-16.766122-13.412898-18.064409-92.70053-13.52143-135.535796-49.217144-150.46302-65.117059 44.565633-60.57408 109.033548-98.757835 180.749548-98.757835 47.810325 0 92.48449 16.982162 130.12661 46.295999-39.37351-2.054938-69.227958-9.41053-69.661062-9.519062-8.545347-2.16347-17.199226 3.028653-19.362695 11.574s3.028653 17.199226 11.573999 19.361671c2.054938 0.540611 44.565633 11.033388 97.352041 11.033388 4.651511 0 9.41053-0.108532 14.278081-0.324571 46.729102 52.570368 76.692082 127.206489 78.638488 210.279424-119.742365 73.014286-284.051386 10.600285-285.67322 9.951142-8.220775-3.244693-17.415265 0.865183-20.659959 9.085958s0.865183 17.415265 9.085959 20.659958c1.94743 0.757675 47.378246 18.280449 109.466652 25.202938 16.116979 1.730366 31.801878 2.704081 47.053674 2.704081 52.245796 0 99.51551-10.275713 139.754203-30.503592-11.681508 150.356536-115.739997 268.693106-241.972771 268.693106z" fill="#333333" /></svg>