<?xml version="1.0" standalone="no"?><!DOCTYPE svg PUBLIC "-//W3C//DTD SVG 1.1//EN" "http://www.w3.org/Graphics/SVG/1.1/DTD/svg11.dtd"><svg class="icon" width="200px" height="200.00px" viewBox="0 0 1024 1024" version="1.1" xmlns="http://www.w3.org/2000/svg"><path d="M725.045963 240.516806l-93.673221 129.913642c-2.860736-2.119443-5.616011-4.344345-8.159342-6.887677-11.55045-11.655911-18.755531-27.65719-18.755531-45.459484v-17.69581a94.499496 94.499496 0 0 0-4.45083-28.610428l82.01731-113.700418c19.709793 23.73571 34.544867 51.816789 43.021614 82.440175zM535.580079 79.449406l32.742829 146.656214c-14.941559-11.762395-33.485146-18.862015-53.830771-19.391364a90.040475 90.040475 0 0 0-34.332923 5.827955L452.079159 86.655511a218.45003 218.45003 0 0 1 58.068632-8.476747c8.584255-0.001024 17.061001 0.422865 25.432288 1.270642zM420.184107 268.915289l4.132402 2.436848c-2.755275 8.688691-4.132401 17.802294-4.132402 27.338762v87.633321L295.357128 261.498264c5.510551-30.517926 17.166461-58.916409 33.590606-83.818324l91.236373 91.235349zM420.184107 551.631529v117.514391L291.754076 540.716912V423.201497zM420.184107 827.247124v54.36012c0 17.483866-6.994161 33.273201-18.331642 44.823652L291.648615 816.226023V698.710608l128.535492 128.536516z" fill="#F95428" /><path d="M732.781416 298.797383v19.391364c0 35.498104-28.716912 64.215016-64.215015 64.215016a63.904779 63.904779 0 0 1-37.300143-11.974339l93.673221-129.913642c5.193146 18.544611 7.841938 38.042459 7.841937 58.281601zM682.024349 158.075608l-82.12277 113.700417c-5.827955-18.226183-16.954517-34.226439-31.577647-45.776889l-32.743853-146.54973c58.705489 6.146384 110.627738 35.499128 146.44427 78.626202zM452.079159 86.655511l28.081079 125.78124c-26.490985 9.960356-47.260499 31.683107-55.737245 58.916409l-4.132402-2.436847-91.236373-91.236373c28.610428-43.446526 71.95047-76.295839 123.024941-91.024429zM420.184107 386.430704v165.199801L291.754076 423.201497v-121.647815c0-13.669893 1.271666-27.021358 3.603052-40.054394l124.826979 124.931416zM420.184107 669.14592v158.101204L291.754076 698.710608V540.716912zM401.957925 926.429872c-11.655911 11.974339-27.974595 19.391364-45.988834 19.391364-35.498104 0-64.215016-28.716912-64.215015-64.215016v-65.380197l110.203849 110.203849z" fill="#E6E6E6" /><path d="M679.163614 130.312957C634.339962 85.913194 575.211608 61.541651 512.373718 61.541651h-2.331387c-129.595213 1.271666-234.925368 108.932184-234.925368 240.011007v580.053562c0 44.611707 36.240421 80.851105 80.851105 80.851105s80.851105-36.240421 80.851104-80.851105V298.798407c0-20.451085 8.052858-39.630505 22.782473-53.936232 14.62313-14.305726 33.909034-21.934695 54.466603-21.510806 40.584767 0.953237 73.646024 35.604588 73.646024 77.142592v17.69581c0 44.611707 36.240421 80.851105 80.851105 80.851104s80.851105-36.240421 80.851104-80.851104v-19.391364c0.107508-63.792151-24.899867-123.556338-70.252867-168.48545z m-49.910314 214.474283c-5.192122-7.629993-8.159342-16.742573-8.159343-26.597469V300.492937c0-8.688691-1.059721-17.166461-2.967219-25.325804l64.108532-89.010447c10.596189 15.894796 18.755531 33.061257 24.478026 51.075496l-77.459996 107.555058z m31.365703-185.651911l-57.963172 80.321756c-5.404067-8.264802-11.974339-15.788312-19.285904-22.253124L557.19737 99.901515c36.876254 8.264802 70.784264 26.702929 98.441454 54.042715 1.695554 1.69453 3.391108 3.495544 4.980179 5.191099zM308.391188 809.338346v-70.361399l95.156831 95.15683v47.472443c0 6.675732-1.377126 13.13952-3.920457 18.967476l-91.236374-91.23535z m0-117.515414V580.87779l95.156831 95.15683v110.946166l-95.156831-95.157854z m0-157.993697v-70.361399l95.156831 95.15683v70.3614l-95.156831-95.156831z m0-117.515414V301.552658v-3.284624l95.050347 95.050346v118.045787l-95.050347-95.050346z m95.156831-117.516438v47.472443l-90.070169-90.070168c4.026941-18.119699 10.490729-35.392644 18.967476-51.3929l73.222135 73.115651c-1.484634 6.782216-2.119443 13.775353-2.119442 20.874974z m-95.156831 582.809861V856.493385l68.030013 68.030012c-6.251844 2.96722-13.13952 4.662774-20.451086 4.662774-26.174604-0.001024-47.578927-21.40637-47.578927-47.578927zM436.290847 221.018958a113.428064 113.428064 0 0 0-17.802294 22.677012l-67.818068-67.818068c22.888956-30.094037 53.618827-53.618827 89.116931-67.49964l21.086918 94.520997c-8.795175 4.768234-17.165437 10.808133-24.583487 18.119699z m56.267618-29.246261l-20.663029-92.825443c12.398227-2.543331 25.219319-3.920457 38.359863-4.132401h2.012959c3.284624 0 6.463788 0.10546 9.748412 0.211944l22.253124 99.819604c-9.324524-2.96722-19.17942-4.662774-29.352745-4.980178-7.629993-0.001024-15.047019 0.634809-22.358584 1.906474z m223.586863 126.417074c0 26.173581-21.298863 47.577903-47.578927 47.577903-4.238885 0-8.264802-0.635833-12.186284-1.58907l59.022894-81.805366c0.423889 5.510551 0.741293 11.020078 0.741293 16.530629v19.285904h0.001024z" fill="#333333" /><path d="M369.108612 887.011311a16.597181 16.597181 0 0 1-16.636089-16.636089V352.628154a16.597181 16.597181 0 0 1 16.636089-16.636089 16.597181 16.597181 0 0 1 16.636089 16.636089v517.746044a16.597181 16.597181 0 0 1-16.636089 16.637113zM681.705921 315.434495a16.597181 16.597181 0 0 1-16.636089-16.636088c0-13.775353-1.801014-27.338762-5.404067-40.266339-5.722495-20.981458-15.789336-40.160878-29.776633-57.008911-25.749692-31.048299-61.778169-50.333179-101.408674-54.572064-5.404067-0.529349-10.808133-0.847777-16.10674-0.847777H510.572704c-9.112579 0-16.530629-7.311565-16.636089-16.530628-0.10546-9.219063 7.311565-16.742573 16.530629-16.848033h1.907498c6.463788 0 13.13952 0.317404 19.603308 1.059721 48.32022 5.086662 92.189611 28.716912 123.555314 66.439919 17.059977 20.451085 29.24626 43.869391 36.240421 69.513622 4.344345 15.894796 6.570272 32.425424 6.570272 49.167998-0.001024 9.005071-7.419073 16.528581-16.638136 16.52858z m-312.597309 0a16.597181 16.597181 0 0 1-16.636089-16.636088 16.597181 16.597181 0 0 1 16.636089-16.636089 16.597181 16.597181 0 0 1 16.636089 16.636089c0.001024 9.112579-7.417025 16.636089-16.636089 16.636088z" fill="#FFFFFF" /></svg>