<?xml version="1.0" standalone="no"?><!DOCTYPE svg PUBLIC "-//W3C//DTD SVG 1.1//EN" "http://www.w3.org/Graphics/SVG/1.1/DTD/svg11.dtd"><svg class="icon" width="200px" height="200.00px" viewBox="0 0 1024 1024" version="1.1" xmlns="http://www.w3.org/2000/svg"><path d="M384.92764 420.254755l59.46214 6.990066 109.848561 12.83133 59.358728 6.989042 109.848561 12.831331 53.203129 6.259011 55.080935 210.204681-55.080935-10.53578-554.773833-106.301823-55.080935-10.536803 55.080935-147.821396 53.099717 6.259011z" fill="#2BA5F7" /><path d="M776.648759 665.824436v276.760299H221.874926V559.522613z" fill="#2BA5F7" /><path d="M723.44563 343.26677v116.629754L613.597069 447.065193V343.26677zM613.597069 129.724223h109.848561v159.81826H613.597069zM444.38978 129.724223h109.848561v159.81826H444.38978zM275.078055 129.724223h109.848561v159.81826H275.078055z" fill="#995C0D" /><path d="M776.648759 435.59051v30.566048l-53.098693-6.259011v-116.630777H613.597069v103.798423l-59.357704-6.989042v-96.809381H444.38978v83.978051l-59.357704-6.989042v-76.987985H275.078055v63.008879l-0.104436 1.147775-53.098693-6.259011V80.067832h554.669397l0.104436 355.522678z m-53.203129-146.048027v-159.81826H613.597069v159.81826h109.848561z m-169.207289 0v-159.81826H444.38978v159.81826h109.848561z m-169.310701 0v-159.81826H275.078055v159.81826h109.849585z" fill="#B27214" /><path d="M554.238341 343.26677v96.809381L444.38978 427.244821v-83.978051zM384.92764 343.26677v76.987985l-109.952997-12.83133 0.103412-1.147776v-63.008879z" fill="#995C0D" /><path d="M781.44771 715.063081l-562.597341-16.691379 3.024557-138.849089 554.773833 106.301823z" fill="#2197D8" /><path d="M761.835186 627.642728a16.573632 16.573632 0 0 1-16.065784-12.41461l-22.845953-87.21148-7.197914-0.834466c-9.180156-1.043339-15.648039-9.389028-14.604701-18.464748 1.043339-9.180156 9.284592-15.648039 18.464748-14.604701l18.569185 2.191115c6.781193 0.834467 12.41461 5.633417 14.187979 12.310173l25.767098 98.165006c2.295551 8.866847-3.025581 17.942566-11.892428 20.342553-1.565521 0.312285-3.025581 0.521158-4.38223 0.521158zM724.905691 911.497528c-9.180156 0-16.691379-7.406786-16.691379-16.691378V755.018158c0-9.180156 7.406786-16.691379 16.691379-16.691379 9.180156 0 16.691379 7.406786 16.691378 16.691379V894.807174c0 9.179132-7.511223 16.690355-16.691378 16.690354zM684.951637 262.106452c-9.180156 0-16.691379-7.406786-16.691378-16.691378v-69.894508c0-9.180156 7.406786-16.691379 16.691378-16.691379 9.180156 0 16.691379 7.406786 16.691379 16.691379v69.894508c0 9.284592-7.511223 16.691379-16.691379 16.691378zM346.120339 262.106452c-9.180156 0-16.691379-7.406786-16.691379-16.691378v-69.894508c0-9.180156 7.406786-16.691379 16.691379-16.691379 9.180156 0 16.691379 7.406786 16.691378 16.691379v69.894508c-0.104436 9.284592-7.511223 16.691379-16.691378 16.691378zM515.5365 262.106452c-9.180156 0-16.691379-7.406786-16.691379-16.691378v-69.894508c0-9.180156 7.406786-16.691379 16.691379-16.691379 9.180156 0 16.691379 7.406786 16.691378 16.691379v69.894508c-0.001024 9.284592-7.511223 16.691379-16.691378 16.691378zM684.951637 420.463628c-9.180156 0-16.691379-7.406786-16.691378-16.691378v-18.047003c0-9.180156 7.406786-16.691379 16.691378-16.691379 9.180156 0 16.691379 7.406786 16.691379 16.691379v18.047003c0 9.284592-7.511223 16.691379-16.691379 16.691378zM515.5365 410.135697c-9.180156 0-16.691379-7.406786-16.691379-16.691379v-7.720095c0-9.180156 7.406786-16.691379 16.691379-16.691379 9.180156 0 16.691379 7.406786 16.691378 16.691379v7.720095c-0.001024 9.180156-7.511223 16.691379-16.691378 16.691379z" fill="#FFFFFF" /><path d="M347.37255 385.725247m-16.691378 0a16.691379 16.691379 0 1 0 33.382757 0 16.691379 16.691379 0 1 0-33.382757 0Z" fill="#FFFFFF" /><path d="M847.898891 672.187883L793.235702 464.068856V80.172269c0-9.180156-7.406786-16.691379-16.691379-16.691379h-554.669397c-9.180156 0-16.691379 7.406786-16.691379 16.691379V398.243269l-54.142032 145.004687c-1.668933 4.590078-1.356648 9.701313 1.043339 13.979107a16.762027 16.762027 0 0 0 11.371271 8.241253l41.62401 7.927944v369.292911c0 9.180156 7.406786 16.691379 16.691379 16.691378h554.669397c9.180156 0 16.691379-7.406786 16.691378-16.691378v-256.626618l35.363975 6.781193c1.043339 0.208873 2.086678 0.313309 3.130018 0.313308 4.590078 0 8.971283-1.877806 12.205737-5.320108 4.066873-4.278817 5.527957-10.120083 4.066872-15.649063z m-87.94151-575.428672v350.619291l-19.820372-2.294527v-101.816181c0-9.180156-7.406786-16.691379-16.691379-16.691379H613.597069c-9.180156 0-16.691379 7.406786-16.691378 16.691379v85.020366l-26.080407-3.025581v-81.995809c0-9.180156-7.406786-16.691379-16.691379-16.691378H444.285344c-9.180156 0-16.691379 7.406786-16.691379 16.691378v65.199994l-26.080407-3.025581v-62.174413c0-9.180156-7.406786-16.691379-16.691378-16.691378H275.078055c-9.180156 0-16.691379 7.406786-16.691378 16.691378v45.379622l-19.924809-2.295551V96.759211h521.495513z m-53.098693 344.463692l-76.571264-8.971283v-72.293471h76.571264v81.264754z m-169.310701-19.820372l-76.571264-8.971283v-52.473099h76.571264v61.444382z m-169.207289-19.820372l-76.571264-8.971283v-32.651703h76.571264v41.622986z m391.616683 524.311197H238.566305v-346.237062l521.391076 99.833939v246.403123z m-570.734158-389.530005l43.709665-117.150911 530.466795 62.174413 45.58747 173.69293-619.76393-118.716432z" fill="#333333" /><path d="M275.078055 306.232838h109.848561c9.180156 0 16.691379-7.406786 16.691379-16.691379v-159.81826c0-9.180156-7.406786-16.691379-16.691379-16.691379H275.078055c-9.180156 0-16.691379 7.406786-16.691378 16.691379v159.81826c0.10546 9.18118 7.512247 16.691379 16.691378 16.691379z m16.691379-159.817237h76.571264v126.53994H291.769434V146.415601zM444.38978 306.232838h109.848561c9.180156 0 16.691379-7.406786 16.691379-16.691379v-159.81826c0-9.180156-7.406786-16.691379-16.691379-16.691379H444.38978c-9.180156 0-16.691379 7.406786-16.691378 16.691379v159.81826c0 9.18118 7.406786 16.691379 16.691378 16.691379z m16.586943-159.817237h76.571264v126.53994H460.976723V146.415601zM613.597069 306.232838h109.848561c9.180156 0 16.691379-7.406786 16.691379-16.691379v-159.81826c0-9.180156-7.406786-16.691379-16.691379-16.691379H613.597069c-9.180156 0-16.691379 7.406786-16.691378 16.691379v159.81826c0 9.18118 7.511223 16.691379 16.691378 16.691379z m16.691379-159.817237h76.571264v126.53994h-76.571264V146.415601z" fill="#333333" /></svg>