<?xml version="1.0" standalone="no"?><!DOCTYPE svg PUBLIC "-//W3C//DTD SVG 1.1//EN" "http://www.w3.org/Graphics/SVG/1.1/DTD/svg11.dtd"><svg class="icon" width="200px" height="200.00px" viewBox="0 0 1024 1024" version="1.1" xmlns="http://www.w3.org/2000/svg"><path d="M172.496008 512l-89.487577 78.634393v-157.268786zM887.167965 369.372774l54.573088 285.254452h-76.996176l-54.4707-285.254452z" fill="#B27214" /><path d="M810.274177 369.372774l54.4707 285.254452h-549.621643c-39.419585 0-75.050794-15.972611-100.852704-41.774522s-41.774521-61.433119-41.774522-100.852704c0-78.736781 63.890444-142.627226 142.627226-142.627226h495.150943z" fill="#F95428" /><path d="M360.583743 512c0-78.736781 63.890444-142.627226 142.627225-142.627226h-188.087734c-78.736781 0-142.627226 63.890444-142.627226 142.627226 0 39.419585 15.972611 75.050794 41.774522 100.852704s61.433119 41.774521 100.852704 41.774522h187.985346c-39.419585 0-75.050794-15.972611-100.852705-41.774522-25.699522-25.80191-41.672133-61.433119-41.672132-100.852704z" fill="#E54728" /><path d="M798.294719 624.729774c-7.576751 0-14.232006-5.324204-15.767834-13.003343l-24.470859-127.883277c-1.638217-8.703025 3.993153-17.098885 12.696178-18.737102 8.703025-1.638217 17.098885 4.095541 18.737101 12.696178l24.573248 127.883277c1.638217 8.703025-3.993153 17.098885-12.696178 18.737102-1.023885 0.204777-2.047771 0.307166-3.071656 0.307165z" fill="#FFFFFF" /><path d="M761.434847 415.242837m-16.074999 0a16.075 16.075 0 1 0 32.149999 0 16.075 16.075 0 1 0-32.149999 0Z" fill="#FFFFFF" /><path d="M957.406498 651.657958l-54.470699-285.254451c-1.433439-7.576751-8.088694-13.003344-15.767834-13.003344h-572.044731c-76.381845 0-140.27229 54.265922-155.323404 126.245061l-66.347769-58.156687c-4.709872-4.19793-11.467516-5.119427-17.201273-2.559713-5.733758 2.559713-9.419745 8.293471-9.419745 14.64156v157.166397c0 6.2457 3.685987 11.979458 9.419745 14.641561 2.150159 0.921497 4.402707 1.433439 6.655255 1.433439 3.788376 0 7.576751-1.331051 10.546018-3.993153l66.347769-58.361463c15.051114 71.979138 78.941559 126.142672 155.323404 126.142672h626.51543c4.812261 0 9.317356-2.150159 12.389013-5.836147 3.071656-3.583599 4.300318-8.39586 3.378821-13.105732z m-858.425456-96.449997v-86.415922l49.248884 43.207961-49.248884 43.207961z m89.589966-43.207961c0-69.828979 56.825636-126.552226 126.552226-126.552226h481.942823l48.327387 253.206841h-530.27021c-69.828979 0-126.552226-56.825636-126.552226-126.654615z m689.484378 126.654615l-48.327388-253.206841h44.334235l48.224999 253.206841h-44.231846z" fill="#333333" /></svg>