<?xml version="1.0" standalone="no"?><!DOCTYPE svg PUBLIC "-//W3C//DTD SVG 1.1//EN" "http://www.w3.org/Graphics/SVG/1.1/DTD/svg11.dtd"><svg class="icon" width="200px" height="200.00px" viewBox="0 0 1024 1024" version="1.1" xmlns="http://www.w3.org/2000/svg"><path d="M265.729982 660.16235c-10.094485 5.783928-19.874638 11.987649-29.442846 18.402291-15.03678 10.094485-29.442846 21.136065-43.32366 32.808357-30.599837 25.972899-76.762731 20.926168-101.578639-10.620762a71.176412 71.176412 0 0 1-15.2477-44.059834c0-12.303006 3.154591-24.606012 9.673668-35.647591 19.769178-33.648967 43.32366-64.775081 70.242629-92.745581 8.306782-8.623162 16.929944-17.035404 25.867439-25.026829l83.809109 156.889949z" fill="#F7B239" /><path d="M430.821252 601.065737c-14.932344 2.523877-29.653767 5.573008-44.059833 9.358312a470.353464 470.353464 0 0 0-38.170445 11.672292c-28.917593 10.199946-56.678196 22.923769-82.860992 38.066009l-83.808085-156.889949-14.932344-27.866063c43.112739-42.061209 93.797111-76.341914 149.950054-100.527108 10.409842-4.416017 20.926168-8.623162 31.651367-12.408467 3.469947-1.261427 6.939895-2.418417 10.409842-3.575407l71.820436 242.170381z" fill="#F7B239" /><path d="M265.729982 660.16235c-10.094485 5.783928-19.874638 11.987649-29.442846 18.402291L158.367415 532.715248l-2.312957-4.416018c8.306782-8.623162 16.929944-17.035404 25.867439-25.026829l83.808085 156.889949z" fill="#E09B2D" /><path d="M938.716496 621.044811c14.721423 25.132289 12.408466 56.783656-5.573008 79.706401-14.09071 17.981474-35.015854 27.339786-56.151919 27.339786-16.08831 0-32.177644-5.467548-45.42672-16.614587-22.608412-19.138464-47.003504-36.278305-72.766506-51.209625l83.702625-156.995408c37.855088 33.965348 70.347065 73.7136 96.215528 117.773433z" fill="#F7B239" /><path d="M857.432288 475.406338l-14.93132 27.866063-83.808086 156.889949c-26.183819-15.14224-53.944422-27.866063-82.860991-38.066009-26.393716-9.253876-53.944422-16.403667-82.125842-21.030604l71.714976-242.064921c3.469947 1.15699 6.939895 2.312957 10.409842 3.575407a491.864271 491.864271 0 0 1 181.601421 112.830115zM675.830867 323.668581l-10.409842 35.226775-71.714976 242.170381a495.580975 495.580975 0 0 0-81.494105-6.729999 495.458109 495.458109 0 0 0-81.494104 6.729999L359.00184 358.895356l-10.409842-35.226775c51.209625-17.981474 106.311037-27.760603 163.619946-27.760603s112.408274 9.779129 163.618923 27.760603z" fill="#F7B239" /><path d="M430.821252 601.065737c-14.932344 2.523877-29.653767 5.573008-44.059833 9.358312L318.411954 379.92596l-1.472347-5.047754c10.409842-4.416017 20.926168-8.623162 31.651367-12.408467 3.469947-1.261427 6.939895-2.418417 10.409842-3.575407l71.820436 242.171405z" fill="#E09B2D" /><path d="M619.678948 368.779945c-1.15699 0-2.312957-0.10546-3.575408-0.420817-21.556882-5.257651-43.744477-8.938519-65.932071-10.830659-8.096885-0.736174-14.09071-7.886989-13.459997-15.983874 0.736174-8.096885 7.781528-14.09071 15.983874-13.459996 23.659942 2.10306 47.42432 5.993825 70.453549 11.672292 7.886989 1.893164 12.723823 9.884589 10.830659 17.876014-1.577807 6.731022-7.676068 11.14704-14.300606 11.14704zM800.963988 499.90689c-3.364487 0-6.729998-1.15699-9.463772-3.469947-19.663718-16.509127-40.905243-31.33601-63.197274-44.26973-7.045355-4.100661-9.463772-13.03918-5.467548-20.084534 4.100661-7.045355 13.03918-9.463772 20.084535-5.467548a468.156207 468.156207 0 0 1 67.508855 47.214424c6.203721 5.257651 7.045355 14.511527 1.787704 20.715248-2.840258 3.574384-7.046379 5.362087-11.2525 5.362087zM876.990545 697.596621c-8.096885 0-14.721423-6.624538-14.721423-14.721423s6.624538-14.721423 14.721423-14.721423c3.575408 0 6.835458-1.577807 9.042955-4.416018 2.839234-3.575408 3.260051-8.623162 1.05153-12.408466-5.363111-9.148415-11.146016-18.191371-17.035404-26.814533-4.626938-6.729998-2.944694-15.878414 3.785304-20.505351 6.729998-4.626938 15.878414-2.944694 20.505352 3.785304 6.414642 9.253876 12.512903 18.927544 18.19137 28.602237 8.306782 14.19617 6.939895 32.387541-3.26005 45.53218-7.884941 9.990049-19.662694 15.667493-32.281057 15.667493z" fill="#FFFFFF" /><path d="M510.423217 342.491689m-14.721424 0a14.721423 14.721423 0 1 0 29.442847 0 14.721423 14.721423 0 1 0-29.442847 0Z" fill="#FFFFFF" /><path d="M951.439295 613.684099c-24.606012-41.956773-54.995952-80.127218-90.538084-113.460828l9.569232-17.876014c3.04913-5.783928 1.9976-12.933719-2.733774-17.455197-52.156718-50.999728-115.880269-90.74798-184.229734-115.248532l6.414642-21.766778c2.208521-7.570608-1.787704-15.457597-9.253876-18.086934-54.048859-18.927544-110.727055-28.602237-168.456781-28.602237s-114.407922 9.674692-168.45678 28.602237c-7.360712 2.629338-11.461372 10.515302-9.253876 18.086934l6.414642 21.766778c-68.350489 24.500552-131.96858 64.248804-184.229735 115.248532-4.732398 4.626938-5.783928 11.672293-2.733774 17.455197l9.569233 17.876014c-35.436671 33.333611-65.826611 71.399619-90.432624 113.460828-17.876014 30.494377-15.2477 68.245029 6.729998 96.215528 14.615963 18.612187 35.542131 30.07356 59.096614 32.493001 2.944694 0.315357 5.888365 0.420817 8.833058 0.420817 20.084535 0 39.327435-7.045355 54.785032-20.189995 21.977698-18.612187 45.742077-35.332235 70.557986-49.738301 25.657542-14.721423 52.681972-27.23535 80.442574-36.909018 50.894268-17.876014 104.312413-26.918969 158.783113-26.918969s107.887821 9.042955 158.783112 26.918969c27.760603 9.674692 54.785032 22.187595 80.442574 36.909018 24.921369 14.406067 48.686771 31.126114 70.557986 49.738301 17.771578 15.03678 40.378966 22.082135 63.618091 19.663718 23.449022-2.418417 44.48065-13.880813 59.096613-32.493001 21.872238-27.865039 24.501576-65.615691 6.624538-96.110068z m-768.045051 86.54186c-11.566833 9.884589-26.393716 14.406067-41.641416 12.829283-15.457597-1.577807-29.23295-9.148415-38.802182-21.345961-14.19617-18.086934-15.983874-43.42912-4.416018-63.092838a482.020638 482.020638 0 0 1 79.496505-101.368743l68.139568 127.551538c-22.082135 13.459996-43.112739 28.706673-62.776457 45.426721z m160.359896-92.010431c-24.711472 8.623162-48.896668 19.348361-72.030333 31.861263l-86.331963-161.726782c47.214424-43.954373 103.577263-78.550434 164.040764-100.421649l62.56656 211.570544c-23.133665 4.626938-45.951973 10.936119-68.245028 18.716624z m97.477978-23.658918l-74.44875-251.423233c46.899067-14.932344 95.690275-22.502952 145.428576-22.502952s98.634969 7.571632 145.428576 22.502952l-74.448749 251.423233a513.729342 513.729342 0 0 0-70.978803-4.942295c-23.871886 0-47.531828 1.682244-70.98085 4.942295z m171.190555 4.942294l62.67202-211.570544c60.35804 21.872238 116.826339 56.362839 164.040764 100.421649l-86.331963 161.726782c-23.239125-12.512903-47.42432-23.133665-72.030333-31.861263-22.397491-7.780505-45.216824-14.089686-68.350488-18.716624z m309.048522 102.209353c-9.569232 12.197546-23.344585 19.769178-38.802182 21.345961-15.2477 1.576783-30.07356-3.04913-41.641416-12.829283-19.663718-16.720047-40.694322-31.861264-62.672021-45.42672l68.139569-127.551539a481.994017 481.994017 0 0 1 79.496504 101.368743c11.462396 19.559281 9.780153 45.006927-4.520454 63.092838z" fill="#333333" /></svg>