<?xml version="1.0" standalone="no"?><!DOCTYPE svg PUBLIC "-//W3C//DTD SVG 1.1//EN" "http://www.w3.org/Graphics/SVG/1.1/DTD/svg11.dtd"><svg class="icon" width="200px" height="200.00px" viewBox="0 0 1024 1024" version="1.1" xmlns="http://www.w3.org/2000/svg"><path d="M773.666181 419.747932c11.467516 11.569904 11.467516 30.204617 0 41.672133s-30.204617 11.467516-41.672132 0l-61.330731-61.330731h83.446654l19.556209 19.658598zM542.575264 419.747932c11.467516 11.569904 11.467516 30.204617 0 41.672133-11.569904 11.467516-30.204617 11.467516-41.672133 0l-61.330731-61.330731h83.446654l19.55621 19.658598zM311.586734 419.747932c11.569904 11.569904 11.569904 30.204617 0 41.672133-11.467516 11.467516-30.204617 11.467516-41.672132 0l-61.330731-61.330731h83.446654l19.556209 19.658598z" fill="#E09B2D" /><path d="M904.92828 421.28376c23.139808 23.242197 37.576591 55.289808 37.576591 90.613851 0 70.750476-57.439967 128.190443-128.190442 128.190443h-603.989953c-35.426432 0-67.474043-14.334395-90.613852-37.576591s-37.576591-55.187419-37.576591-90.613852c0-65.016718 48.429776-118.668309 111.091558-127.064168l15.255891 15.255891 61.330731 61.330731c11.467516 11.467516 30.204617 11.467516 41.672133 0 11.569904-11.467516 11.569904-30.204617 0-41.672133l-19.658598-19.658598-16.382166-16.382165h147.644264l16.382165 16.382165 61.330731 61.330731c11.467516 11.467516 30.204617 11.467516 41.672133 0s11.467516-30.204617 0-41.672133l-19.658598-19.658598-16.382165-16.382165h147.644263l16.382166 16.382165 61.330731 61.330731c11.569904 11.467516 30.204617 11.467516 41.672132 0s11.467516-30.204617 0-41.672133l-19.658598-19.658598-16.382165-16.382165h76.689011c35.528821 0 67.576431 14.334395 90.818628 37.576591z" fill="#F7B239" /><path d="M181.758075 511.897611c0-37.986146 16.586942-72.183915 42.900795-95.630889l-16.177388-16.177388-15.255891-15.255891c-62.661782 8.293471-111.091558 62.047451-111.091558 127.064168 0 35.426432 14.334395 67.474043 37.576591 90.613852 23.139808 23.139808 55.187419 37.576591 90.613852 37.576591h99.624042c-35.426432 0-67.474043-14.334395-90.613851-37.576591-23.139808-23.139808-37.576591-55.187419-37.576592-90.613852z" fill="#E09B2D" /><path d="M888.85328 559.713056c-2.047771 0-4.095541-0.409554-6.143312-1.331051-7.67914-3.378822-11.262739-12.389012-7.883917-20.068152 3.685987-8.293471 5.528981-17.201273 5.528981-26.416242 0-17.713216-6.860032-34.300158-19.351432-46.791559-5.938535-5.938535-5.938535-15.665445 0-21.60398 5.938535-5.938535 15.665445-5.938535 21.60398 0 18.225159 18.327547 28.361623 42.59363 28.361623 68.395539 0 13.412898-2.662102 26.416241-8.088694 38.600477-2.559713 5.733758-8.088694 9.214968-14.027229 9.214968zM672.096757 483.024045c-3.890764 0-7.781528-1.535828-10.750796-4.505095l-37.269426-37.269426c-5.938535-5.938535-5.938535-15.665445 0-21.60398 5.938535-5.938535 15.665445-5.938535 21.603981 0l37.269426 37.269426c5.938535 5.938535 5.938535 15.665445 0 21.60398-3.071656 3.071656-6.96242 4.505095-10.853185 4.505095zM450.835138 492.853344c-3.890764 0-7.781528-1.535828-10.750795-4.505095l-47.098725-47.098725c-5.938535-5.938535-5.938535-15.665445 0-21.60398 5.938535-5.938535 15.665445-5.938535 21.60398 0l47.098725 47.098725c5.938535 5.938535 5.938535 15.665445 0 21.60398-3.071656 2.969267-6.96242 4.505095-10.853185 4.505095z" fill="#FFFFFF" /><path d="M829.57032 431.420225m-15.255891 0a15.255891 15.255891 0 1 0 30.511782 0 15.255891 15.255891 0 1 0-30.511782 0Z" fill="#FFFFFF" /><path d="M915.679076 410.532964c-27.030573-27.132961-63.071336-41.979298-101.364647-41.979298h-76.689011c-6.143312 0-11.774681 3.685987-14.129618 9.419745-0.921497 2.252548-1.228662 4.607484-1.126273 6.96242h-45.562897l-11.87707-11.87707c-2.866879-2.866879-6.757643-4.505095-10.750796-4.505095h-147.644264c-6.143312 0-11.774681 3.685987-14.129617 9.419745-0.921497 2.252548-1.228662 4.607484-1.126274 6.96242h-45.562897l-11.87707-11.87707c-2.866879-2.866879-6.757643-4.505095-10.750796-4.505095h-147.541875c-6.143312 0-11.774681 3.685987-14.129618 9.419745-0.921497 2.252548-1.228662 4.607484-1.126273 6.96242h-45.562897l-10.750796-10.750796c-3.378822-3.378822-8.088694-4.91465-12.798567-4.300318-70.852864 9.419745-124.299678 70.545699-124.299678 142.217672 0 38.293311 14.948726 74.334075 41.979298 101.364647 27.132961 27.132961 63.071336 41.979298 101.364647 41.979298h603.989953c79.043947 0 143.446334-64.299998 143.446334-143.446334 0-38.3957-14.948726-74.436463-41.979298-101.467036z m-168.019582 4.812261l15.153503 15.153503c5.528981 5.528981 5.528981 14.64156 0 20.170541-5.528981 5.528981-14.539172 5.528981-20.170541 0l-35.221655-35.324044h40.238693z m-230.988529 0l15.153503 15.153503c5.528981 5.528981 5.528981 14.64156 0 20.170541-5.528981 5.528981-14.64156 5.528981-20.170541 0l-35.324044-35.324044h40.341082z m-231.090918 0l15.153503 15.153503c2.662102 2.662102 4.19793 6.2457 4.19793 10.136465 0 3.788376-1.433439 7.371974-4.19793 10.034076-2.662102 2.662102-6.2457 4.19793-10.034076 4.19793-3.788376 0-7.371974-1.433439-10.034077-4.19793l-35.324043-35.324044h40.238693z m528.631993 209.486938h-603.887564c-30.204617 0-58.463852-11.774681-79.863056-33.071496-21.296815-21.296815-33.071496-49.658438-33.071496-79.863056 0-53.958757 38.498088-100.238373 90.613852-110.682003l71.057641 71.057641c8.498248 8.39586 19.658598 13.105732 31.638057 13.105733s23.139808-4.607484 31.638056-13.105733c8.498248-8.39586 13.105732-19.658598 13.105732-31.638056s-4.607484-23.242197-13.105732-31.638057l-10.034076-10.034076h104.538692l73.310189 73.310189c17.406051 17.406051 45.767674 17.406051 63.276113 0 17.406051-17.406051 17.406051-45.767674 0-63.276113l-9.931688-9.931687h104.436303l73.207801 73.310189c17.508439 17.406051 45.870063 17.406051 63.276113 0s17.406051-45.767674 0-63.276113l-9.931687-9.931688h39.829139c30.204617 0 58.566241 11.774681 79.863055 33.071496 21.296815 21.399203 33.071496 49.760827 33.071496 79.863056-0.102389 62.047451-50.784712 112.729774-113.03694 112.729774z" fill="#333333" /></svg>